<svg width="19" height="18" viewBox="0 0 19 18" fill="none" xmlns="http://www.w3.org/2000/svg">
<path fill-rule="evenodd" clip-rule="evenodd" d="M15.6968 1.40826C15.6968 1.44313 15.7412 1.47167 15.7955 1.47167C16.0398 1.47167 16.7515 2.18057 16.7515 2.4239C16.7515 2.4803 16.7794 2.52639 16.8136 2.52639C16.8538 2.52639 16.8756 3.30193 16.8756 4.72891C16.8756 5.94029 16.8543 6.93142 16.8282 6.93142C16.8022 6.93142 16.7297 7.05011 16.6672 7.1951C16.5305 7.51214 16.2289 7.80244 15.8519 7.97963C15.5867 8.10428 15.4792 8.11023 13.4954 8.11023C11.6589 8.11023 11.3878 8.0977 11.1681 8.00253C11.0314 7.94327 10.9195 7.87348 10.9195 7.84742C10.9195 7.82136 10.8801 7.80002 10.832 7.80002C10.7838 7.80002 10.6717 7.70925 10.5829 7.59838C10.494 7.48745 10.3954 7.36473 10.3637 7.32552C10.1336 7.04117 10.113 6.82719 10.113 4.72066C10.113 2.78021 10.1208 2.63249 10.2367 2.38581C10.4143 2.00797 10.7237 1.6828 11.0281 1.554C11.1732 1.49264 11.2918 1.42234 11.2918 1.3979C11.2918 1.37346 12.2829 1.35149 13.4943 1.34913C14.9552 1.34634 15.6968 1.36626 15.6968 1.40826ZM7.32105 1.3979C7.32105 1.42234 7.43967 1.49264 7.58473 1.554C7.88911 1.6828 8.19852 2.00797 8.37608 2.38581C8.49204 2.63249 8.49986 2.78021 8.49986 4.72066C8.49986 6.82719 8.47926 7.04117 8.24914 7.32552C8.21744 7.36473 8.11879 7.48751 8.02995 7.59838C7.9411 7.70925 7.82899 7.80002 7.78084 7.80002C7.7327 7.80002 7.6933 7.82136 7.6933 7.84742C7.6933 7.87348 7.58144 7.94327 7.4447 8.00253C7.22507 8.0977 6.95388 8.11023 5.11742 8.11023C3.1336 8.11023 3.02608 8.10428 2.76091 7.97963C2.38394 7.80244 2.08229 7.51214 1.94567 7.1951C1.88313 7.05005 1.81067 6.93142 1.78461 6.93142C1.75855 6.93142 1.73721 5.94029 1.73721 4.72891C1.73721 3.30193 1.75905 2.52639 1.79925 2.52639C1.83337 2.52639 1.86129 2.4803 1.86129 2.4239C1.86129 2.18057 2.57305 1.47167 2.81737 1.47167C2.8716 1.47167 2.91602 1.44313 2.91602 1.40826C2.91602 1.36626 3.65761 1.34634 5.11853 1.34913C6.32992 1.35149 7.32105 1.37346 7.32105 1.3979ZM11.8502 4.72692V6.36907L13.4944 6.38656L15.1385 6.40406V4.74442L15.1384 3.08478H13.4943H11.8502V4.72692ZM3.47434 4.74442V6.40406L5.11847 6.38656L6.76266 6.36907V4.72692V3.08478H5.11853H3.4744L3.47434 4.74442ZM15.8669 9.85711C16.2332 10.0349 16.5333 10.3278 16.6672 10.6385C16.7297 10.7835 16.8022 10.9022 16.8282 10.9022C16.8543 10.9022 16.8756 11.8933 16.8756 13.1047C16.8756 14.5316 16.8538 15.3072 16.8136 15.3072C16.7794 15.3072 16.7515 15.3533 16.7515 15.4097C16.7515 15.653 16.0398 16.3619 15.7955 16.3619C15.7412 16.3619 15.6968 16.3904 15.6968 16.4253C15.6968 16.4673 14.9552 16.4872 13.4943 16.4844C12.2829 16.4821 11.2918 16.4592 11.2918 16.4337C11.2918 16.4082 11.1664 16.3356 11.0131 16.2724C10.7303 16.1558 10.3467 15.728 10.1866 15.3508C10.1347 15.2285 10.113 14.5662 10.113 13.1093C10.113 11.0066 10.1336 10.7923 10.3637 10.5081C10.3954 10.4688 10.494 10.3461 10.5829 10.2352C10.6717 10.1243 10.7838 10.0336 10.832 10.0336C10.8801 10.0336 10.9195 10.0122 10.9195 9.98615C10.9195 9.96009 11.0314 9.8903 11.1681 9.83105C11.3884 9.73562 11.6553 9.72371 13.5102 9.72644C15.4929 9.72936 15.6177 9.73631 15.8669 9.85711ZM5.72587 9.96692L5.98713 10.2104L6.00686 11.2036L6.02659 12.1966L7.00972 12.2163L7.99278 12.2361L8.24635 12.4948C8.48131 12.7348 8.49986 12.7788 8.49986 13.0972C8.49986 13.4108 8.47907 13.4625 8.2613 13.6915L8.02275 13.9422H7.02579H6.02882L6.00798 14.9658L5.98713 15.9892L5.72332 16.2376C5.47925 16.4674 5.43309 16.486 5.1065 16.486C4.77339 16.486 4.7402 16.4717 4.51722 16.2326L4.28096 15.9792V14.9607V13.9422H3.25725H2.23355L1.98538 13.6941C1.75601 13.4647 1.73721 13.42 1.73721 13.1048C1.73721 12.7921 1.75787 12.7417 1.98556 12.4999L2.23398 12.2361L3.25744 12.2152L4.28096 12.1944V11.1974V10.2004L4.53173 9.96189C4.76024 9.74456 4.81279 9.72334 5.12356 9.72334C5.43458 9.72334 5.48756 9.74475 5.72587 9.96692ZM11.8502 13.1066V14.7488H13.4943H15.1384L15.1385 13.0892V11.4295L13.4944 11.447L11.8502 11.4645V13.1066Z" fill="currentColor"/>
</svg>
