<svg width="100" height="105" viewBox="0 0 100 105" fill="none" xmlns="http://www.w3.org/2000/svg">
<path fill-rule="evenodd" clip-rule="evenodd" d="M15.199 18.051C11.239 22.479 8 26.42 8 26.808C8 27.197 10.018 27.354 12.485 27.158L16.969 26.801L17.235 56.151L17.5 85.5H46.25H75.001L75 90.25C75 92.862 75.338 94.987 75.75 94.971C76.162 94.955 80.1 91.58 84.5 87.47L92.5 79.998L84.674 72.499C80.37 68.375 76.433 65 75.924 65C75.416 65 75 67.025 75 69.5V74H51.75L28.5 73.999V50.499V26.999L32.75 27C35.087 27 37 26.623 37 26.163C37 25.703 34.809 23.076 32.13 20.327C29.452 17.577 26.475 14.129 25.515 12.664C24.555 11.199 23.461 10 23.084 10C22.706 10 19.158 13.623 15.199 18.051Z" fill="currentColor"/>
</svg>
