<svg width="200" height="200" viewBox="0 0 200 200" fill="none" xmlns="http://www.w3.org/2000/svg">
<path fill-rule="evenodd" clip-rule="evenodd" d="M159.833 31.907C159.65 32.406 157.612 34.994 155.305 37.657C152.997 40.321 147.87 46.325 143.91 51C139.951 55.675 135.989 60.211 135.106 61.079C134.223 61.947 129 67.991 123.5 74.509C115.144 84.412 101.762 99.955 96.387 106C95.654 106.825 91.724 111.325 87.655 116C83.586 120.675 79.192 125.705 77.889 127.179L75.522 129.858L69.473 124.179C64.412 119.427 47.877 104.709 38.169 96.314L35.64 94.127L31.57 98.804C29.332 101.376 24.575 106.555 21 110.313C17.425 114.071 14.418 117.451 14.319 117.823C14.219 118.195 16.244 120.243 18.819 122.374C21.393 124.505 35.596 137.105 50.38 150.374C65.163 163.643 77.858 174.5 78.59 174.5C79.321 174.5 86.288 167.075 94.07 158C101.853 148.925 111.026 138.35 114.455 134.5C117.884 130.65 122.019 125.925 123.645 124C126.303 120.853 151.209 91.788 160 81.575C161.925 79.339 168.563 71.713 174.75 64.63C185.439 52.393 187.136 50 185.126 50C184.646 50 181.586 47.638 178.328 44.75C162.485 30.711 160.722 29.487 159.833 31.907Z" fill="currentColor"/>
</svg>
