<svg width="16" height="18" viewBox="0 0 16 18" fill="none" xmlns="http://www.w3.org/2000/svg">
<path fill-rule="evenodd" clip-rule="evenodd" d="M6.01279 3.19392L5.91999 5.74784L3.88223 4.45824C2.76159 3.7488 1.80895 3.21184 1.76543 3.26432C1.36255 3.7504 -0.0227287 6.1632 0.0569513 6.24C0.113591 6.29472 1.14463 6.90944 2.34815 7.6064L4.53631 8.87328L2.34815 10.0838C1.14463 10.7494 0.121911 11.3229 0.0751913 11.3584C-0.0828887 11.4787 1.65343 14.4 1.88319 14.4C2.00895 14.4 2.24863 14.2778 2.41599 14.128C2.58303 13.9786 3.51199 13.4118 4.47999 12.8691L6.23999 11.8826L6.13567 14.4211L6.03135 16.96H7.97567H9.91999V14.56C9.91999 13.24 10.0038 12.16 10.1062 12.16C10.2086 12.16 11.1523 12.664 12.2032 13.28C13.2544 13.896 14.1664 14.4 14.2298 14.4C14.3805 14.4 16.0355 11.4394 15.9248 11.368C15.8781 11.3382 14.8707 10.7558 13.6858 10.0739L11.5318 8.83392L13.6858 7.58656C14.8707 6.9008 15.8864 6.29472 15.943 6.24C16.0227 6.1632 14.6374 3.7504 14.2346 3.26432C14.191 3.21184 13.2384 3.7488 12.1178 4.45824L10.08 5.74784L9.98719 3.19392L9.89407 0.639999H7.99999H6.10591L6.01279 3.19392Z" fill="currentColor"/>
</svg>
