<svg width="16" height="16" viewBox="0 0 16 16" fill="none" xmlns="http://www.w3.org/2000/svg">
<path fill-rule="evenodd" clip-rule="evenodd" d="M0.337435 0.605046C0.21556 0.659108 0.092216 0.781546 0.042841 0.897421C-0.00894024 1.01892 -0.013284 1.29076 0.0350598 1.38486C0.054341 1.42239 1.17403 2.92614 2.52328 4.72655L4.9764 7.99998L2.52328 11.2734C1.17403 13.0738 0.054341 14.5776 0.0350598 14.6151C0.0157785 14.6527 5.9756e-05 14.7652 0.000122256 14.8651C0.000247256 15.0777 0.0614348 15.1983 0.237091 15.3323C0.338872 15.41 0.381872 15.4219 0.56006 15.4217L0.765622 15.4216L8.23437 11.9723C12.3422 10.0751 15.7421 8.49545 15.7898 8.46192C16.0667 8.26711 16.0667 7.73433 15.7898 7.53736C15.7421 7.50348 12.3328 5.92026 8.21347 4.01911C1.42809 0.887514 0.709622 0.562733 0.572841 0.565014C0.48981 0.566421 0.383872 0.584421 0.337435 0.605046Z" fill="currentColor"/>
</svg>
