<svg width="23" height="23" viewBox="0 0 23 23" fill="none" xmlns="http://www.w3.org/2000/svg">
<path fill-rule="evenodd" clip-rule="evenodd" d="M9.97327 0.115955C9.85268 0.220727 9.81516 0.358172 9.58382 1.54184C9.44302 2.26226 9.32207 2.85688 9.31501 2.86316C9.30795 2.8695 9.04707 2.95861 8.73528 3.06127C8.42349 3.16387 7.83418 3.41325 7.42566 3.61543C6.92154 3.86491 6.66087 3.96819 6.61418 3.93696C6.5763 3.91165 6.09888 3.57544 5.55312 3.1898C5.00741 2.80415 4.50509 2.47489 4.4368 2.45809C4.36857 2.44129 4.24102 2.45789 4.15336 2.49494C3.94727 2.58204 2.43511 4.13058 2.39326 4.2974C2.37569 4.36738 2.37723 4.47473 2.39666 4.53601C2.41614 4.59723 2.76478 5.14047 3.17155 5.74318L3.91104 6.83898L3.5861 7.48766C3.40743 7.84444 3.1666 8.4203 3.05101 8.76734L2.8408 9.39834L1.6394 9.61974C0.978661 9.74152 0.407286 9.8416 0.369665 9.84222C0.332044 9.84284 0.233508 9.91107 0.150639 9.99394L0 10.1446V11.3879V12.6311L0.12384 12.7459C0.250463 12.8632 0.335857 12.8834 2.14543 13.2221L2.87357 13.3584L2.96381 13.7009C3.08466 14.1597 3.45536 15.0669 3.71597 15.5418L3.92758 15.9273L3.19639 17.0104C2.79426 17.6061 2.4467 18.1581 2.42403 18.2371C2.39805 18.3278 2.40697 18.436 2.4483 18.5312C2.48427 18.6139 2.88321 19.0469 3.33482 19.4933C4.03075 20.1813 4.17964 20.305 4.31178 20.305C4.48865 20.305 4.71087 20.1687 5.88253 19.341L6.68886 18.7714L7.37706 19.116C7.75559 19.3056 8.34361 19.5509 8.68375 19.661C9.02388 19.7711 9.30867 19.8652 9.31661 19.8699C9.32454 19.8747 9.43565 20.421 9.56356 21.0839C9.83567 22.4939 9.86659 22.604 10.0149 22.6889C10.1692 22.7771 12.2173 22.8096 12.5184 22.7285C12.6909 22.682 12.751 22.6349 12.8032 22.5051C12.8396 22.4147 12.9794 21.7839 13.1141 21.1035L13.3589 19.8664L13.83 19.7287C14.4314 19.5529 15.0743 19.2829 15.5875 18.9904L15.9914 18.7602L16.8985 19.3962C17.3974 19.7461 17.9039 20.0967 18.0241 20.1752C18.3873 20.4127 18.4541 20.3757 19.4418 19.3898C20.1516 18.6813 20.305 18.5023 20.305 18.3825C20.305 18.1928 20.3194 18.2172 19.4824 16.9838L18.7628 15.9234L18.9379 15.6247C19.1919 15.1913 19.5029 14.4625 19.6879 13.8668C19.7766 13.5813 19.8627 13.3477 19.8792 13.3477C19.8957 13.3477 20.4795 13.2425 21.1765 13.1139C22.287 12.9089 22.4597 12.8642 22.5726 12.7519L22.7014 12.6239V11.358V10.0921L22.5683 9.97755C22.4607 9.88494 22.2042 9.82165 21.2284 9.64674C20.5647 9.52775 19.9838 9.43055 19.9375 9.43071C19.8766 9.43091 19.8149 9.3064 19.7143 8.98008C19.5326 8.39041 19.2607 7.75008 18.9806 7.25199L18.755 6.85088L19.53 5.72329C20.1994 4.74931 20.305 4.56868 20.305 4.39738C20.305 4.20943 20.2596 4.15372 19.4418 3.33739C18.8169 2.71371 18.5354 2.46722 18.4225 2.4448C18.2483 2.41027 18.3236 2.36512 16.8891 3.36522C16.4134 3.69691 15.9948 3.96824 15.9589 3.96824C15.923 3.96824 15.8716 3.94706 15.8446 3.92114C15.6368 3.72123 13.769 2.93753 13.5004 2.93753C13.4481 2.93753 13.3917 2.91547 13.375 2.88847C13.3583 2.86151 13.2304 2.2704 13.0907 1.57488C12.9509 0.879403 12.8119 0.264223 12.7818 0.207895C12.6797 0.0172645 12.5582 0 11.3184 0C10.1358 0 10.1035 0.00278292 9.97327 0.115955ZM12.2456 5.59409C16.0865 6.26389 18.2688 10.2837 16.6954 13.7906C16.2995 14.673 15.4439 15.6771 14.6146 16.2328C12.8338 17.4259 10.677 17.5737 8.78682 16.6322C7.5496 16.016 6.43922 14.8431 5.94468 13.6301C5.59718 12.7777 5.54673 12.4993 5.54322 11.4151C5.54028 10.4955 5.54884 10.4046 5.68402 9.9206C6.04312 8.63463 6.8129 7.48606 7.82697 6.72318C9.12876 5.7439 10.7415 5.33177 12.2456 5.59409ZM12.977 6.65015C12.8309 6.79626 12.822 6.82671 12.8449 7.10109C12.8585 7.26296 12.8884 7.43999 12.9115 7.49451C12.9467 7.5779 12.9376 7.58743 12.8542 7.5545C12.1394 7.27245 10.9535 7.20586 10.2475 7.40819C9.73971 7.55368 9.35113 7.72678 8.98147 7.97215C7.77518 8.7728 7.00884 10.1805 7.00884 11.5959C7.00884 12.2109 7.14618 12.4201 7.54997 12.4201C7.94818 12.4201 8.09109 12.1945 8.09109 11.5659C8.09109 10.2266 9.02883 8.95189 10.3329 8.51873C10.6878 8.40087 10.8277 8.38232 11.3378 8.38561C11.9044 8.38922 12.509 8.50399 12.317 8.57145C12.2745 8.5864 12.1535 8.6251 12.0481 8.65752C11.7968 8.73477 11.5955 8.97559 11.5955 9.1991C11.5955 9.41189 11.7979 9.66839 12.0011 9.71297C12.0906 9.73265 12.5596 9.65519 13.2237 9.5112C14.3946 9.25724 14.4815 9.21482 14.4815 8.89711C14.4815 8.80816 14.3289 8.27754 14.1424 7.71797C13.7663 6.5895 13.7031 6.49349 13.3368 6.49349C13.1792 6.49349 13.0985 6.52863 12.977 6.65015ZM14.7964 10.4278C14.606 10.5376 14.5369 10.714 14.5348 11.0952C14.528 12.4016 13.8164 13.5877 12.7253 14.1114C12.1761 14.3749 11.7801 14.4522 11.1691 14.4148C10.7075 14.3866 10.3071 14.2965 10.3071 14.2209C10.3071 14.2005 10.3876 14.1687 10.486 14.1502C10.7172 14.1068 10.9607 13.9002 11.002 13.7124C11.0527 13.4815 10.911 13.2033 10.697 13.1139C10.5271 13.0429 10.452 13.0524 9.44699 13.272C8.25317 13.5327 8.14262 13.5871 8.14262 13.9128C8.14262 14.0153 8.29295 14.5389 8.47663 15.0763C8.84892 16.1653 8.92813 16.2852 9.27533 16.2852C9.51584 16.2852 9.76615 16.0976 9.80717 15.8864C9.82243 15.8081 9.79398 15.6223 9.74399 15.4736C9.69405 15.3248 9.66694 15.2033 9.6838 15.2037C9.70065 15.204 9.89999 15.2648 10.1267 15.3388C10.7279 15.5349 11.646 15.5666 12.2912 15.4136C13.5296 15.1199 14.5565 14.3058 15.1247 13.1673C15.4536 12.5082 15.5732 12.0137 15.5821 11.275C15.5893 10.6891 15.5856 10.6671 15.4557 10.5368C15.2953 10.3758 14.9775 10.3233 14.7964 10.4278Z" fill="currentColor"/>
</svg>
