<svg width="132" height="170" viewBox="0 0 132 170" fill="none" xmlns="http://www.w3.org/2000/svg">
<path fill="currentColor" fill-rule="evenodd" clip-rule="evenodd" d="M56.014 1.26442C36.484 6.74042 24.431 27.3204 29.398 46.7094C34.594 66.9934 55.082 79.4034 74.963 74.3104C86.654 71.3154 94.892 64.4164 100.121 53.2424C105.521 41.7024 104.662 28.1384 97.86 17.5384C89.104 3.89342 71.314 -3.02458 56.014 1.26442ZM73.263 21.1044C84.983 26.1194 87.722 42.1554 78.354 50.9134C66.782 61.7334 47.981 53.5714 47.981 37.7274C47.981 27.5354 55.58 19.8594 65.763 19.7664C68.118 19.7454 71.493 20.3474 73.263 21.1044ZM6.724 96.4824L0 103.258L32.991 136.237L65.981 169.216L98.971 136.237L131.962 103.258L125.238 96.4824L118.515 89.7074L92.248 115.96L65.981 142.213L39.714 115.96L13.447 89.7074L6.724 96.4824Z"/>
</svg>
