<svg width="27" height="26" viewBox="0 0 27 26" fill="none" xmlns="http://www.w3.org/2000/svg">
<path fill-rule="evenodd" clip-rule="evenodd" d="M3.04603 1.40118C2.97896 1.46807 2.92413 2.45222 2.92413 3.5877C2.92413 5.87365 3.00564 6.031 4.19138 6.031H4.75172V12.9758V19.9207H4.14697C3.00181 19.9207 2.90513 20.1299 2.96343 22.4815L3.01551 24.581L9.92233 24.6289C15.5484 24.668 17.0488 24.6258 18.0132 24.4023C20.3332 23.8642 21.9 22.758 22.8507 20.9869C23.4148 19.9355 23.4783 19.6615 23.5424 18.0017C23.6053 16.3719 23.5647 16.0652 23.1672 15.1678C22.6986 14.1095 21.4782 12.7233 20.8356 12.5193C20.4606 12.4003 20.4613 12.3948 20.8878 12.0593C21.5255 11.5576 22.4376 9.72254 22.5791 8.65633C22.6478 8.13876 22.6116 7.28674 22.4978 6.74047C22.0749 4.71167 21.071 3.39325 19.1825 2.3868C17.3295 1.39917 16.3269 1.28604 9.39689 1.28239C5.9709 1.28074 3.11292 1.33411 3.04603 1.40118ZM14.6106 6.28632C14.9568 6.41132 15.3954 6.72183 15.5853 6.97605C16.0166 7.55375 16.0466 8.97853 15.6403 9.59827C15.2797 10.1487 14.0675 10.5208 12.658 10.5139L11.6052 10.5086L11.5538 8.2698L11.5025 6.031L12.7417 6.04489C13.4234 6.05257 14.2643 6.16113 14.6106 6.28632ZM16.3081 15.6755C16.8659 16.2341 16.9052 16.3558 16.9046 17.5214C16.9037 19.5062 16.2893 19.9207 13.3472 19.9207H11.5138V17.4377V14.9547L13.6124 15.0161C15.7065 15.0774 15.7125 15.0788 16.3081 15.6755Z" fill="currentColor"/>
</svg>
