<svg width="35" height="35" viewBox="0 0 35 35" fill="none" xmlns="http://www.w3.org/2000/svg">
<path fill-rule="evenodd" clip-rule="evenodd" d="M15.5 3.25C15.5 4.9165 15.4165 5 13.75 5C12.0835 5 12 5.0835 12 6.75C12 8.4165 11.9165 8.5 10.25 8.5H8.49995V12V15.5H10.25C11.9585 15.5 12 15.5475 12 17.5C12 19.4525 12.0415 19.5 13.75 19.5H15.5V22.75V26H14.0315C12.7405 26 12.5445 25.804 12.4065 24.375C12.263 22.886 12.0905 22.737 10.3445 22.593L8.43945 22.436L8.59445 24.593C8.74095 26.6235 8.84545 26.759 10.375 26.9065C11.804 27.0445 12 27.2405 12 28.5315C12 29.8765 12.1475 30 13.75 30C15.4165 30 15.5 30.0835 15.5 31.75C15.5 33.4585 15.5475 33.5 17.5 33.5C19.4525 33.5 19.5 33.4585 19.5 31.75C19.5 30.0835 19.5835 30 21.25 30C22.8525 30 23 29.8765 23 28.5315C23 27.2405 23.196 27.0445 24.625 26.9065L26.25 26.75L26.396 22.875L26.542 19H24.771C23.0805 19 23 18.9205 23 17.25C23 15.5835 22.9165 15.5 21.25 15.5H19.5V12.25V9H21C22.3335 9 22.5 9.1665 22.5 10.5C22.5 11.9165 22.611 12 24.5 12C26.4525 12 26.5 11.9585 26.5 10.25C26.5 8.5835 26.4165 8.5 24.75 8.5C23.0835 8.5 23 8.4165 23 6.75C23 5.0835 22.9165 5 21.25 5C19.5835 5 19.5 4.9165 19.5 3.25C19.5 1.5415 19.4525 1.5 17.5 1.5C15.5475 1.5 15.5 1.5415 15.5 3.25ZM15.5 12.25V15.5H14H12.5V12.25V9H14H15.5V12.25ZM22.5 22.75V26H21H19.5V22.75V19.5H21H22.5V22.75Z" fill="currentColor"/>
</svg>
