<svg width="200" height="200" viewBox="0 0 200 200" fill="none" xmlns="http://www.w3.org/2000/svg">
<path fill-rule="evenodd" clip-rule="evenodd" d="M36.5 36.471C29.9 43.192 24.37 49.356 24.211 50.168C24.052 50.981 28.552 56.364 34.211 62.132C39.87 67.899 50.533 79.042 57.908 86.893L71.315 101.169L47.658 124.842C34.646 137.862 24 149.032 24 149.664C24 151.468 49.168 176.118 50.678 175.792C51.421 175.631 62.856 164.7 76.089 151.5L100.148 127.5L102.689 130.5C107.983 136.752 111.637 140.601 115.128 143.603C117.112 145.31 118.908 147.139 119.118 147.667C119.328 148.196 125.97 154.787 133.877 162.314C142.991 170.989 149.024 176 150.356 176C151.511 176 154.08 174.313 156.065 172.25C158.049 170.188 163.133 165.158 167.362 161.073C171.591 156.988 175.325 152.552 175.661 151.216C176.196 149.082 173.303 145.817 151.893 124.393L127.515 100L151.758 75.742C165.091 62.401 176 50.968 176 50.337C176 48.856 151.118 24 149.636 24C149.019 24 137.599 34.909 124.258 48.242L100 72.485L75.742 48.242C62.401 34.909 50.813 24.057 49.992 24.126C49.172 24.195 43.1 29.751 36.5 36.471Z" fill="currentColor"/>
</svg>
