<?xml version="1.0" encoding="UTF-8"?>
<svg id="a" data-name="Layer 2" xmlns="http://www.w3.org/2000/svg" width="80" height="76.24" viewBox="0 0 80 76.24">
  <rect x="4.01" y="5.32" width="70.87" height="66.92" rx="7.32" ry="7.32" fill="currentColor"/>
  <path d="M67.56,76.24H11.34C5.09,76.24.01,71.16.01,64.91V12.64C.01,6.4,5.09,1.32,11.34,1.32h56.22c6.24,0,11.32,5.08,11.32,11.32v52.27c0,6.24-5.08,11.32-11.32,11.32ZM11.34,9.32c-1.83,0-3.32,1.49-3.32,3.32v52.27c0,1.83,1.49,3.32,3.32,3.32h56.22c1.83,0,3.32-1.49,3.32-3.32V12.64c0-1.83-1.49-3.32-3.32-3.32H11.34Z" fill="currentColor"/>
</svg>