<svg width="100" height="100" viewBox="0 0 100 100" fill="none" xmlns="http://www.w3.org/2000/svg">
<path fill-rule="evenodd" clip-rule="evenodd" d="M10.25 22.951C7.912 25.562 6 27.929 6 28.211C6 28.493 10.796 33.508 16.658 39.356L27.316 49.988L16.908 60.449C11.184 66.202 6.5 71.338 6.5 71.862C6.5 73.02 14.829 82.03 15.805 81.926C16.187 81.886 18.477 79.523 20.894 76.676C23.311 73.829 29.161 67.28 33.894 62.122C44.241 50.847 44.464 50.497 42.803 48.144C41.617 46.464 32.058 35.778 21.278 24.081C18.956 21.561 17.044 19.163 17.028 18.75C16.957 16.86 14.138 18.607 10.25 22.951ZM81 21.222C78.552 24.361 71.716 31.887 61.263 42.955C58.383 46.005 56.04 49.175 56.056 50C56.072 50.825 59.103 54.725 62.793 58.667C66.482 62.61 72.65 69.441 76.5 73.849C80.35 78.257 83.828 81.894 84.229 81.932C84.955 82 93.252 73.427 93.773 72.071C93.923 71.681 89.245 66.555 83.378 60.68L72.71 49.999L83.105 39.538C88.822 33.784 93.5 28.669 93.5 28.171C93.5 27.054 85.237 17.997 84.229 18.009C83.828 18.014 82.375 19.46 81 21.222Z" fill="currentColor"/>
</svg>
