<svg width="23" height="23" viewBox="0 0 23 23" fill="none" xmlns="http://www.w3.org/2000/svg">
<path fill-rule="evenodd" clip-rule="evenodd" d="M6.277 5.08446C5.192 5.65646 3.9895 6.43896 3.605 6.82396C3.22 7.20846 2.2515 7.86146 1.4525 8.27446C0.1515 8.94746 0 9.27896 0 11.4545V13.883L4.588 16.4415C7.111 17.8485 9.361 19 9.588 19C9.8145 19 10 17.9025 10 16.5615V14.1225L7.2605 12.6885L4.5215 11.254L7.2605 9.86896C9.9665 8.50096 10 8.45646 10 6.24196C10 3.61646 9.4095 3.43296 6.277 5.08446ZM12.9275 6.37446C13.099 8.66846 13.1905 8.79196 15.5835 9.97346L18.062 11.1965L16.183 12.1605C13.495 13.5395 13.138 14.033 12.929 16.6565C12.76 18.7865 12.842 19 13.8295 19C14.4275 19 14.9915 18.8055 15.0835 18.568C15.175 18.3305 16.825 17.252 18.75 16.1715L22.25 14.2075L22.4005 11.626C22.548 9.09446 22.5105 9.01746 20.4675 7.64746C16.385 4.90946 14.7365 4.01646 13.75 4.00796C12.8645 4.00046 12.7705 4.27146 12.9275 6.37446Z" fill="currentColor"/>
</svg>
