<?xml version="1.0" encoding="UTF-8"?>
<svg id="a" data-name="Layer 2" xmlns="http://www.w3.org/2000/svg" width="404.49" height="423.73" viewBox="0 0 404.49 423.73">
  <path d="M314.83,423.73H89.67c-24.15,0-46.79-9.46-63.77-26.63C8.93,379.93-.27,357.18,0,333.04L2.79,88.65c.27-23.76,9.73-46.04,26.62-62.74C46.31,9.2,68.7,0,92.46,0h222.37c49.44,0,89.67,40.23,89.67,89.67v244.39c0,49.44-40.23,89.67-89.67,89.67ZM92.46,36c-29.26,0-53.33,23.8-53.67,53.06l-2.79,244.39c-.17,14.45,5.34,28.07,15.5,38.34s23.71,15.94,38.17,15.94h225.16c29.59,0,53.67-24.08,53.67-53.67V89.67c0-29.59-24.08-53.67-53.67-53.67H92.46Z" fill="currentColor"/>
  <path d="M249.76,368.01c-5.81,0-11.49-2.21-15.88-6.4l-32.05-30.57-27.77,27.19c-6.22,6.09-15.22,8.16-23.48,5.4-8.26-2.76-14.2-9.82-15.5-18.43l-5.79-38.13h-40.39c-8.34,0-16.06-4.52-20.14-11.8-4.08-7.28-3.91-16.22.45-23.34l20.99-34.28-30.09-24.9c-6.44-5.33-9.5-13.75-7.99-21.96,1.51-8.22,7.37-14.99,15.28-17.68l36.2-12.29-8.42-41.02c-1.73-8.43,1.33-17.06,8-22.51,6.66-5.45,15.72-6.75,23.64-3.38l35.46,15.05,19.06-37.6c3.84-7.57,11.49-12.41,19.97-12.64,8.5-.22,16.39,4.2,20.62,11.55l22.28,38.66,34-15.51c8.01-3.65,17.25-2.49,24.1,3.05,6.85,5.54,9.93,14.32,8.03,22.92l-8.97,40.69,39.56,12.73c8.42,2.71,14.46,9.83,15.76,18.58,1.3,8.75-2.4,17.32-9.66,22.36l-31.15,21.64,21.76,35.02c4.64,7.47,4.67,16.76.07,24.25-4.59,7.49-12.9,11.68-21.65,10.93l-38.43-3.29-4.9,45.11c-.95,8.8-6.71,16.15-15.02,19.19-2.62.96-5.31,1.42-7.98,1.42ZM201.71,289.95c5.72,0,11.45,2.14,15.94,6.42l22.15,21.13,3.44-31.65c1.34-12.37,12.52-21.57,24.92-20.51l25.35,2.17-14.64-23.57c-6.49-10.45-3.67-24.13,6.44-31.14l19.78-13.74-25.88-8.33c-11.4-3.67-18.05-15.25-15.47-26.94l5.93-26.9-21.14,9.65c-10.89,4.97-23.61.9-29.59-9.47h0s-16.23-28.16-16.23-28.16l-13.73,27.08c-5.47,10.79-18.47,15.54-29.61,10.81l-23.93-10.16,5.76,28.09c2.33,11.37-4.2,22.77-15.19,26.5l-25.09,8.52,20.9,17.3c8.79,7.28,10.93,20.1,4.97,29.84l-14.8,24.18h28.44c11.5,0,21.1,8.25,22.83,19.62l3.67,24.17,18.67-18.28c4.51-4.41,10.33-6.63,16.15-6.63Z" fill="currentColor"/>
</svg>