<svg width="37" height="37" viewBox="0 0 37 37" fill="none" xmlns="http://www.w3.org/2000/svg">
<g clip-path="url(#clip0_24_3)">
<path fill-rule="evenodd" clip-rule="evenodd" d="M6.80841 3.04779C4.97839 3.51933 3.50878 4.99795 3.04736 6.83199C2.92145 7.33252 2.91833 7.57584 2.91833 16.9844C2.91833 26.4482 2.92073 26.6334 3.0495 27.1369C3.44006 28.664 4.52351 29.9653 5.93879 30.607C6.42744 30.8286 7.30796 31.0525 7.69321 31.0531L7.96214 31.0536L7.99074 32.3665C8.01395 33.43 8.0426 33.7471 8.14167 34.036C8.41748 34.8401 9.14959 35.5987 9.9643 35.9246C10.2886 36.0543 10.4567 36.0759 11.1557 36.077L11.9695 36.0782L12.4848 35.8258C12.9722 35.5872 13.1231 35.4512 15.2722 33.3135L17.5442 31.0536L24.576 31.0531C31.3501 31.0527 31.6272 31.048 32.141 30.9248C34.0351 30.4707 35.4991 29.0271 35.9825 27.1369C36.1113 26.6334 36.1137 26.4482 36.1137 16.9844C36.1137 6.02552 36.1589 6.93631 35.5529 5.70322C35.2915 5.17132 35.1609 4.99802 34.5959 4.43305C34.031 3.86808 33.8577 3.7375 33.3258 3.47609C32.987 3.30959 32.4791 3.11535 32.197 3.04436C31.6938 2.91773 31.4551 2.9154 19.4894 2.9189C7.65386 2.9224 7.28034 2.92616 6.80841 3.04779ZM31.2166 5.5766C31.8346 5.66588 32.2892 5.89001 32.7141 6.31494C33.139 6.7398 33.3631 7.19442 33.4524 7.81236C33.5409 8.42485 33.5413 25.5389 33.4529 26.1586C33.328 27.033 32.7824 27.7876 31.9967 28.1724L31.6077 28.3629L24.2489 28.3956C16.1004 28.4318 16.7152 28.3979 16.0177 28.8488C15.8557 28.9534 14.7313 30.0321 13.5192 31.2458C11.5708 33.1964 11.2918 33.4524 11.1141 33.4524C10.9923 33.4524 10.8645 33.3988 10.7896 33.3162C10.6783 33.1934 10.6629 33.0384 10.6337 31.744C10.6021 30.3477 10.5963 30.2975 10.4239 29.9295C10.2081 29.4687 10.0016 29.2151 9.58852 28.9033C9.18745 28.6005 8.81271 28.4801 8.03016 28.4023C7.25726 28.3255 6.78202 28.1177 6.31839 27.6537C5.90935 27.2445 5.66304 26.7463 5.57908 26.1586C5.49065 25.5389 5.4911 8.42485 5.5796 7.81236C5.66888 7.19442 5.89301 6.7398 6.31794 6.31494C6.72763 5.90525 7.20721 5.66037 7.75746 5.58004C8.3129 5.49893 30.6565 5.49562 31.2166 5.5766ZM11.1694 12.0284C10.7695 12.2681 10.5688 12.6459 10.5688 13.1592C10.5688 13.6776 10.7709 14.0547 11.1759 14.2921L11.4555 14.4559H19.516H27.5765L27.8561 14.2921C28.2611 14.0547 28.4632 13.6776 28.4632 13.1592C28.4632 12.6409 28.2611 12.2637 27.8561 12.0264L27.5765 11.8625L19.5103 11.8631L11.4441 11.8637L11.1694 12.0284ZM11.1694 19.6788C10.7695 19.9185 10.5688 20.2964 10.5688 20.8097C10.5688 21.328 10.7709 21.7052 11.1759 21.9425L11.4555 22.1064H16.2596C19.4962 22.1064 21.1231 22.0839 21.2461 22.0374C21.6873 21.8707 22.0417 21.3238 22.0417 20.8097C22.0417 20.2956 21.6873 19.7487 21.2461 19.582C21.1231 19.5355 19.496 19.5132 16.2538 19.5136L11.4441 19.5142L11.1694 19.6788ZM24.6704 19.6049C23.8539 19.9693 23.6812 21.1656 24.3542 21.7943C24.6459 22.0667 24.8385 22.1064 25.8698 22.1064C26.4 22.1064 26.916 22.0753 27.0164 22.0374C27.4576 21.8707 27.812 21.3238 27.812 20.8097C27.812 20.2956 27.4576 19.7487 27.0164 19.582C26.7452 19.4795 24.9111 19.4974 24.6704 19.6049Z" fill="currentColor"/>
</g>
<defs>
<clipPath id="clip0_24_3">
<rect width="36.1135" height="36.1135" fill="white"/>
</clipPath>
</defs>
</svg>
