<?xml version="1.0" encoding="UTF-8"?>
<svg id="Layer_1" xmlns="http://www.w3.org/2000/svg" version="1.1" viewBox="0 0 240 240">
  <path fill="currentColor" d="M179,194h17v-17h14v11c0,6.9-.4,12-.7,13.2-.6.8-2.1,2.5-3.4,3.9l-2,2.3-24.9.6v-14.1ZM39.6,207.8l-4.6-5v-25.8h12v17h17v14.1l-24.4-.3ZM129,208v-14h36v14h-36ZM78,208v-14h37v14h-37ZM196,163v-35h14v35h-14ZM35,163v-35h12v35h-12ZM196,114v-38h14v38h-14ZM35,114v-38h12v38h-12ZM196,62v-17h-17v-13h10.6c12,0,17.2,1.1,18,3.7.3,1,1,2.1,1.9,2.8.2,1.5.5,5.7.5,12v11.5h-14ZM35,62v-12q0-13.2,2.2-15.5l2.1-2.3,24.7-.2v13.1h-17v17h-12ZM129,45v-13h36v13h-36ZM78,45v-13h37v13h-37Z"/>
  <g>
    <polygon fill="currentColor" points="75 77 75 82 75 87 85.5 87 96 87 96 82 96 77 85.5 77 75 77"/>
    <path fill="currentColor" d="M160.5,77h-10.5v20h-31v10h-10v42h10v10h52v-82h-10.5ZM150,128v11h-11v10h-9v-42h9v10h11v11Z"/>
    <polygon fill="currentColor" points="75 97 75 128 75 159 85.5 159 96 159 96 128 96 97 85.5 97 75 97"/>
  </g>
</svg>