<svg width="23" height="19" viewBox="0 0 23 19" fill="none" xmlns="http://www.w3.org/2000/svg">
<path d="M0.801949 4.22587C-0.988693 6.08812 0.610936 7.78324 1.80468 8.30849L2.66418 8.95311L3.66695 14.2534H18.5649L20.1407 8.30849C20.5227 8.30849 21.7531 7.56076 22.0029 6.94762C22.7908 5.01374 20.8569 3.7245 20.1407 3.7245C18.35 3.58125 17.3712 5.25249 17.3473 6.37462L15.9864 8.09362H14.9837C14.3629 6.89987 13.0498 4.32614 12.7633 3.58125C14.9837 0.214875 11.4715 0.059105 10.901 0C7.8928 0.2865 8.48968 2.12488 9.25368 3.438L7.10492 8.09362H6.1738C5.7918 7.66387 5.19971 7.11952 4.74131 6.66112C5.09943 2.865 1.16006 3.79612 0.801949 4.22587Z" fill="currentColor"/>
<path d="M18.5649 15.1845H3.45205V17.6197C3.45205 18.1927 4.21605 18.336 4.59805 18.336H18.1352C18.9374 17.8776 18.7559 16.044 18.5649 15.1845Z" fill="currentColor"/>
</svg>
