<?xml version="1.0" encoding="UTF-8"?>
<svg id="a" data-name="Layer 2" xmlns="http://www.w3.org/2000/svg" width="85.11" height="80.44" viewBox="0 0 85.11 80.44">
  <path d="M59.95,64.95l-15.74-11.5c-1.05-.77-2.48-.77-3.54-.01l-15.81,11.41c-2.37,1.71-5.54-.61-4.63-3.38l6.08-18.53c.41-1.24-.03-2.6-1.09-3.37l-15.74-11.5c-2.36-1.72-1.13-5.46,1.79-5.45l19.5.06c1.31,0,2.47-.83,2.87-2.07l6.08-18.53c.91-2.77,4.84-2.76,5.73.02l5.97,18.56c.4,1.24,1.55,2.09,2.86,2.09l19.5.06c2.92,0,4.12,3.75,1.76,5.46l-15.81,11.41c-1.06.76-1.5,2.12-1.1,3.37l5.97,18.56c.89,2.78-2.29,5.08-4.65,3.36Z" fill="currentColor"/>
  <path d="M56.1,14.23l-.13-.28c-.77-1.6-.58-3.5.48-4.92l5.12-6.82c.98-1.3,2.55-2.01,4.17-1.89l1.53.11c1.86.14,3.46,1.35,4.11,3.09h0c.54,1.47.33,3.11-.57,4.39l-4.89,6.98c-.89,1.27-2.35,2.03-3.9,2.03h-1.62c-1.83,0-3.5-1.05-4.29-2.7Z" fill="currentColor"/>
  <path d="M30.29,14.23l.13-.28c.77-1.6.58-3.5-.48-4.92l-5.12-6.82c-.98-1.3-2.55-2.01-4.17-1.89l-1.53.11c-1.86.14-3.46,1.35-4.11,3.09h0c-.54,1.47-.33,3.11.57,4.39l4.89,6.98c.89,1.27,2.35,2.03,3.9,2.03h1.62c1.83,0,3.5-1.05,4.29-2.7Z" fill="currentColor"/>
  <path d="M85.06,47.81l-.04-.3c-.24-1.76-1.43-3.25-3.11-3.85l-8.02-2.89c-1.53-.55-3.23-.28-4.52.71l-1.22.94c-1.48,1.14-2.15,3.03-1.74,4.84h0c.35,1.53,1.43,2.78,2.88,3.36l7.92,3.15c1.44.57,3.08.41,4.37-.45l1.36-.89c1.53-1,2.35-2.8,2.11-4.61Z" fill="currentColor"/>
  <path d="M.04,47.81l.04-.3c.24-1.76,1.43-3.25,3.11-3.85l8.02-2.89c1.53-.55,3.23-.28,4.52.71l1.22.94c1.48,1.14,2.15,3.03,1.74,4.84h0c-.35,1.53-1.43,2.78-2.88,3.36l-7.92,3.15c-1.44.57-3.08.41-4.37-.45l-1.36-.89c-1.53-1-2.35-2.8-2.11-4.61Z" fill="currentColor"/>
  <path d="M40.53,79.94l-.27-.14c-1.59-.79-2.62-2.4-2.65-4.18l-.16-8.52c-.03-1.62.77-3.15,2.12-4.05l1.28-.85c1.55-1.03,3.56-1.07,5.14-.09h0c1.33.82,2.18,2.25,2.26,3.81l.44,8.51c.08,1.55-.6,3.04-1.82,4l-1.28,1c-1.44,1.13-3.4,1.33-5.04.52Z" fill="currentColor"/>
</svg>