<svg width="231" height="231" viewBox="0 0 231 231" fill="none" xmlns="http://www.w3.org/2000/svg">
<circle cx="115.44" cy="115.44" r="105.102" stroke="currentColor" stroke-width="20.6759"/>
<path d="M76.5963 166.298V100.581C76.5963 96.9136 75.4383 95.0801 73.1223 95.0801C72.1573 95.0801 70.8545 95.6109 69.214 96.6724L63.7134 100.291C62.7484 100.967 61.6386 101.304 60.3841 101.304C59.2261 101.304 58.1164 100.484 57.0548 98.8437L53.0018 92.3298C51.3613 89.6278 51.892 87.4565 54.5941 85.816L79.4914 70.3276C80.2634 69.8451 81.0836 69.6038 81.9521 69.6038H89.045C90.4925 69.6038 91.6505 70.0381 92.519 70.9066C93.3875 71.7751 93.8218 72.9331 93.8218 74.3806V166.298C93.8218 167.745 93.3875 168.903 92.519 169.772C91.6505 170.641 90.4925 171.075 89.045 171.075H81.3731C79.9256 171.075 78.7676 170.641 77.8991 169.772C77.0306 168.903 76.5963 167.745 76.5963 166.298ZM153.896 96.5276C153.896 88.6146 149.843 84.658 141.737 84.658C137.877 84.658 134.692 86.8293 132.183 91.1718L131.17 93.0536C130.494 94.5011 129.481 94.8871 128.13 94.2116L118.866 90.4481C117.515 89.9656 116.598 89.1936 116.116 88.132C115.633 86.974 115.73 85.7678 116.405 84.5132C118.914 79.4952 122.388 75.5386 126.827 72.6436C131.363 69.6521 136.092 68.1563 141.013 68.1563C146.031 68.1563 150.374 68.7836 154.041 70.0381C157.708 71.2926 160.844 73.1261 163.45 75.5386C169.143 80.6532 171.99 87.4083 171.99 95.8039C171.99 99.2779 171.266 102.655 169.819 105.937C168.371 109.218 166.296 112.016 163.594 114.332C160.892 116.552 161.085 118.819 164.173 121.135C167.358 123.355 169.819 126.395 171.556 130.255C173.389 134.018 174.306 138.216 174.306 142.848C174.306 147.384 173.534 151.533 171.99 155.297C170.446 159.06 168.275 162.197 165.476 164.706C159.686 169.917 151.918 172.522 142.171 172.522C136.092 172.522 130.639 171.123 125.814 168.324C121.086 165.429 117.467 161.135 114.958 155.442C114.379 154.187 114.331 153.029 114.813 151.968C115.392 150.906 116.357 150.134 117.708 149.652L127.117 146.612C128.468 146.129 129.481 146.515 130.157 147.77L131.025 149.652C133.341 153.898 136.912 156.021 141.737 156.021C146.658 156.021 150.325 154.863 152.738 152.547C155.151 150.231 156.357 146.66 156.357 141.835C156.357 137.01 155.102 133.102 152.593 130.11C149.988 127.312 146.176 125.912 141.158 125.912H137.25C134.548 125.912 133.196 124.561 133.196 121.859V114.043C133.196 112.885 133.534 111.968 134.21 111.292C134.982 110.52 135.995 110.134 137.25 110.134H141.158C149.65 110.134 153.896 105.599 153.896 96.5276Z" fill="currentColor"/>
</svg>
