<svg width="100" height="105" viewBox="0 0 100 105" fill="none" xmlns="http://www.w3.org/2000/svg">
<path fill-rule="evenodd" clip-rule="evenodd" d="M63 20V24H71.941C80.116 24 83.547 24.926 81.063 26.461C80.529 26.791 76.247 32.641 71.546 39.461C63.874 50.593 63 52.329 63 56.431V61H77.5H92V57V53H84C78.868 53 76 52.607 76 51.904C76 50.076 80.044 45 81.501 45C83.053 45 84.446 41.531 83.506 40.009C83.163 39.454 83.573 39 84.418 39C86.169 39 89.444 34.528 88.643 33.232C88.352 32.761 88.985 31.053 90.05 29.438C91.343 27.476 91.989 24.756 91.993 21.25L92 16H77.5H63V20ZM31 41.469V45H37.833C41.592 45 44.949 45.282 45.294 45.627C45.639 45.972 42.564 50.634 38.461 55.987C31.949 64.483 31 66.247 31 69.86V74H43.5H56V70.5V67H47.917C43.08 67 39.967 66.607 40.167 66.02C40.35 65.482 44.017 60.541 48.315 55.042C54.966 46.531 56.083 44.555 55.815 41.771L55.5 38.5L43.25 38.219L31 37.938V41.469ZM8 64.5C8 66.5 8.5 67 10.5 67C13.589 67 13.589 67.428 10.488 72.852C9.12 75.246 8 78.733 8 80.602V84H15.5C22.333 84 23 83.822 23 82C23 80.333 22.333 80 19 80C16.42 80 15 79.546 15 78.722C15 78.019 16.575 74.157 18.5 70.14C20.425 66.124 22 62.649 22 62.419C22 62.188 18.85 62 15 62C8.2 62 8 62.071 8 64.5Z" fill="currentColor"/>
</svg>
