<svg width="252" height="222" viewBox="0 0 252 222" fill="none" xmlns="http://www.w3.org/2000/svg">
<path fill-rule="evenodd" clip-rule="evenodd" d="M123.881 0.107935C123.331 0.268935 121.709 0.657934 120.275 0.970934C117.775 1.51893 110.381 7.46193 110.381 8.92493C110.381 9.31293 103.483 21.4309 95.0508 35.8539C86.6198 50.2759 77.7718 65.6759 75.3898 70.0759C73.0078 74.4759 70.6808 78.2259 70.2198 78.4089C69.7578 78.5929 69.3808 79.1379 69.3808 79.6219C69.3808 80.1059 64.5868 88.7309 58.7268 98.7889C52.8668 108.847 47.2418 118.539 46.2268 120.326C45.2118 122.113 43.4808 125.151 42.3808 127.076C36.9288 136.617 35.9158 138.402 33.5878 142.576C32.2068 145.051 30.6958 147.226 30.2288 147.409C29.7628 147.593 29.3808 148.234 29.3808 148.834C29.3808 149.435 24.4308 158.358 18.3808 168.665C12.3308 178.971 7.38077 187.892 7.38077 188.49C7.38077 189.087 7.01077 189.576 6.55877 189.576C5.79377 189.576 2.76377 195.643 0.505773 201.697C-1.87423 208.079 4.50377 218.405 12.1338 220.524C14.6248 221.216 52.9118 221.567 126.315 221.57C235.348 221.576 236.803 221.55 240.954 219.541C248.491 215.892 252.926 206.781 250.305 200.332C249.577 198.541 244.636 189.651 239.324 180.576C229.206 163.29 225.274 156.4 222.2 150.576C220.112 146.62 218.122 143.317 217.381 142.576C217.106 142.301 215.796 140.051 214.47 137.576C213.144 135.101 207.455 125.201 201.826 115.576C196.198 105.951 190.646 96.3889 189.487 94.3259C188.329 92.2639 186.523 89.0629 185.475 87.2129C184.427 85.3629 182.964 82.7759 182.225 81.4629C181.486 80.1499 180.656 78.8509 180.381 78.5759C180.106 78.3009 178.938 76.2759 177.786 74.0759C176.633 71.8759 169.096 58.7729 161.036 44.9589C152.976 31.1449 146.381 19.3319 146.381 18.7089C146.381 18.0859 146.034 17.5759 145.61 17.5759C145.186 17.5759 143.724 15.4629 142.36 12.8799C139.212 6.91693 136.543 3.71893 133.381 2.12393C130.647 0.742934 125.464 -0.356065 123.881 0.107935ZM135.131 52.5869C140.219 61.3659 144.381 69.0059 144.381 69.5629C144.381 70.1199 144.776 70.5759 145.26 70.5759C145.743 70.5759 146.73 72.0389 147.453 73.8259C148.176 75.6129 149.018 77.3009 149.324 77.5759C150.356 78.5019 152.361 82.0509 153.985 85.8259C154.872 87.8889 155.999 89.5759 156.49 89.5759C156.98 89.5759 157.381 90.0649 157.381 90.6619C157.381 91.2599 162.331 100.181 168.381 110.487C174.431 120.794 179.381 129.717 179.381 130.318C179.381 130.918 179.762 131.559 180.227 131.743C181.231 132.139 192.381 151.323 192.381 152.655C192.381 153.162 192.747 153.576 193.194 153.576C193.642 153.576 194.626 155.151 195.381 157.076C196.136 159.001 197.12 160.576 197.568 160.576C198.015 160.576 198.381 161.001 198.381 161.52C198.381 162.04 202.38 169.352 207.268 177.77L216.156 193.076L170.768 193.336C145.805 193.479 104.957 193.479 79.9938 193.336L34.6058 193.076L43.4938 177.77C48.3818 169.352 52.3808 162.04 52.3808 161.52C52.3808 161.001 52.7468 160.576 53.1938 160.576C53.6418 160.576 54.6258 159.001 55.3808 157.076C56.1358 155.151 57.0678 153.576 57.4508 153.576C57.8338 153.576 58.4118 152.789 58.7338 151.826C59.0568 150.863 61.1538 146.926 63.3938 143.076C65.6338 139.226 67.9698 135.064 68.5838 133.826C69.1988 132.588 70.0798 131.576 70.5418 131.576C71.0028 131.576 71.3808 131.052 71.3808 130.411C71.3808 129.77 76.3308 120.784 82.3808 110.443C88.4308 100.101 93.3808 91.1759 93.3808 90.6079C93.3808 90.0399 93.7818 89.5759 94.2718 89.5759C94.7628 89.5759 95.8898 87.8889 96.7768 85.8259C98.4008 82.0509 100.406 78.5019 101.438 77.5759C101.744 77.3009 102.586 75.6129 103.309 73.8259C104.032 72.0389 104.92 70.5759 105.283 70.5759C105.646 70.5759 106.496 69.3389 107.172 67.8259C107.849 66.3129 108.96 64.1589 109.642 63.0379C110.323 61.9159 114.031 55.5089 117.881 48.7989C121.731 42.0879 125.106 36.6039 125.381 36.6109C125.656 36.6179 130.043 43.8069 135.131 52.5869ZM117.599 79.2389C113.068 81.4719 110.139 85.9739 109.651 91.4539C109.273 95.7089 110.867 103.106 116.897 125.076C119.243 133.623 122.528 145.97 123.084 148.326C123.778 151.27 126.984 151.27 127.678 148.326C128.234 145.97 131.519 133.623 133.865 125.076C142.177 94.7919 142.755 89.7189 138.56 83.8269C134.367 77.9389 124.582 75.7969 117.599 79.2389ZM119.881 159.22C115.235 161.568 112.996 165.285 112.996 170.651C112.996 176.187 115.049 179.765 119.498 181.984C125.367 184.912 132.681 183.099 136.11 177.866C138.426 174.333 138.274 166.645 135.823 163.351C133.589 160.347 128.329 157.547 125.097 157.64C123.878 157.675 121.531 158.386 119.881 159.22Z" fill="currentColor"/>
</svg>
