<svg width="19" height="19" viewBox="0 0 19 19" fill="none" xmlns="http://www.w3.org/2000/svg">
<path fill-rule="evenodd" clip-rule="evenodd" d="M6.98228 1.11578C6.82295 1.21299 6.6014 1.40836 6.49002 1.54995C6.26585 1.83492 6.05904 2.48651 6.14744 2.62951C6.18347 2.68778 5.63623 2.72119 4.64562 2.72119C2.44222 2.72119 2.25201 2.84214 2.25201 4.24345V5.06703H9.38339H16.5148V4.24345C16.5148 2.84326 16.3235 2.72119 14.1296 2.72119C12.8099 2.72119 12.5874 2.70082 12.6322 2.58428C12.7092 2.38357 12.499 1.81991 12.2261 1.49562C11.7778 0.962833 11.6516 0.938342 9.36463 0.938717C7.48082 0.938999 7.24323 0.956639 6.98228 1.11578ZM11.2761 2.21964C11.3705 2.30503 11.4477 2.45282 11.4477 2.54806C11.4477 2.71105 11.3273 2.72119 9.38339 2.72119C7.51694 2.72119 7.31905 2.70617 7.31905 2.56439C7.31905 2.47816 7.38895 2.33037 7.47434 2.23597C7.61415 2.08152 7.80304 2.06435 9.36706 2.06435C10.8522 2.06435 11.1295 2.08687 11.2761 2.21964ZM2.85668 6.02883C2.88427 6.19651 3.16248 8.17059 3.47476 10.4156C3.78714 12.6605 4.14652 15.2224 4.27338 16.1086C4.40025 16.9947 4.50403 17.7443 4.50403 17.7741C4.50403 17.804 6.69787 17.8284 9.37917 17.8284H14.2542L14.3071 17.5235C14.3362 17.3558 14.5719 15.6984 14.831 13.8405C15.09 11.9826 15.4482 9.43266 15.6268 8.17397C15.8056 6.91528 15.9518 5.84914 15.9518 5.80466C15.9518 5.76028 12.9941 5.72387 9.37917 5.72387H2.80648L2.85668 6.02883ZM6.45906 7.95243C6.50579 8.04279 6.56931 8.41221 6.60018 8.77347C6.90158 12.2975 7.05697 14.0527 7.12359 14.685C7.18571 15.2737 7.17435 15.4812 7.07104 15.6468C6.92166 15.8864 6.55561 15.9279 6.38681 15.7245C6.31981 15.6438 6.14462 14.1023 5.94382 11.8277C5.68024 8.84254 5.6352 8.03575 5.72612 7.92625C5.88611 7.73351 6.35443 7.75022 6.45906 7.95243ZM9.73996 7.90082C9.90173 8.06259 9.90173 15.5836 9.73996 15.7453C9.58204 15.9033 9.23664 15.8855 9.06164 15.7105C8.93261 15.5814 8.91422 15.101 8.91422 11.8571C8.91422 9.48201 8.94913 8.08605 9.01134 7.96969C9.12141 7.76401 9.56158 7.72244 9.73996 7.90082ZM13.0418 7.92756C13.1578 8.06728 13.1203 8.82724 12.8568 11.6823C12.8092 12.1984 12.7213 13.254 12.6613 14.0282C12.5404 15.5891 12.4376 15.8882 12.0378 15.8401C11.6058 15.7883 11.5866 15.6402 11.7574 13.6839C11.8446 12.6863 11.9866 11.0255 12.0731 9.99332C12.239 8.01548 12.3055 7.78822 12.7176 7.78822C12.8323 7.78822 12.9782 7.8509 13.0418 7.92756Z" fill="currentColor"/>
</svg>
