<svg width="31" height="31" viewBox="0 0 31 31" fill="none" xmlns="http://www.w3.org/2000/svg">
<path fill-rule="evenodd" clip-rule="evenodd" d="M13.713 1.3416C13.5785 1.65793 13.4465 2.0201 13.4195 2.14661C13.3924 2.27311 12.8345 3.37343 12.1796 4.59197C11.5248 5.81036 10.989 6.89704 10.989 7.00698C10.989 7.11677 10.9315 7.20662 10.8611 7.20662C10.7909 7.20662 10.7461 7.25829 10.7618 7.32162C10.7772 7.38495 10.5965 7.82103 10.3599 8.29099L9.92962 9.14537L7.30317 9.4824C3.66394 9.9493 1.18546 10.3386 0.95837 10.4794C0.72837 10.6218 0.70307 11.2891 0.92249 11.4248C1.0082 11.4779 1.03872 11.5854 0.99011 11.6639C0.941657 11.7424 1.00958 11.8066 1.14099 11.8066C1.2724 11.8066 1.38004 11.8804 1.38004 11.9704C1.38004 12.1217 2.13352 12.8689 3.22526 13.8C3.47243 14.0108 3.6759 14.2285 3.67728 14.2839C3.68096 14.4171 5.15787 15.9466 5.28284 15.9466C5.33636 15.9466 5.5662 16.1191 5.79344 16.33C6.02084 16.5408 6.15577 16.7133 6.09321 16.7133C6.03065 16.7133 6.25436 16.9723 6.59047 17.2889L7.20151 17.8644L6.81419 19.7039C6.6012 20.7156 6.35434 21.9225 6.2654 22.3859C6.17662 22.8493 6.03448 23.3583 5.94954 23.517C5.83668 23.7279 5.8511 23.8412 6.00259 23.9372C6.15914 24.0364 6.16236 24.0692 6.01593 24.071C5.90476 24.0723 5.8258 24.2535 5.83086 24.495C5.83592 24.727 5.76814 25.2962 5.68044 25.76C5.56743 26.3571 5.56958 26.7231 5.68764 27.0135C5.87134 27.4652 6.1179 27.4766 6.93149 27.0705C7.19307 26.9401 7.47015 26.8333 7.54712 26.8333C7.62425 26.8333 7.91252 26.6614 8.18806 26.4512C8.4636 26.2412 8.92467 26.0239 9.21294 25.9685C9.50105 25.9132 9.94327 25.7227 10.1958 25.5456C10.8193 25.108 11.966 24.5333 12.216 24.5333C12.3282 24.5333 12.4201 24.4689 12.4201 24.3903C12.4201 24.3116 12.5754 24.1989 12.7651 24.1397C12.9547 24.0804 13.1446 23.9896 13.1867 23.9376C13.3273 23.7645 13.9465 23.46 14.1578 23.46C14.2725 23.46 14.5815 23.3527 14.8446 23.2214C15.2138 23.0373 15.3428 22.8539 15.411 22.4164C15.4594 22.1048 15.5751 21.574 15.6678 21.2367C15.7607 20.8993 15.8563 20.4588 15.8805 20.2578C15.9484 19.6906 18.0943 16.8737 18.4623 16.8686C18.5387 16.8676 18.8147 16.7046 19.0757 16.5066C19.4837 16.1969 20.4629 15.7738 20.7001 15.8048C20.7423 15.8103 20.9838 15.7349 21.2368 15.6371C21.4898 15.5392 22.3628 15.439 23.177 15.4143L24.6573 15.3693L26.4415 13.5818C27.4229 12.5988 28.2936 11.6154 28.3767 11.3969C28.5765 10.8718 28.4255 10.4432 28.0115 10.3604C27.0217 10.1626 26.5444 10.0824 25.9901 10.0211C24.9793 9.90913 20.0424 9.20778 19.5884 9.11164C19.3564 9.06242 19.1668 8.93484 19.1668 8.82797C19.1668 8.72094 19.0288 8.47438 18.8601 8.27995C18.5724 7.94829 18.4919 7.74896 18.5353 7.47495C18.5453 7.41163 18.4866 7.35995 18.4048 7.35995C18.3233 7.35995 18.2927 7.26535 18.3371 7.14973C18.3814 7.03412 18.3102 6.83202 18.179 6.70062C18.0476 6.56936 17.9401 6.35347 17.9401 6.22084C17.9401 6.08836 17.8711 5.97995 17.7867 5.97995C17.7024 5.97995 17.6334 5.84195 17.6334 5.67328C17.6334 5.50461 17.5778 5.36661 17.5095 5.36661C17.3738 5.36661 16.8667 4.29788 16.8667 4.01176C16.8667 3.91362 16.8134 3.83328 16.7482 3.83328C16.6022 3.83328 16.0088 2.74691 16.0617 2.57655C16.0829 2.50878 16.0269 2.45327 15.9377 2.45327C15.8485 2.45327 15.8147 2.38949 15.863 2.31144C15.9693 2.13925 15.6425 1.37994 15.4621 1.37994C15.3914 1.37994 15.3334 1.24194 15.3334 1.07327C15.3334 0.812142 15.2311 0.766602 14.6454 0.766602C13.9962 0.766602 13.9437 0.798955 13.713 1.3416ZM21.5437 16.4174C20.5333 16.6705 18.7951 17.6063 18.2064 18.2138C17.4698 18.9742 16.6377 20.5845 16.4069 21.6959C16.1692 22.8408 16.3157 24.4137 16.7606 25.495C17.0888 26.2924 18.3705 28.2 18.5841 28.2089C18.6431 28.2113 18.9981 28.4203 19.373 28.6733C19.7479 28.9263 20.1596 29.1333 20.2879 29.1333C20.4163 29.1333 20.55 29.2197 20.5851 29.325C20.6323 29.467 21.242 29.5165 22.9362 29.5159C25.1788 29.515 25.2383 29.5064 25.9901 29.0716C26.4118 28.8277 26.9073 28.5473 27.0912 28.4482C27.4107 28.2764 28.4117 27.2933 28.2671 27.2933C28.2291 27.2933 28.3738 27.0626 28.589 26.7806C28.8041 26.4985 28.9801 26.2106 28.9801 26.1409C28.9801 26.0713 29.1009 25.8808 29.2484 25.7178C29.4784 25.4639 29.5168 25.0988 29.5168 23.1631C29.5168 20.9576 29.506 20.8834 29.0568 19.9973C28.8038 19.4983 28.5106 19.0348 28.4051 18.9673C28.2998 18.8998 28.2121 18.7618 28.2104 18.6606C28.2055 18.3767 26.3402 17.0628 25.4355 16.7063C24.4971 16.3364 22.468 16.1857 21.5437 16.4174ZM25.7892 22.6203C25.8334 22.6643 25.8369 22.8713 25.7969 23.0803L25.7244 23.46H23.0679C21.4467 23.46 20.3743 23.3997 20.3158 23.3053C20.2634 23.2202 20.2639 23.0132 20.3172 22.8453C20.4091 22.5559 20.5527 22.54 23.0616 22.54C24.5176 22.54 25.7451 22.5762 25.7892 22.6203Z" fill="currentColor"/>
</svg>
