<svg width="18" height="18" viewBox="0 0 18 18" fill="none" xmlns="http://www.w3.org/2000/svg">
<path fill-rule="evenodd" clip-rule="evenodd" d="M12.2625 1.7315C11.7552 2.23334 11.34 2.65526 11.34 2.66903C11.34 2.69819 13.9137 5.26913 14.7409 6.06635L15.3067 6.61157L16.2034 5.71832L17.1 4.82507V4.33124V3.8375L15.5896 2.32712L14.0792 0.81665L13.6321 0.81782C13.1865 0.8189 13.182 0.82196 12.2625 1.7315ZM6.50217 7.49951C4.11402 9.88802 2.16003 11.8733 2.16003 11.9112C2.16003 11.949 3.03825 12.8525 4.11168 13.9189L6.06324 15.8577L10.4117 11.51C12.8033 9.11879 14.76 7.12133 14.76 7.0712C14.76 6.9821 10.977 3.15665 10.889 3.15665C10.8644 3.15665 8.89041 5.11091 6.50217 7.49951ZM1.44552 13.4392C1.33572 14.0456 1.18596 14.8454 1.11252 15.2167C1.03917 15.5879 0.955473 16.1448 0.926583 16.4542L0.874023 17.0167L1.26948 17.0163C1.48701 17.016 2.23203 16.9127 2.92503 16.7866C3.61803 16.6604 4.47978 16.5043 4.83996 16.4395C5.20023 16.3748 5.52234 16.2943 5.55582 16.2608C5.61405 16.2026 1.81623 12.3367 1.70085 12.3367C1.67016 12.3367 1.55523 12.8327 1.44552 13.4392Z" fill="currentColor"/>
</svg>
