<svg width="231" height="231" viewBox="0 0 231 231" fill="none" xmlns="http://www.w3.org/2000/svg">
<circle cx="115.44" cy="115.44" r="105.102" stroke="currentColor" stroke-width="20.6759"/>
<path d="M76.5963 166.298V100.581C76.5963 96.9136 75.4383 95.0801 73.1223 95.0801C72.1573 95.0801 70.8545 95.6109 69.214 96.6724L63.7134 100.291C62.7484 100.967 61.6386 101.304 60.3841 101.304C59.2261 101.304 58.1164 100.484 57.0548 98.8437L53.0018 92.3298C51.3613 89.6278 51.892 87.4565 54.5941 85.816L79.4914 70.3276C80.2634 69.8451 81.0836 69.6038 81.9521 69.6038H89.045C90.4925 69.6038 91.6505 70.0381 92.519 70.9066C93.3875 71.7751 93.8218 72.9331 93.8218 74.3806V166.298C93.8218 167.745 93.3875 168.903 92.519 169.772C91.6505 170.641 90.4925 171.075 89.045 171.075H81.3731C79.9256 171.075 78.7676 170.641 77.8991 169.772C77.0306 168.903 76.5963 167.745 76.5963 166.298ZM127.406 165.719C133.003 140.243 140.048 115.683 148.54 92.0403C149.216 90.1103 149.119 88.5663 148.251 87.4083C147.479 86.2503 146.079 85.6713 144.053 85.6713H116.695C115.247 85.6713 114.089 85.237 113.221 84.3685C112.352 83.5 111.918 82.342 111.918 80.8945V74.5254C111.918 73.0779 112.352 71.9199 113.221 71.0513C114.089 70.1828 115.247 69.7486 116.695 69.7486H165.042C166.489 69.7486 167.647 70.1828 168.516 71.0513C169.384 71.9199 169.819 73.0779 169.819 74.5254V80.8945C169.819 81.57 168.854 84.2237 166.924 88.8558C162.581 99.7604 157.756 115.538 152.448 136.19C149.746 145.84 147.286 156.165 145.066 167.166C144.873 168.324 144.342 169.289 143.474 170.062C142.605 170.737 141.592 171.075 140.434 171.075H132.038C130.398 171.075 129.143 170.592 128.275 169.627C127.406 168.662 127.117 167.359 127.406 165.719Z" fill="currentColor"/>
</svg>
