<svg width="40" height="40" viewBox="0 0 40 40" fill="none" xmlns="http://www.w3.org/2000/svg">
<path fill-rule="evenodd" clip-rule="evenodd" d="M5.73224 4.61281C5.36438 4.86056 4.86056 5.36438 4.61281 5.73224C4.17598 6.38035 4.16211 6.54287 4.16211 11.0392C4.16211 16.1175 4.20591 16.3482 5.35309 17.3134C6.36727 18.1668 7.10021 18.2707 11.6096 18.2003C15.6461 18.1373 15.8107 18.1191 16.4835 17.6575C16.8665 17.3949 17.3949 16.8665 17.6575 16.4835C18.1169 15.8138 18.1377 15.6345 18.2001 11.8104C18.279 6.98208 18.1987 6.34329 17.3986 5.43197C16.3091 4.19105 16.1642 4.16211 11.0392 4.16211C6.54287 4.16211 6.38035 4.17598 5.73224 4.61281ZM23.2798 4.53135C22.3312 5.1099 21.6397 6.06561 21.5011 6.98981C21.4314 7.45399 21.4038 9.62328 21.4395 11.8104C21.5019 15.6345 21.5227 15.8138 21.9822 16.4835C22.2448 16.8665 22.7732 17.3949 23.1561 17.6575C23.829 18.1191 23.9935 18.1373 28.03 18.2003C32.5394 18.2707 33.2724 18.1668 34.2865 17.3134C35.4337 16.3482 35.4775 16.1175 35.4775 11.0392C35.4775 6.54287 35.4636 6.38035 35.0268 5.73224C34.7791 5.36438 34.2752 4.86056 33.9074 4.61281C33.2587 4.17559 33.0989 4.16211 28.5608 4.1629C24.354 4.1635 23.8222 4.20056 23.2798 4.53135ZM14.4684 11.0991V14.4684H11.0991H7.72969V11.0991V7.72969H11.0991H14.4684V11.0991ZM31.9099 11.0991V14.4684H28.5406H25.1712V11.0991V7.72969H28.5406H31.9099V11.0991ZM6.34368 21.714C5.96294 21.8831 5.44168 22.2172 5.18521 22.4567C4.21027 23.367 4.16211 23.6562 4.16211 28.6004C4.16211 33.0968 4.17598 33.2593 4.61281 33.9074C4.86056 34.2752 5.36438 34.7791 5.73224 35.0268C6.38035 35.4636 6.54287 35.4775 11.0392 35.4775C16.1642 35.4775 16.3091 35.4486 17.3986 34.2077C18.1987 33.2963 18.279 32.6576 18.2001 27.8292C18.1377 24.0052 18.1169 23.8258 17.6575 23.1561C17.3949 22.7732 16.8665 22.2448 16.4835 21.9822C15.8055 21.5172 15.6711 21.5031 11.4114 21.4556C7.81135 21.4153 6.91331 21.4611 6.34368 21.714ZM23.587 21.714C23.2062 21.8831 22.685 22.2172 22.4285 22.4567C21.4536 23.367 21.4054 23.6562 21.4054 28.6004C21.4054 33.0968 21.4193 33.2593 21.8561 33.9074C22.1039 34.2752 22.6077 34.7791 22.9755 35.0268C23.6236 35.4636 23.7862 35.4775 28.2825 35.4775C33.4075 35.4775 33.5524 35.4486 34.6419 34.2077C35.442 33.2963 35.5223 32.6576 35.4434 27.8292C35.381 24.0052 35.3602 23.8258 34.9008 23.1561C34.6382 22.7732 34.1098 22.2448 33.7268 21.9822C33.0488 21.5172 32.9144 21.5031 28.6547 21.4556C25.0546 21.4153 24.1566 21.4611 23.587 21.714ZM14.4684 28.5406V31.9099H11.0991H7.72969V28.5406V25.1712H11.0991H14.4684V28.5406ZM31.7117 28.5406V31.9099H28.3424H24.973V28.5406V25.1712H28.3424H31.7117V28.5406Z" fill="currentColor"/>
</svg>
