<svg width="21" height="18" viewBox="0 0 21 18" fill="none" xmlns="http://www.w3.org/2000/svg">
<path fill-rule="evenodd" clip-rule="evenodd" d="M13.7979 15.8487C13.7816 15.6929 13.8046 15.5062 13.8493 15.4342C13.8938 15.362 13.9195 15.1765 13.9062 15.0219C13.893 14.8673 13.9182 14.3814 13.9623 13.9419L14.0425 13.1431H15.2548H16.4671L16.5841 12.8596C16.6484 12.7037 16.6929 12.4602 16.6829 12.3185C16.673 12.1768 16.7004 11.6781 16.7438 11.2104L16.8228 10.36H15.6782H14.5337V9.95196C14.5337 9.57058 14.6925 8.22801 14.7994 7.70583C14.8454 7.48092 14.8841 7.47391 16.0756 7.47391H17.3043L17.3754 6.75238C17.4145 6.35553 17.4852 6.03084 17.5324 6.03084C17.5797 6.03084 17.616 5.72934 17.6132 5.36085L17.608 4.69085H16.4488C15.8112 4.69085 15.2664 4.66776 15.2382 4.63942C15.2099 4.61117 15.2704 3.97334 15.3724 3.22212C15.4746 2.4709 15.5596 1.82142 15.5614 1.77895C15.563 1.73648 14.9392 1.70164 14.1749 1.70164C12.5716 1.70164 12.7626 1.53538 12.5759 3.09317C12.5147 3.6034 12.438 4.17166 12.4054 4.35585L12.3461 4.69085H10.863C9.51799 4.69085 9.38018 4.67405 9.38317 4.51047C9.38492 4.41121 9.45357 3.86624 9.53572 3.29932C9.61788 2.7324 9.68601 2.14095 9.68714 1.9851L9.6891 1.70164H8.2383H6.7874L6.81719 1.98521C6.83348 2.14106 6.81225 2.32474 6.76988 2.39328C6.72752 2.46183 6.70175 2.67056 6.71257 2.85713C6.72339 3.04359 6.69711 3.53248 6.65413 3.94355L6.57589 4.69085H5.36196H4.14804L4.03104 4.97431C3.96672 5.13016 3.9222 5.37373 3.93219 5.51546C3.94209 5.65719 3.91467 6.15587 3.87128 6.62353L3.79232 7.47391H4.93688H6.08144V7.88199C6.08144 8.26337 5.92259 9.60594 5.8157 10.1281C5.76973 10.353 5.73098 10.36 4.53952 10.36H3.31085L3.23973 11.0816C3.20066 11.4784 3.12995 11.8031 3.08274 11.8031C3.03543 11.8031 2.99915 12.1046 3.00193 12.4731L3.00708 13.1431H4.16628C4.80391 13.1431 5.34867 13.1662 5.37691 13.1945C5.40526 13.2228 5.34475 13.8606 5.24271 14.6118C5.14056 15.363 5.05552 16.0124 5.05377 16.055C5.05212 16.0976 5.67593 16.1323 6.44024 16.1323C8.04349 16.1323 7.85249 16.2986 8.03926 14.7408C8.10039 14.2306 8.17708 13.6624 8.20975 13.4781L8.26902 13.1431H9.75208C11.0967 13.1431 11.235 13.16 11.2333 13.3235C11.2322 13.4226 11.164 13.9677 11.0819 14.5346C10.9997 15.1015 10.9311 15.6929 10.9293 15.8488L10.926 16.1323H12.3768H13.8277L13.7979 15.8487ZM8.65834 10.1938C8.65834 10.1024 8.73493 9.45297 8.82862 8.75071L8.9989 7.47391H10.4778C11.8175 7.47391 11.9568 7.49092 11.9571 7.65429C11.9572 7.75355 11.8813 8.40293 11.7884 9.09736L11.6194 10.36H10.1389C8.84542 10.36 8.65834 10.339 8.65834 10.1938Z" fill="currentColor"/>
</svg>
