<svg width="18" height="17" viewBox="0 0 18 17" fill="none" xmlns="http://www.w3.org/2000/svg">
<path fill-rule="evenodd" clip-rule="evenodd" d="M14.5982 0.179918C16.6912 0.855385 17.8533 2.49325 17.8533 4.76783C17.8533 7.06834 16.8028 8.93199 13.8105 11.9397C12.1766 13.5822 9.19766 16.1708 8.9414 16.1708C8.80134 16.1708 7.06434 14.8345 6.01681 13.9211C3.40549 11.6436 1.6102 9.50103 0.684586 7.55679C0.170094 6.47612 -5.53131e-05 5.75499 -5.53131e-05 4.65568C-5.53131e-05 2.76125 0.846252 1.36051 2.48669 0.539845C3.36416 0.100811 4.07257 -0.0358015 5.22111 0.0124321C6.04916 0.0471524 6.24664 0.0926242 6.83313 0.383209C7.50742 0.717293 8.56609 1.70771 8.80173 2.22496C8.90737 2.45676 8.91319 2.4535 9.22528 1.99021C9.81809 1.10987 10.7245 0.444463 11.7311 0.150623C12.4591 -0.0618418 13.8943 -0.0472434 14.5982 0.179918Z" fill="currentColor"/>
</svg>
