<svg width="23" height="23" viewBox="0 0 23 23" fill="none" xmlns="http://www.w3.org/2000/svg">
<path fill-rule="evenodd" clip-rule="evenodd" d="M0.5 11.75V23H1.707C2.9035 23 2.9155 22.9505 3.082 17.2205C3.1745 14.042 3.174 8.9795 3.081 5.9705C2.9135 0.569 2.8965 0.5 1.706 0.5H0.5V11.75ZM4 5.75V11H11.25H18.5V5.75V0.5H17H15.5V4.25V8H11.25H7V4.25V0.5H5.5H4V5.75ZM19 11.75V23H20.75H22.5V11.75V0.5H20.75H19V11.75ZM4 17.25V23H5.5H7V19V15H11.25H15.5V19V23H17H18.5V17.25V11.5H11.25H4V17.25Z" fill="currentColor"/>
</svg>
