<svg width="22" height="22" viewBox="0 0 22 22" fill="none" xmlns="http://www.w3.org/2000/svg">
<path fill-rule="evenodd" clip-rule="evenodd" d="M10.3055 0.561778C9.08702 0.69931 7.6744 1.1507 6.65701 1.72758C5.20278 2.55218 4.10606 3.58173 3.2111 4.96257L2.88491 5.46588L1.69854 4.28007L0.512207 3.09429V6.49715V9.89996H3.9151H7.31796L5.85046 8.43199L4.38292 6.96398L4.60934 6.58642C6.20161 3.93062 8.97624 2.44089 11.9439 2.64849C15.2956 2.88298 18.1548 5.2867 18.9867 8.56944C19.2324 9.53904 19.2696 10.8787 19.0773 11.8364C18.5463 14.4812 16.6814 16.6996 14.1731 17.6702C12.8128 18.1966 11.2413 18.3166 9.79342 18.0046C8.22585 17.6668 6.71483 16.7818 5.64572 15.5754C5.05394 14.9075 4.46169 13.9658 4.14959 13.1964L4.05874 12.9724H2.94606H1.83342L1.86184 13.0897C1.94646 13.4394 2.21918 14.1359 2.49267 14.7006C4.02985 17.8751 7.10097 19.9733 10.6458 20.2707C13.2363 20.488 15.7832 19.6733 17.8344 17.9709C19.6103 16.4971 20.8677 14.2495 21.2278 11.9056C21.3256 11.2688 21.3578 10.1561 21.297 9.51591C20.8774 5.10146 17.5533 1.46421 13.2072 0.664191C12.3911 0.513985 11.1249 0.469264 10.3055 0.561778ZM9.86775 8.38957L9.87876 11.0611L12.3054 12.5074C13.6401 13.3029 14.7458 13.9538 14.7625 13.9538C14.7911 13.9538 15.5531 12.7392 15.5981 12.6218C15.6118 12.5861 14.8899 12.1297 13.5277 11.3127L11.4363 10.0585V7.8883V5.71808H10.6465H9.85679L9.86775 8.38957Z" fill="currentColor"/>
</svg>
