<svg width="621" height="621" viewBox="0 0 621 621" fill="none" xmlns="http://www.w3.org/2000/svg">
<path fill-rule="evenodd" clip-rule="evenodd" d="M59.3171 85.067C46.1181 89.261 34.1751 100.475 28.8501 113.676L26.5001 119.5L26.2341 307.5C26.0531 435.733 26.3021 497.11 27.0171 500.565C30.3821 516.824 42.6831 530.503 58.8321 535.943C64.9271 537.997 65.3301 538 310.379 538C547.976 538 556.015 537.94 561.875 536.116C570.331 533.484 575.598 530.153 582.125 523.309C588.297 516.837 590.945 512.314 593.39 504.068C594.845 499.159 595 480.538 595 310.408C595 128.479 594.937 121.974 593.105 116.091C589.19 103.512 580.065 93.32 567.23 87.191L559.5 83.5L312.5 83.301C69.4631 83.105 65.4011 83.134 59.3171 85.067ZM553.364 124.636L556 127.273V310.682V494.091L553.545 496.545L551.091 499H310.634H70.1781L67.5891 495.923L65.0001 492.847V310.346V127.846L67.9231 124.923L70.8461 122H310.787H550.727L553.364 124.636ZM140.468 161.771C117.308 169.64 101.97 191.055 102.015 215.46C102.044 231.6 107.683 245.572 118.556 256.444C129.428 267.317 143.4 272.956 159.54 272.985C174.633 273.013 188.854 267.143 199.554 256.469C210.828 245.222 216.008 232.511 215.988 216.145C215.967 199.08 211.08 186.983 199.548 175.452C187.915 163.819 175.91 159.017 158.5 159.033C150.255 159.041 147.09 159.522 140.468 161.771ZM320.003 281.497L244.51 356.995L220.753 333.253L196.996 309.512L149.498 357.002L102 404.492V433.746V463H311H520V396.247V329.494L458.247 267.747C424.283 233.786 396.269 206 395.995 206C395.72 206 361.523 239.974 320.003 281.497Z" fill="currentColor"/>
</svg>
