<svg width="22" height="22" viewBox="0 0 22 22" fill="none" xmlns="http://www.w3.org/2000/svg">
<path d="M17.121 12.0804C16.8539 12.0804 16.5977 12.1865 16.4088 12.3753C16.22 12.5642 16.1138 12.8204 16.1138 13.0875V13.4702L14.6233 11.9797C14.097 11.4575 13.3857 11.1645 12.6443 11.1645C11.903 11.1645 11.1916 11.4575 10.6654 11.9797L9.96037 12.6846L7.46273 10.187C6.92907 9.679 6.22052 9.39568 5.48374 9.39568C4.74697 9.39568 4.03841 9.679 3.50476 10.187L2.01423 11.6775V6.03767C2.01423 5.77057 2.12034 5.5144 2.30921 5.32553C2.49808 5.13666 2.75424 5.03056 3.02135 5.03056H10.0712C10.3383 5.03056 10.5944 4.92445 10.7833 4.73558C10.9722 4.54671 11.0783 4.29054 11.0783 4.02344C11.0783 3.75634 10.9722 3.50017 10.7833 3.3113C10.5944 3.12243 10.3383 3.01632 10.0712 3.01632H3.02135C2.22004 3.01632 1.45154 3.33464 0.884932 3.90126C0.31832 4.46787 0 5.23636 0 6.03767V18.1231C0 18.9244 0.31832 19.6929 0.884932 20.2595C1.45154 20.8261 2.22004 21.1444 3.02135 21.1444H15.1067C15.908 21.1444 16.6765 20.8261 17.2431 20.2595C17.8098 19.6929 18.1281 18.9244 18.1281 18.1231V13.0875C18.1281 12.8204 18.022 12.5642 17.8331 12.3753C17.6442 12.1865 17.3881 12.0804 17.121 12.0804ZM3.02135 19.1302C2.75424 19.1302 2.49808 19.0241 2.30921 18.8352C2.12034 18.6463 2.01423 18.3902 2.01423 18.1231V14.5277L4.93487 11.607C5.08282 11.466 5.27937 11.3874 5.48374 11.3874C5.68812 11.3874 5.88467 11.466 6.03262 11.607L9.22518 14.7996L13.5558 19.1302H3.02135ZM16.1138 18.1231C16.1124 18.3158 16.0488 18.503 15.9326 18.6568L11.3905 14.0946L12.0955 13.3896C12.1677 13.3159 12.2538 13.2574 12.349 13.2174C12.4441 13.1774 12.5462 13.1569 12.6494 13.1569C12.7525 13.1569 12.8547 13.1774 12.9498 13.2174C13.0449 13.2574 13.1311 13.3159 13.2033 13.3896L16.1138 16.3203V18.1231ZM20.8574 3.30839L17.836 0.287041C17.7402 0.195353 17.6273 0.12348 17.5037 0.0755473C17.2585 -0.0251824 16.9835 -0.0251824 16.7383 0.0755473C16.6146 0.12348 16.5017 0.195353 16.4059 0.287041L13.3846 3.30839C13.2907 3.40229 13.2162 3.51377 13.1654 3.63646C13.1145 3.75915 13.0884 3.89064 13.0884 4.02344C13.0884 4.29164 13.1949 4.54885 13.3846 4.73849C13.5742 4.92814 13.8314 5.03468 14.0996 5.03468C14.3678 5.03468 14.625 4.92814 14.8147 4.73849L16.1138 3.42924V9.05902C16.1138 9.32612 16.22 9.58229 16.4088 9.77116C16.5977 9.96003 16.8539 10.0661 17.121 10.0661C17.3881 10.0661 17.6442 9.96003 17.8331 9.77116C18.022 9.58229 18.1281 9.32612 18.1281 9.05902V3.42924L19.4273 4.73849C19.5209 4.83289 19.6323 4.90781 19.755 4.95894C19.8777 5.01007 20.0094 5.0364 20.1423 5.0364C20.2753 5.0364 20.4069 5.01007 20.5296 4.95894C20.6524 4.90781 20.7637 4.83289 20.8574 4.73849C20.9518 4.64487 21.0267 4.53348 21.0778 4.41075C21.1289 4.28803 21.1553 4.15639 21.1553 4.02344C21.1553 3.89049 21.1289 3.75885 21.0778 3.63613C21.0267 3.5134 20.9518 3.40201 20.8574 3.30839Z" fill="currentColor"/>
</svg>
