<svg width="29" height="29" viewBox="0 0 29 29" fill="none" xmlns="http://www.w3.org/2000/svg">
<g clip-path="url(#clip0_46_161)">
<path fill-rule="evenodd" clip-rule="evenodd" d="M16.3461 8.07638C17.3846 8.06518 18.1419 8.31246 18.6927 8.83615C18.9107 9.04516 19.037 9.21829 19.1673 9.4924C19.3697 9.91724 19.4395 10.3267 19.4193 10.9582C19.4013 11.554 19.3002 12.085 19.0619 12.8156C18.9315 13.2158 15.6645 21.7095 15.3607 22.4387C15.0055 23.2953 14.8304 23.8692 14.8011 24.2717C14.7855 24.5321 14.8259 24.6826 14.9515 24.8264C15.1898 25.0984 15.6081 25.0493 16.1722 24.6809C16.6669 24.3571 17.2223 23.8348 18.3802 22.5959C19.1379 21.7888 19.3561 21.5728 19.5921 21.4065C19.7563 21.2918 19.8446 21.2747 19.9818 21.3264C20.285 21.4434 20.4552 21.8069 20.3588 22.135C20.1002 23.0276 18.5361 24.7325 16.7464 26.0725C14.7521 27.5654 12.7481 28.4466 10.9877 28.6018C10.6256 28.6332 10.0027 28.6173 9.72399 28.5656C8.59788 28.3655 7.93948 27.7744 7.74156 26.7854C7.65612 26.3559 7.70039 25.5885 7.85777 24.8195C8.08715 23.6954 8.59537 22.1327 9.24059 20.5725C9.35999 20.2819 10.2104 18.2361 11.1254 16.0285C12.0426 13.8207 12.8073 11.9503 12.8275 11.8693C12.9152 11.4939 12.8138 11.1766 12.5531 11.0236C12.4542 10.9674 12.4269 10.9609 12.2425 10.9631C11.9953 10.9653 11.7794 11.0328 11.4759 11.2014C10.8891 11.5229 10.3606 12.0176 9.14879 13.3801C8.31928 14.3108 7.97296 14.6347 7.72789 14.718C7.53455 14.7832 7.34573 14.7201 7.17711 14.5402C7.0467 14.3964 7.00835 14.2971 7.02184 14.1262C7.05825 13.6606 7.76847 12.7543 9.10582 11.4709C9.6836 10.9156 10.0121 10.6281 10.4213 10.3088C11.8556 9.19367 13.4497 8.45862 15.0033 8.19552C15.2775 8.14831 15.4194 8.13207 15.8959 8.08712C15.9386 8.08263 16.1415 8.07863 16.3461 8.07638ZM18.3802 0.0783337C18.6748 0.0311175 19.3839 0.0498537 19.683 0.11056C20.9327 0.369219 21.7596 1.16929 22.016 2.3674C22.0857 2.70016 22.0857 3.28266 22.016 3.6379C21.7304 5.06555 20.5842 6.1402 19.0306 6.43478C18.6845 6.49996 17.9584 6.50685 17.639 6.44845C16.4925 6.23489 15.7056 5.58964 15.3705 4.58712C15.2468 4.22063 15.2123 3.98368 15.2123 3.52951C15.2145 3.21299 15.2239 3.09156 15.2621 2.90744C15.5746 1.4461 16.7998 0.334773 18.3802 0.0783337Z" fill="currentColor"/>
</g>
<defs>
<clipPath id="clip0_46_161">
<rect width="28.7794" height="28.7794" fill="white"/>
</clipPath>
</defs>
</svg>
