<svg width="29" height="28" viewBox="0 0 29 28" fill="none" xmlns="http://www.w3.org/2000/svg">
<path fill-rule="evenodd" clip-rule="evenodd" d="M10.2888 2.51414C9.97841 3.12363 9.65956 4.69419 9.78162 5.01224C9.84669 5.18162 10.2679 5.42041 10.7174 5.54266C11.1672 5.66472 11.757 5.82819 12.0281 5.90587C12.2992 5.98337 12.5483 6.18706 12.5816 6.35841C12.6343 6.62993 9.39376 19.728 8.85072 21.4381C8.62455 22.1506 7.84962 22.4757 6.37312 22.4777C5.3318 22.4791 5.01966 22.7938 4.71659 24.148C4.31749 25.9319 3.94778 25.8442 11.6099 25.7842L18.2378 25.7324L18.4612 25.0422C19.1523 22.9065 18.9993 22.6041 17.1298 22.4089C16.4482 22.3375 15.802 22.1908 15.6937 22.0825C15.563 21.9518 16.0832 19.5578 17.2467 14.9358C18.2092 11.1135 19.1149 7.57522 19.2594 7.073C19.564 6.01472 19.9186 5.81438 21.8439 5.61148C22.5249 5.53971 23.2064 5.35712 23.3578 5.20548C23.5095 5.05385 23.7421 4.44475 23.8748 3.85202C24.2712 2.08034 24.6316 2.16907 17.0391 2.16907C10.976 2.16907 10.4509 2.19589 10.2888 2.51414Z" fill="currentColor"/>
</svg>
