<svg width="20" height="20" viewBox="0 0 20 20" fill="none" xmlns="http://www.w3.org/2000/svg">
<path fill="currentColor" d="M19.2295 17.6267V15.8864C19.2304 15.5706 19.1686 15.2578 19.0477 14.9661C18.9268 14.6744 18.7492 14.4096 18.5252 14.187L11.827 7.48806C12.158 6.20553 12.058 4.84977 11.5426 3.62962C11.0272 2.40947 10.125 1.39261 8.97483 0.735681C7.82468 0.0787484 6.49045 -0.181817 5.17765 -0.00588071C3.86485 0.170056 2.64631 0.772735 1.70972 1.70932C0.77313 2.64591 0.17045 3.86446 -0.00548553 5.17726C-0.181423 6.49006 0.0791435 7.82429 0.736076 8.97444C1.39301 10.1246 2.40986 11.0268 3.63001 11.5422C4.85016 12.0576 6.20592 12.1576 7.48846 11.8267L8.48116 12.8194H10.4161L10.4161 15.223H12.8198V17.1571L14.1874 18.5248C14.4102 18.7487 14.6752 18.9263 14.967 19.0472C15.2588 19.168 15.5717 19.2299 15.8876 19.2291H17.627C18.052 19.2291 18.4596 19.0603 18.7601 18.7597C19.0607 18.4592 19.2295 18.0516 19.2295 17.6267ZM15.8876 17.6267C15.7823 17.6267 15.6779 17.606 15.5806 17.5658C15.4833 17.5255 15.3948 17.4664 15.3203 17.3919L14.4222 16.4937V13.6206H12.0185V11.2169H9.14617L7.90829 9.97905C7.31462 10.261 6.6666 10.41 6.00941 10.4157C5.13785 10.4157 4.28586 10.1573 3.56119 9.67305C2.83651 9.18884 2.27169 8.5006 1.93816 7.69539C1.60463 6.89017 1.51736 6.00413 1.6874 5.14932C1.85743 4.2945 2.27712 3.5093 2.89341 2.89302C3.5097 2.27673 4.2949 1.85703 5.14971 1.687C6.00452 1.51697 6.89056 1.60423 7.69578 1.93777C8.501 2.2713 9.18923 2.83612 9.67344 3.56079C10.1577 4.28547 10.4161 5.13746 10.4161 6.00902C10.4594 6.67071 10.3078 7.33057 9.98024 7.9071L17.3923 15.32C17.5419 15.4706 17.6262 15.6741 17.627 15.8864V17.6267H15.8876ZM4.80759 4.00598C4.64912 4.00598 4.49421 4.05297 4.36246 4.14101C4.2307 4.22905 4.128 4.35418 4.06736 4.50058C4.00672 4.64698 3.99085 4.80808 4.02177 4.9635C4.05268 5.11892 4.12899 5.26169 4.24104 5.37374C4.35309 5.48579 4.49586 5.5621 4.65128 5.59302C4.8067 5.62393 4.9678 5.60806 5.1142 5.54742C5.2606 5.48678 5.38574 5.38409 5.47377 5.25233C5.56181 5.12057 5.6088 4.96566 5.6088 4.80719C5.6088 4.5947 5.52439 4.39091 5.37413 4.24065C5.22388 4.09039 5.02008 4.00598 4.80759 4.00598Z"/>
</svg>
