<svg width="231" height="231" viewBox="0 0 231 231" fill="none" xmlns="http://www.w3.org/2000/svg">
<circle cx="115.44" cy="115.44" r="105.102" stroke="currentColor" stroke-width="20.6759"/>
<path d="M76.5963 166.298V100.581C76.5963 96.9136 75.4383 95.0801 73.1223 95.0801C72.1573 95.0801 70.8545 95.6109 69.214 96.6724L63.7134 100.291C62.7484 100.967 61.6386 101.304 60.3841 101.304C59.2261 101.304 58.1164 100.484 57.0548 98.8437L53.0018 92.3298C51.3613 89.6278 51.892 87.4565 54.5941 85.816L79.4914 70.3276C80.2634 69.8451 81.0836 69.6038 81.9521 69.6038H89.045C90.4925 69.6038 91.6505 70.0381 92.519 70.9066C93.3875 71.7751 93.8218 72.9331 93.8218 74.3806V166.298C93.8218 167.745 93.3875 168.903 92.519 169.772C91.6505 170.641 90.4925 171.075 89.045 171.075H81.3731C79.9256 171.075 78.7676 170.641 77.8991 169.772C77.0306 168.903 76.5963 167.745 76.5963 166.298ZM147.527 172.522C142.798 172.522 138.552 171.702 134.789 170.062C131.025 168.421 127.841 166.201 125.235 163.403C119.638 157.516 116.84 149.989 116.84 140.822C116.84 133.584 119.735 127.07 125.525 121.28C127.937 118.868 127.985 116.455 125.669 114.043C122.292 109.7 120.314 105.744 119.735 102.173C119.445 100.725 119.3 98.5059 119.3 95.5144C119.3 92.4263 119.976 89.0971 121.327 85.5265C122.678 81.956 124.56 78.9162 126.972 76.4072C132.28 70.9066 139.131 68.1563 147.527 68.1563C156.212 68.1563 163.16 70.9066 168.371 76.4072C173.389 81.8112 175.898 88.7593 175.898 97.2514C175.898 103.524 173.727 109.121 169.384 114.043C167.261 116.455 167.358 118.819 169.674 121.135C175.464 126.346 178.359 132.909 178.359 140.822C178.359 149.989 175.512 157.565 169.819 163.548C164.222 169.531 156.791 172.522 147.527 172.522ZM147.527 111.292C154.861 111.292 158.528 106.709 158.528 97.5409C158.528 93.9704 157.66 90.9306 155.923 88.4215C154.282 85.9125 151.483 84.658 147.527 84.658C143.57 84.658 140.724 85.9125 138.987 88.4215C137.346 90.9306 136.526 93.9704 136.526 97.5409C136.526 106.709 140.193 111.292 147.527 111.292ZM134.065 140.677C134.065 145.212 135.03 148.928 136.96 151.823C138.987 154.621 142.509 156.021 147.527 156.021C152.641 156.021 156.164 154.621 158.094 151.823C160.024 149.024 160.989 145.357 160.989 140.822C160.989 136.19 159.927 132.378 157.804 129.386C155.778 126.395 152.352 124.899 147.527 124.899C142.702 124.899 139.228 126.395 137.105 129.386C135.078 132.378 134.065 136.141 134.065 140.677Z" fill="currentColor"/>
</svg>
