<svg width="100" height="105" viewBox="0 0 100 105" fill="none" xmlns="http://www.w3.org/2000/svg">
<path fill-rule="evenodd" clip-rule="evenodd" d="M56.355 15.25C53.736 18.688 51.332 21.725 51.013 22C50.693 22.275 48.851 24.525 46.917 27C37.736 38.755 31.777 46.3 24.459 55.435C20.081 60.9 16.381 66.3 16.235 67.435C15.705 71.574 14.835 93 15.197 93C15.402 93 18.929 91.854 23.035 90.453C27.141 89.053 32.75 87.211 35.5 86.36C39.924 84.991 41.219 83.874 46.74 76.656C67.784 49.149 72.963 43.049 74.707 43.718C75.51 44.026 75.762 44.553 75.267 44.889C74.772 45.225 72.41 48.114 70.019 51.308L65.672 57.116L67.818 59.262L69.964 61.409L72.854 58.64C74.443 57.118 77.488 53.435 79.622 50.458C81.755 47.48 84.063 45.033 84.75 45.022C85.438 45.01 86 44.325 86 43.5C86 42.675 85.507 42 84.904 42C83.459 42 78 38.09 78 37.056C78 36.611 79.8 34.336 82 32C85.889 27.871 87.095 25 84.941 25C83.839 25 68.977 13.977 65.812 10.812C62.912 7.912 61.409 8.617 56.355 15.25ZM73.892 29.574C72.841 30.715 72.323 32.031 72.741 32.498C73.508 33.356 66.499 28.49 62.127 25.13C59.828 23.363 59.807 23.223 61.464 20.695L63.175 18.084L69.489 22.792C75.776 27.48 75.795 27.509 73.892 29.574ZM62.331 34.009C66.757 37.797 67.781 39.147 66.581 39.607C65.712 39.941 65 40.568 65 41.001C65 41.434 63.65 43.234 62 45C60.35 46.766 59 48.758 59 49.425C59 50.093 57.987 51.577 56.75 52.723C53 56.196 49.167 60.785 46.281 65.257C44.775 67.591 42.598 70.419 41.444 71.542L39.346 73.584L33.269 68.975L27.192 64.366L32.346 57.759C35.181 54.125 40.381 47.405 43.903 42.826C50.788 33.872 55.036 28.995 55.937 29.009C56.247 29.014 59.124 31.264 62.331 34.009ZM31.265 76.322L34.03 78.758L30.765 80.254C28.969 81.077 26.198 82.056 24.607 82.43L21.713 83.11L22.357 78.415C22.71 75.833 23 72.853 23 71.792C23 69.908 23.062 69.909 25.75 71.875C27.262 72.981 29.744 74.982 31.265 76.322Z" fill="currentColor"/>
</svg>
