<svg width="26" height="26" viewBox="0 0 26 26" fill="none" xmlns="http://www.w3.org/2000/svg">
<path fill-rule="evenodd" clip-rule="evenodd" d="M14.2096 2.26568C12.5277 3.78544 11.7625 4.95791 11.8863 5.8252C12.1748 7.84268 14.334 7.73249 16.3812 5.59615C18.447 3.44001 19.8002 3.23201 21.2612 4.84649C22.862 6.6151 22.5228 7.54615 19.0165 11.0091C15.6681 14.3161 14.4647 14.7766 12.4546 13.5212C10.9695 12.5939 9.28572 13.2532 9.28572 14.7618C9.28572 16.2314 10.4359 17.2169 13.013 17.9561C15.8705 18.7757 18.2334 17.5661 22.4405 13.1306C25.6057 9.7933 26 9.0913 26 6.79339C26 4.67996 25.6168 3.8263 23.8952 2.10472C20.8737 -0.916847 17.6738 -0.863609 14.2096 2.26568ZM4.22686 12.2744C0.190667 16.3106 0 16.6332 0 19.4412C0 21.8647 0.317571 22.6986 1.80948 24.1905C3.28219 25.6632 4.14638 26 6.45048 26C8.83443 26 9.67386 25.6459 11.76 23.7615C14.347 21.4246 14.9215 19.5854 13.265 18.9496C12.1073 18.5052 10.6352 19.214 9.02819 20.99C6.96305 23.2724 3.71429 22.3402 3.71429 19.4659C3.71429 18.0173 9.87133 11.7476 11.2605 11.7817C11.7068 11.7922 12.5976 12.1995 13.2402 12.6861C14.5693 13.6927 16.7143 12.9449 16.7143 11.4752C16.7143 9.90287 13.5961 8.04758 10.9528 8.04758C8.68957 8.04758 8.05381 8.44687 4.22686 12.2744Z" fill="currentColor"/>
</svg>
