<svg width="18" height="18" viewBox="0 0 18 18" fill="none" xmlns="http://www.w3.org/2000/svg">
<path fill-rule="evenodd" clip-rule="evenodd" d="M10.4215 0.983734C11.1222 1.24417 11.357 1.40181 12.0624 2.08542C12.8179 2.81765 12.8329 2.83718 13.1369 3.48675C13.4252 4.10281 13.6442 5.02664 13.6464 5.63621C13.6475 5.93707 13.6814 6.04652 13.7737 6.04652C13.9635 6.04652 14.5281 6.45621 14.7023 6.72019C14.8445 6.93605 14.8561 7.275 14.8566 11.2468C14.8571 14.1677 14.8272 15.6035 14.7631 15.7385C14.7112 15.8476 14.5127 16.0633 14.3218 16.2177L13.9748 16.4984H8.63791H3.30105L2.95398 16.2177C2.76308 16.0633 2.56458 15.8476 2.51275 15.7385C2.44866 15.6035 2.41877 14.1677 2.4192 11.2468C2.41972 7.275 2.43129 6.93605 2.57356 6.72019C2.7477 6.45621 3.31236 6.04652 3.50214 6.04652C3.59439 6.04652 3.62834 5.93707 3.62938 5.63621C3.63404 4.3603 4.19672 3.0495 5.12754 2.14562C6.29323 1.01379 6.91309 0.775387 8.67307 0.781865C9.72146 0.785752 9.9641 0.813739 10.4215 0.983734ZM7.94282 3.46947C7.49434 3.62582 6.94358 4.03232 6.76098 4.34182C6.5363 4.72258 6.30567 5.41897 6.30567 5.71637V5.96014H8.64914H10.9926L10.9481 5.56556C10.9237 5.34857 10.7744 4.91633 10.6163 4.60502C10.3259 4.03258 9.97835 3.72075 9.37214 3.48865C9.02403 3.35528 8.29827 3.34561 7.94282 3.46947Z" fill="currentColor"/>
</svg>
