<svg width="20" height="20" viewBox="0 0 20 20" fill="none" xmlns="http://www.w3.org/2000/svg">
<path fill-rule="evenodd" clip-rule="evenodd" d="M1.1826 3.0466C0.660371 3.23226 0.256349 3.64183 0.0747483 4.16972C0.00256102 4.37952 6.10352e-05 4.57456 6.10352e-05 9.99954C6.10352e-05 15.4584 0.00213134 15.6184 0.0760764 15.8332C0.259513 16.3664 0.665801 16.7718 1.20146 16.9561C1.41263 17.0287 1.65181 17.0308 10 17.0308C18.3482 17.0308 18.5874 17.0287 18.7986 16.9561C19.3342 16.7718 19.7405 16.3664 19.924 15.8332C19.9979 15.6184 20 15.4584 20 9.99954C20 4.54073 19.9979 4.38073 19.924 4.16589C19.7405 3.63265 19.3342 3.2273 18.7986 3.043C18.5873 2.97031 18.352 2.96839 9.98413 2.97117C1.70873 2.9739 1.37912 2.97675 1.1826 3.0466ZM14.5033 7.57647C11.2304 10.8372 11.0431 11.0166 10.7728 11.1491C10.2597 11.4009 9.74038 11.4009 9.22722 11.1491C8.95694 11.0166 8.76968 10.8372 5.49676 7.57647L2.05084 4.14339H10H17.9492L14.5033 7.57647ZM3.94528 7.751L6.19129 9.99962L3.68161 12.5093L1.17193 15.019V10.0248V5.03058L1.4356 5.26647C1.5806 5.3962 2.70997 6.51424 3.94528 7.751ZM18.8281 10.0288V15.019L16.3184 12.5084L13.8086 9.99786L16.2926 7.51822C17.6588 6.15444 18.7882 5.03862 18.8024 5.03862C18.8165 5.03862 18.8281 7.2842 18.8281 10.0288ZM7.46175 11.272C8.4246 12.2445 9.02339 12.5447 10 12.5447C10.528 12.5447 10.8992 12.4616 11.3213 12.2491C11.6694 12.0738 11.9382 11.8588 12.4878 11.3162L12.9247 10.8847L13.3081 11.2404C13.5189 11.436 14.6493 12.5552 15.8202 13.7275L17.9489 15.8589L9.99991 15.8581L2.05084 15.8573L4.53653 13.3776C5.90363 12.0138 7.03777 10.898 7.05679 10.898C7.07586 10.898 7.25808 11.0663 7.46175 11.272Z" fill="currentColor"/>
</svg>
