<svg width="158" height="47" viewBox="0 0 158 47" fill="none" xmlns="http://www.w3.org/2000/svg">
<g filter="url(#filter0_d_186_431)">
<path d="M144.957 34.8779L142.444 34.9135L139.932 34.9491L137.42 34.9847L134.908 35.0202L135.395 32.5555L137.907 32.5199L140.42 32.4843L142.932 32.4487L145.444 32.4132L145.932 29.9483L143.419 29.9839L140.907 30.0195L138.395 30.0551L138.882 27.5903L136.37 27.6258L136.858 25.1611L139.37 25.1255L139.858 22.6607L142.37 22.6252L144.882 22.5896L147.395 22.554L149.907 22.5184L149.419 24.9832L146.907 25.0188L144.395 25.0543L141.883 25.0899L141.395 27.5547L143.907 27.5192L146.42 27.4836L148.932 27.448L148.444 29.9128L150.957 29.8773L150.469 32.342L147.956 32.3776L147.469 34.8424L144.957 34.8779Z" fill="url(#paint0_linear_186_431)"/>
<path d="M134.908 35.0203L134.622 35.0243L134.566 35.3051L134.852 35.301L134.908 35.0203ZM135.395 32.5555L135.451 32.2747L135.165 32.2788L135.109 32.5596L135.395 32.5555ZM145.444 32.4132L145.389 32.694L145.675 32.6899L145.731 32.4092L145.444 32.4132ZM145.932 29.9484L146.218 29.9444L146.274 29.6636L145.988 29.6677L145.932 29.9484ZM138.395 30.0551L138.109 30.0592L138.053 30.34L138.339 30.3359L138.395 30.0551ZM138.882 27.5904L139.168 27.5863L139.224 27.3055L138.938 27.3096L138.882 27.5904ZM136.37 27.6259L136.084 27.63L136.029 27.9107L136.315 27.9067L136.37 27.6259ZM136.858 25.1611L136.913 24.8804L136.627 24.8844L136.572 25.1652L136.858 25.1611ZM139.37 25.1255L139.314 25.4063L139.6 25.4022L139.656 25.1215L139.37 25.1255ZM139.858 22.6607L139.913 22.38L139.627 22.3841L139.571 22.6648L139.858 22.6607ZM149.907 22.5185L150.193 22.5144L150.249 22.2336L149.963 22.2378L149.907 22.5185ZM149.419 24.9832L149.363 25.264L149.65 25.2599L149.705 24.9792L149.419 24.9832ZM141.883 25.09L141.938 24.8092L141.651 24.8133L141.596 25.094L141.883 25.09ZM141.395 27.5548L141.109 27.5588L141.053 27.8396L141.339 27.8355L141.395 27.5548ZM148.932 27.4481L149.218 27.444L149.273 27.1633L148.987 27.1673L148.932 27.4481ZM148.444 29.9128L148.158 29.9169L148.102 30.1977L148.388 30.1936L148.444 29.9128ZM150.957 29.8773L151.243 29.8732L151.298 29.5925L151.012 29.5965L150.957 29.8773ZM150.469 32.3421L150.413 32.6228L150.7 32.6188L150.755 32.338L150.469 32.3421ZM147.956 32.3776L148.012 32.0969L147.726 32.1009L147.67 32.3817L147.956 32.3776ZM147.469 34.8425L147.414 35.1232L147.7 35.1191L147.755 34.8384L147.469 34.8425ZM144.957 34.878L145.013 34.5972L142.5 34.6328L142.444 34.9136L142.389 35.1944L144.901 35.1588L144.957 34.878ZM142.444 34.9136L142.5 34.6328L139.988 34.6684L139.932 34.9491L139.877 35.2299L142.389 35.1944L142.444 34.9136ZM139.932 34.9491L139.988 34.6684L137.475 34.704L137.42 34.9847L137.365 35.2654L139.877 35.2299L139.932 34.9491ZM137.42 34.9847L137.475 34.704L134.963 34.7396L134.908 35.0203L134.852 35.301L137.365 35.2654L137.42 34.9847ZM134.908 35.0203L135.194 35.0163L135.681 32.5514L135.395 32.5555L135.109 32.5596L134.622 35.0243L134.908 35.0203ZM135.395 32.5555L135.34 32.8363L137.852 32.8007L137.907 32.52L137.963 32.2391L135.451 32.2747L135.395 32.5555ZM137.907 32.52L137.852 32.8007L140.364 32.7651L140.42 32.4844L140.476 32.2036L137.963 32.2391L137.907 32.52ZM140.42 32.4844L140.364 32.7651L142.877 32.7295L142.932 32.4488L142.987 32.1681L140.476 32.2036L140.42 32.4844ZM142.932 32.4488L142.877 32.7295L145.389 32.694L145.444 32.4132L145.5 32.1325L142.987 32.1681L142.932 32.4488ZM145.444 32.4132L145.731 32.4092L146.218 29.9444L145.932 29.9484L145.646 29.9525L145.158 32.4173L145.444 32.4132ZM145.932 29.9484L145.988 29.6677L143.475 29.7032L143.419 29.984L143.364 30.2647L145.876 30.2292L145.932 29.9484ZM143.419 29.984L143.475 29.7032L140.963 29.7388L140.907 30.0196L140.852 30.3003L143.364 30.2647L143.419 29.984ZM140.907 30.0196L140.963 29.7388L138.45 29.7744L138.395 30.0551L138.339 30.3359L140.852 30.3003L140.907 30.0196ZM138.395 30.0551L138.681 30.0511L139.168 27.5863L138.882 27.5904L138.596 27.5944L138.109 30.0592L138.395 30.0551ZM138.882 27.5904L138.938 27.3096L136.426 27.3451L136.37 27.6259L136.315 27.9067L138.827 27.8711L138.882 27.5904ZM136.37 27.6259L136.657 27.6218L137.144 25.1571L136.858 25.1611L136.572 25.1652L136.084 27.63L136.37 27.6259ZM136.858 25.1611L136.802 25.4419L139.314 25.4063L139.37 25.1255L139.426 24.8448L136.913 24.8804L136.858 25.1611ZM139.37 25.1255L139.656 25.1215L140.144 22.6567L139.858 22.6607L139.571 22.6648L139.084 25.1296L139.37 25.1255ZM139.858 22.6607L139.802 22.9415L142.315 22.9059L142.37 22.6252L142.425 22.3444L139.913 22.38L139.858 22.6607ZM142.37 22.6252L142.315 22.9059L144.826 22.8704L144.882 22.5896L144.938 22.3089L142.425 22.3444L142.37 22.6252ZM144.882 22.5896L144.826 22.8704L147.339 22.8348L147.394 22.5541L147.45 22.2733L144.938 22.3089L144.882 22.5896ZM147.394 22.5541L147.339 22.8348L149.851 22.7992L149.907 22.5185L149.963 22.2378L147.45 22.2733L147.394 22.5541ZM149.907 22.5185L149.621 22.5225L149.133 24.9873L149.419 24.9832L149.705 24.9792L150.193 22.5144L149.907 22.5185ZM149.419 24.9832L149.475 24.7025L146.962 24.7381L146.907 25.0188L146.852 25.2996L149.363 25.264L149.419 24.9832ZM146.907 25.0188L146.962 24.7381L144.45 24.7737L144.395 25.0544L144.339 25.3351L146.852 25.2996L146.907 25.0188ZM144.395 25.0544L144.45 24.7737L141.938 24.8092L141.883 25.09L141.827 25.3707L144.339 25.3351L144.395 25.0544ZM141.883 25.09L141.596 25.094L141.109 27.5588L141.395 27.5548L141.681 27.5507L142.169 25.0859L141.883 25.09ZM141.395 27.5548L141.339 27.8355L143.851 27.8L143.907 27.5192L143.963 27.2385L141.45 27.274L141.395 27.5548ZM143.907 27.5192L143.851 27.8L146.364 27.7644L146.42 27.4836L146.475 27.2029L143.963 27.2385L143.907 27.5192ZM146.42 27.4836L146.364 27.7644L148.876 27.7288L148.932 27.4481L148.987 27.1673L146.475 27.2029L146.42 27.4836ZM148.932 27.4481L148.645 27.4521L148.158 29.9169L148.444 29.9128L148.73 29.9088L149.218 27.444L148.932 27.4481ZM148.444 29.9128L148.388 30.1936L150.901 30.158L150.957 29.8773L151.012 29.5965L148.5 29.6321L148.444 29.9128ZM150.957 29.8773L150.671 29.8813L150.183 32.3461L150.469 32.3421L150.755 32.338L151.243 29.8732L150.957 29.8773ZM150.469 32.3421L150.525 32.0613L148.012 32.0969L147.956 32.3776L147.901 32.6584L150.413 32.6228L150.469 32.3421ZM147.956 32.3776L147.67 32.3817L147.183 34.8465L147.469 34.8425L147.755 34.8384L148.242 32.3736L147.956 32.3776ZM147.469 34.8425L147.524 34.5617L145.013 34.5972L144.957 34.878L144.901 35.1588L147.414 35.1232L147.469 34.8425Z" fill="white"/>
</g>
<g filter="url(#filter1_d_186_431)">
<path d="M128.609 32.4015L131.041 32.3671L130.653 34.7684L128.221 34.8028L125.788 34.8373L123.356 34.8717L120.924 34.9061L121.312 32.5049L118.88 32.5393L119.268 30.1381L119.657 27.7368L120.045 25.3356L122.478 25.3011L122.866 22.8998L125.298 22.8654L127.731 22.831L130.162 22.7965L132.595 22.7621L132.207 25.1633L134.639 25.1289L134.251 27.5301L131.818 27.5646L131.429 29.9658L128.998 30.0003L126.565 30.0347L124.133 30.0692L123.745 32.4704L126.177 32.436L128.609 32.4015ZM126.954 27.6335L129.386 27.599L129.774 25.1978L127.342 25.2322L124.91 25.2667L124.521 27.6679L126.954 27.6335Z" fill="url(#paint1_linear_186_431)"/>
<path d="M131.041 32.3671L131.327 32.3631L131.373 32.0805L131.087 32.0846L131.041 32.3671ZM130.652 34.7683L130.607 35.0509L130.893 35.0469L130.939 34.7643L130.652 34.7683ZM120.924 34.9061L120.638 34.9102L120.592 35.1927L120.878 35.1887L120.924 34.9061ZM121.312 32.5049L121.598 32.5009L121.644 32.2183L121.358 32.2223L121.312 32.5049ZM118.88 32.5393L118.594 32.5433L118.548 32.8259L118.834 32.8218L118.88 32.5393ZM120.045 25.3355L120.091 25.053L119.805 25.0571L119.759 25.3396L120.045 25.3355ZM122.478 25.3011L122.432 25.5835L122.718 25.5795L122.764 25.297L122.478 25.3011ZM122.866 22.8998L122.912 22.6173L122.626 22.6214L122.58 22.9039L122.866 22.8998ZM132.595 22.7621L132.881 22.758L132.927 22.4755L132.64 22.4796L132.595 22.7621ZM132.207 25.1633L131.92 25.1674L131.875 25.4499L132.161 25.4459L132.207 25.1633ZM134.639 25.1289L134.925 25.1249L134.971 24.8423L134.685 24.8464L134.639 25.1289ZM134.251 27.5301L134.204 27.8127L134.49 27.8086L134.537 27.5261L134.251 27.5301ZM131.818 27.5646L131.864 27.2821L131.577 27.2861L131.532 27.5686L131.818 27.5646ZM131.429 29.9658L131.384 30.2484L131.67 30.2443L131.716 29.9618L131.429 29.9658ZM124.133 30.0692L124.179 29.7866L123.893 29.7907L123.847 30.0732L124.133 30.0692ZM123.745 32.4704L123.458 32.4745L123.413 32.757L123.699 32.753L123.745 32.4704ZM129.386 27.599L129.34 27.8816L129.626 27.8775L129.672 27.595L129.386 27.599ZM129.774 25.1978L130.06 25.1937L130.106 24.9112L129.82 24.9153L129.774 25.1978ZM124.91 25.2667L124.956 24.9841L124.67 24.9882L124.623 25.2707L124.91 25.2667ZM124.521 27.6679L124.235 27.6719L124.19 27.9545L124.476 27.9504L124.521 27.6679ZM128.609 32.4015L128.563 32.6841L130.996 32.6496L131.041 32.3671L131.087 32.0846L128.655 32.119L128.609 32.4015ZM131.041 32.3671L130.755 32.3712L130.366 34.7725L130.652 34.7683L130.939 34.7643L131.327 32.3631L131.041 32.3671ZM130.652 34.7683L130.699 34.4859L128.266 34.5203L128.221 34.8028L128.175 35.0853L130.607 35.0509L130.652 34.7683ZM128.221 34.8028L128.266 34.5203L125.834 34.5547L125.788 34.8372L125.743 35.1198L128.175 35.0853L128.221 34.8028ZM125.788 34.8372L125.834 34.5547L123.402 34.5892L123.356 34.8717L123.31 35.1542L125.743 35.1198L125.788 34.8372ZM123.356 34.8717L123.402 34.5892L120.97 34.6236L120.924 34.9061L120.878 35.1887L123.31 35.1542L123.356 34.8717ZM120.924 34.9061L121.21 34.9021L121.598 32.5009L121.312 32.5049L121.026 32.5089L120.638 34.9102L120.924 34.9061ZM121.312 32.5049L121.358 32.2223L118.926 32.2568L118.88 32.5393L118.834 32.8218L121.267 32.7874L121.312 32.5049ZM118.88 32.5393L119.166 32.5353L119.554 30.134L119.268 30.1381L118.982 30.1421L118.594 32.5433L118.88 32.5393ZM119.268 30.1381L119.554 30.134L119.943 27.7327L119.657 27.7368L119.371 27.7408L118.982 30.1421L119.268 30.1381ZM119.657 27.7368L119.943 27.7327L120.331 25.3314L120.045 25.3355L119.759 25.3396L119.371 27.7408L119.657 27.7368ZM120.045 25.3355L120 25.618L122.432 25.5835L122.478 25.3011L122.523 25.0186L120.091 25.053L120.045 25.3355ZM122.478 25.3011L122.764 25.297L123.152 22.8957L122.866 22.8998L122.58 22.9039L122.192 25.3051L122.478 25.3011ZM122.866 22.8998L122.82 23.1823L125.253 23.1478L125.298 22.8653L125.344 22.5829L122.912 22.6173L122.866 22.8998ZM125.298 22.8653L125.253 23.1478L127.684 23.1134L127.731 22.8309L127.776 22.5484L125.344 22.5829L125.298 22.8653ZM127.731 22.8309L127.684 23.1134L130.117 23.079L130.162 22.7965L130.209 22.514L127.776 22.5484L127.731 22.8309ZM130.162 22.7965L130.117 23.079L132.549 23.0446L132.595 22.7621L132.64 22.4796L130.209 22.514L130.162 22.7965ZM132.595 22.7621L132.309 22.7661L131.92 25.1674L132.207 25.1633L132.493 25.1593L132.881 22.758L132.595 22.7621ZM132.207 25.1633L132.161 25.4459L134.593 25.4114L134.639 25.1289L134.685 24.8464L132.252 24.8808L132.207 25.1633ZM134.639 25.1289L134.353 25.1329L133.964 27.5342L134.251 27.5301L134.537 27.5261L134.925 25.1249L134.639 25.1289ZM134.251 27.5301L134.296 27.2476L131.864 27.2821L131.818 27.5646L131.773 27.8471L134.204 27.8127L134.251 27.5301ZM131.818 27.5646L131.532 27.5686L131.143 29.9699L131.429 29.9658L131.716 29.9618L132.104 27.5606L131.818 27.5646ZM131.429 29.9658L131.476 29.6833L129.043 29.7178L128.998 30.0003L128.951 30.2828L131.384 30.2484L131.429 29.9658ZM128.998 30.0003L129.043 29.7178L126.611 29.7522L126.565 30.0347L126.52 30.3173L128.951 30.2828L128.998 30.0003ZM126.565 30.0347L126.611 29.7522L124.179 29.7866L124.133 30.0692L124.087 30.3517L126.52 30.3173L126.565 30.0347ZM124.133 30.0692L123.847 30.0732L123.458 32.4745L123.745 32.4704L124.031 32.4664L124.419 30.0651L124.133 30.0692ZM123.745 32.4704L123.699 32.753L126.131 32.7185L126.177 32.436L126.223 32.1535L123.79 32.1879L123.745 32.4704ZM126.177 32.436L126.131 32.7185L128.563 32.6841L128.609 32.4015L128.655 32.119L126.223 32.1535L126.177 32.436ZM126.954 27.6335L126.908 27.916L129.34 27.8816L129.386 27.599L129.432 27.3165L126.999 27.351L126.954 27.6335ZM129.386 27.599L129.672 27.595L130.06 25.1937L129.774 25.1978L129.488 25.2018L129.1 27.6031L129.386 27.599ZM129.774 25.1978L129.82 24.9153L127.387 24.9497L127.342 25.2322L127.296 25.5147L129.729 25.4803L129.774 25.1978ZM127.342 25.2322L127.387 24.9497L124.956 24.9841L124.91 25.2667L124.864 25.5491L127.296 25.5147L127.342 25.2322ZM124.91 25.2667L124.623 25.2707L124.235 27.6719L124.521 27.6679L124.807 27.6638L125.196 25.2625L124.91 25.2667ZM124.521 27.6679L124.476 27.9504L126.908 27.916L126.954 27.6335L126.999 27.351L124.567 27.3854L124.521 27.6679Z" fill="white"/>
</g>
<g filter="url(#filter2_d_186_431)">
<path d="M112.622 34.9075L109.651 34.9091L110.318 32.0139L107.347 32.0155L108.014 29.1203L108.681 26.2251L109.348 23.33L106.376 23.3315L107.043 20.4364L110.014 20.4348L110.681 17.5397L113.652 17.538L116.623 17.5365L115.956 20.4316L118.927 20.4301L118.261 23.3252L115.29 23.3268L114.623 26.222L113.956 29.1172L113.289 32.0124L116.26 32.0108L115.593 34.906L112.622 34.9075Z" fill="url(#paint2_linear_186_431)"/>
<path d="M109.651 34.9092L109.365 34.9094L109.301 35.1883L109.587 35.1881L109.651 34.9092ZM110.318 32.014L110.604 32.0139L110.668 31.735L110.382 31.7351L110.318 32.014ZM107.347 32.0156L107.061 32.0158L106.997 32.2947L107.283 32.2945L107.347 32.0156ZM109.348 23.3301L109.634 23.33L109.698 23.0511L109.412 23.0512L109.348 23.3301ZM106.376 23.3316L106.09 23.3318L106.026 23.6107L106.312 23.6105L106.376 23.3316ZM107.043 20.4365L107.108 20.1576L106.821 20.1578L106.757 20.4367L107.043 20.4365ZM110.014 20.4349L109.95 20.7138L110.236 20.7137L110.301 20.4348L110.014 20.4349ZM110.681 17.5398L110.745 17.2609L110.459 17.261L110.395 17.5399L110.681 17.5398ZM116.623 17.5366L116.909 17.5365L116.973 17.2576L116.687 17.2577L116.623 17.5366ZM115.956 20.4317L115.67 20.4319L115.606 20.7108L115.892 20.7106L115.956 20.4317ZM118.927 20.4302L119.213 20.4301L119.277 20.1512L118.991 20.1513L118.927 20.4302ZM118.261 23.3253L118.196 23.6042L118.482 23.6041L118.547 23.3252L118.261 23.3253ZM115.29 23.327L115.353 23.0481L115.067 23.0482L115.004 23.3271L115.29 23.327ZM113.289 32.0125L113.003 32.0126L112.939 32.2915L113.225 32.2913L113.289 32.0125ZM116.26 32.0109L116.546 32.0107L116.611 31.7318L116.324 31.732L116.26 32.0109ZM115.593 34.9061L115.529 35.1849L115.815 35.1848L115.879 34.9059L115.593 34.9061ZM112.622 34.9076L112.686 34.6287L109.715 34.6303L109.651 34.9092L109.587 35.1881L112.558 35.1865L112.622 34.9076ZM109.651 34.9092L109.938 34.9091L110.604 32.0139L110.318 32.014L110.032 32.0142L109.365 34.9094L109.651 34.9092ZM110.318 32.014L110.382 31.7351L107.411 31.7368L107.347 32.0156L107.283 32.2945L110.254 32.2929L110.318 32.014ZM107.347 32.0156L107.633 32.0155L108.3 29.1203L108.014 29.1204L107.727 29.1206L107.061 32.0158L107.347 32.0156ZM108.014 29.1204L108.3 29.1203L108.967 26.2251L108.681 26.2252L108.394 26.2255L107.727 29.1206L108.014 29.1204ZM108.681 26.2252L108.967 26.2251L109.634 23.33L109.348 23.3301L109.061 23.3303L108.394 26.2255L108.681 26.2252ZM109.348 23.3301L109.412 23.0512L106.441 23.0528L106.376 23.3316L106.312 23.6105L109.283 23.609L109.348 23.3301ZM106.376 23.3316L106.663 23.3315L107.33 20.4364L107.043 20.4365L106.757 20.4367L106.09 23.3318L106.376 23.3316ZM107.043 20.4365L106.979 20.7154L109.95 20.7138L110.014 20.4349L110.078 20.1561L107.108 20.1576L107.043 20.4365ZM110.014 20.4349L110.301 20.4348L110.967 17.5396L110.681 17.5398L110.395 17.5399L109.728 20.435L110.014 20.4349ZM110.681 17.5398L110.617 17.8187L113.588 17.8171L113.652 17.5382L113.716 17.2593L110.745 17.2609L110.681 17.5398ZM113.652 17.5382L113.588 17.8171L116.559 17.8154L116.623 17.5366L116.687 17.2577L113.716 17.2593L113.652 17.5382ZM116.623 17.5366L116.336 17.5368L115.67 20.4319L115.956 20.4317L116.243 20.4316L116.909 17.5365L116.623 17.5366ZM115.956 20.4317L115.892 20.7106L118.863 20.7091L118.927 20.4302L118.991 20.1513L116.02 20.1528L115.956 20.4317ZM118.927 20.4302L118.641 20.4304L117.974 23.3255L118.261 23.3253L118.547 23.3252L119.213 20.4301L118.927 20.4302ZM118.261 23.3253L118.324 23.0465L115.353 23.0481L115.29 23.327L115.225 23.6059L118.196 23.6042L118.261 23.3253ZM115.29 23.327L115.004 23.3271L114.337 26.2223L114.623 26.2221L114.909 26.2219L115.576 23.3268L115.29 23.327ZM114.623 26.2221L114.337 26.2223L113.67 29.1174L113.956 29.1173L114.242 29.1171L114.909 26.2219L114.623 26.2221ZM113.956 29.1173L113.67 29.1174L113.003 32.0126L113.289 32.0125L113.575 32.0123L114.242 29.1171L113.956 29.1173ZM113.289 32.0125L113.225 32.2913L116.196 32.2898L116.26 32.0109L116.324 31.732L113.353 31.7336L113.289 32.0125ZM116.26 32.0109L115.974 32.011L115.307 34.9062L115.593 34.9061L115.879 34.9059L116.546 32.0107L116.26 32.0109ZM115.593 34.9061L115.657 34.6272L112.686 34.6287L112.622 34.9076L112.558 35.1865L115.529 35.1849L115.593 34.9061Z" fill="white"/>
</g>
<g filter="url(#filter3_d_186_431)">
<path d="M97.5397 35.0663L95.3456 35.0973L93.1516 35.1284L90.9582 35.1595L91.4211 33.0148L93.6152 32.9838L95.8092 32.9527L98.0026 32.9217L98.4662 30.7771L96.2721 30.8082L94.0788 30.8392L91.8847 30.8702L92.3476 28.7256L90.1542 28.7567L90.6171 26.6121L91.0807 24.4674L91.5436 22.3228L93.7377 22.2918L95.9317 22.2607L95.4681 24.4053L95.0053 26.5499L94.5416 28.6946L96.7357 28.6635L98.9291 28.6324L99.3927 26.4878L99.8555 24.3432L100.319 22.1985L102.513 22.1675L104.707 22.1365L104.244 24.281L103.78 26.4257L103.317 28.5703L102.854 30.7149L102.391 32.8596L100.197 32.8907L99.7338 35.0353L97.5397 35.0663Z" fill="url(#paint3_linear_186_431)"/>
<path d="M90.9582 35.1595L90.6721 35.1635L90.6112 35.4433L90.8973 35.4392L90.9582 35.1595ZM91.4211 33.0148L91.482 32.7351L91.1959 32.7392L91.135 33.0189L91.4211 33.0148ZM98.0026 32.9217L97.9424 33.2014L98.2285 33.1974L98.2894 32.9176L98.0026 32.9217ZM98.4662 30.7771L98.7522 30.773L98.8124 30.4932L98.5263 30.4973L98.4662 30.7771ZM91.8847 30.8702L91.5986 30.8743L91.5377 31.154L91.8238 31.15L91.8847 30.8702ZM92.3476 28.7256L92.6337 28.7215L92.6945 28.4418L92.4084 28.4459L92.3476 28.7256ZM90.1542 28.7567L89.8674 28.7607L89.8073 29.0405L90.0933 29.0364L90.1542 28.7567ZM91.5436 22.3228L91.6037 22.0431L91.3176 22.0471L91.2575 22.3268L91.5436 22.3228ZM95.9317 22.2607L96.2178 22.2566L96.278 21.9769L95.9919 21.981L95.9317 22.2607ZM94.5416 28.6946L94.2555 28.6986L94.1954 28.9784L94.4815 28.9743L94.5416 28.6946ZM98.929 28.6324L98.8689 28.9122L99.155 28.9081L99.2159 28.6284L98.929 28.6324ZM100.319 22.1985L100.379 21.9188L100.093 21.9229L100.033 22.2026L100.319 22.1985ZM104.707 22.1365L104.993 22.1324L105.054 21.8527L104.767 21.8567L104.707 22.1365ZM102.391 32.8595L102.331 33.1393L102.617 33.1352L102.677 32.8555L102.391 32.8595ZM100.197 32.8906L100.258 32.6109L99.9707 32.6149L99.9105 32.8947L100.197 32.8906ZM99.7338 35.0352L99.6729 35.315L99.959 35.311L100.02 35.0312L99.7338 35.0352ZM97.5397 35.0663L97.5998 34.7866L95.4065 34.8176L95.3456 35.0973L95.2855 35.3771L97.4795 35.346L97.5397 35.0663ZM95.3456 35.0973L95.4065 34.8176L93.2124 34.8487L93.1515 35.1284L93.0914 35.4081L95.2855 35.3771L95.3456 35.0973ZM93.1515 35.1284L93.2124 34.8487L91.0184 34.8798L90.9582 35.1595L90.8973 35.4392L93.0914 35.4081L93.1515 35.1284ZM90.9582 35.1595L91.2443 35.1554L91.7072 33.0108L91.4211 33.0148L91.135 33.0189L90.6721 35.1635L90.9582 35.1595ZM91.4211 33.0148L91.3609 33.2946L93.555 33.2635L93.6152 32.9838L93.6753 32.704L91.482 32.7351L91.4211 33.0148ZM93.6152 32.9838L93.555 33.2635L95.7483 33.2325L95.8092 32.9527L95.8694 32.673L93.6753 32.704L93.6152 32.9838ZM95.8092 32.9527L95.7483 33.2325L97.9424 33.2014L98.0026 32.9217L98.0634 32.642L95.8694 32.673L95.8092 32.9527ZM98.0026 32.9217L98.2894 32.9176L98.7522 30.773L98.4662 30.7771L98.1801 30.7811L97.7165 32.9257L98.0026 32.9217ZM98.4662 30.7771L98.5263 30.4973L96.333 30.5284L96.2721 30.8082L96.2119 31.0879L98.406 31.0568L98.4662 30.7771ZM96.2721 30.8082L96.333 30.5284L94.1389 30.5595L94.0788 30.8392L94.0179 31.1189L96.2119 31.0879L96.2721 30.8082ZM94.0788 30.8392L94.1389 30.5595L91.9448 30.5905L91.8847 30.8702L91.8238 31.15L94.0179 31.1189L94.0788 30.8392ZM91.8847 30.8702L92.1708 30.8662L92.6337 28.7215L92.3476 28.7256L92.0615 28.7297L91.5986 30.8743L91.8847 30.8702ZM92.3476 28.7256L92.4084 28.4459L90.2144 28.477L90.1542 28.7567L90.0933 29.0364L92.2874 29.0054L92.3476 28.7256ZM90.1542 28.7567L90.4403 28.7527L90.9032 26.608L90.6171 26.6121L90.331 26.6161L89.8674 28.7607L90.1542 28.7567ZM90.6171 26.6121L90.9032 26.608L91.3668 24.4634L91.0807 24.4674L90.7939 24.4715L90.331 26.6161L90.6171 26.6121ZM91.0807 24.4674L91.3668 24.4634L91.8297 22.3188L91.5436 22.3228L91.2575 22.3268L90.7939 24.4715L91.0807 24.4674ZM91.5436 22.3228L91.4834 22.6026L93.6768 22.5715L93.7376 22.2918L93.7978 22.012L91.6037 22.0431L91.5436 22.3228ZM93.7376 22.2918L93.6768 22.5715L95.8708 22.5404L95.9317 22.2607L95.9919 21.981L93.7978 22.012L93.7376 22.2918ZM95.9317 22.2607L95.6449 22.2648L95.182 24.4093L95.4681 24.4053L95.7542 24.4013L96.2178 22.2566L95.9317 22.2607ZM95.4681 24.4053L95.182 24.4093L94.7184 26.554L95.0052 26.5499L95.2913 26.5459L95.7542 24.4013L95.4681 24.4053ZM95.0052 26.5499L94.7184 26.554L94.2555 28.6986L94.5416 28.6946L94.8277 28.6905L95.2913 26.5459L95.0052 26.5499ZM94.5416 28.6946L94.4815 28.9743L96.6748 28.9432L96.7357 28.6635L96.7959 28.3837L94.6018 28.4148L94.5416 28.6946ZM96.7357 28.6635L96.6748 28.9432L98.8689 28.9122L98.929 28.6324L98.9899 28.3527L96.7959 28.3837L96.7357 28.6635ZM98.929 28.6324L99.2159 28.6284L99.6787 26.4838L99.3926 26.4878L99.1066 26.4918L98.643 28.6365L98.929 28.6324ZM99.3926 26.4878L99.6787 26.4838L100.142 24.3391L99.8555 24.3432L99.5694 24.3473L99.1066 26.4918L99.3926 26.4878ZM99.8555 24.3432L100.142 24.3391L100.605 22.1945L100.319 22.1985L100.033 22.2026L99.5694 24.3473L99.8555 24.3432ZM100.319 22.1985L100.259 22.4783L102.452 22.4472L102.513 22.1675L102.573 21.8878L100.379 21.9188L100.319 22.1985ZM102.513 22.1675L102.452 22.4472L104.646 22.4162L104.707 22.1365L104.767 21.8567L102.573 21.8878L102.513 22.1675ZM104.707 22.1365L104.42 22.1405L103.958 24.2851L104.244 24.281L104.53 24.277L104.993 22.1324L104.707 22.1365ZM104.244 24.281L103.958 24.2851L103.494 26.4298L103.78 26.4257L104.066 26.4216L104.53 24.277L104.244 24.281ZM103.78 26.4257L103.494 26.4298L103.031 28.5744L103.317 28.5703L103.603 28.5663L104.066 26.4216L103.78 26.4257ZM103.317 28.5703L103.031 28.5744L102.567 30.719L102.854 30.7149L103.14 30.7109L103.603 28.5663L103.317 28.5703ZM102.854 30.7149L102.567 30.719L102.105 32.8636L102.391 32.8595L102.677 32.8555L103.14 30.7109L102.854 30.7149ZM102.391 32.8595L102.451 32.5798L100.258 32.6109L100.197 32.8906L100.136 33.1704L102.331 33.1393L102.391 32.8595ZM100.197 32.8906L99.9105 32.8947L99.4477 35.0393L99.7338 35.0352L100.02 35.0312L100.483 32.8865L100.197 32.8906ZM99.7338 35.0352L99.7939 34.7555L97.5998 34.7866L97.5397 35.0663L97.4795 35.346L99.6729 35.315L99.7338 35.0352Z" fill="white"/>
</g>
<g filter="url(#filter4_d_186_431)">
<path d="M80.0942 34.5261L76.6186 34.5753L73.1434 34.6245L69.6681 34.6737L66.1927 34.7229L66.6276 31.2745L67.0626 27.8261L67.4975 24.3778L67.9325 20.9293L68.3675 17.4809L68.8024 14.0325L72.2778 13.9833L75.753 13.9341L79.2286 13.8849L82.7042 13.8357L86.1791 13.7865L85.7441 17.2349L89.2197 17.1857L88.7846 20.6341L85.3091 20.6833L84.8741 24.1317L88.3497 24.0825L87.9147 27.5309L87.4797 30.9793L84.0048 31.0285L83.5698 34.4769L80.0942 34.5261ZM77.0536 31.1269L80.5292 31.0777L80.9642 27.6293L81.3992 24.1809L77.9236 24.2301L74.448 24.2793L74.013 27.7277L73.5787 31.1761L77.0536 31.1269ZM78.3586 20.7817L81.8342 20.7325L82.2692 17.2841L78.7936 17.3333L75.318 17.3825L74.883 20.8309L78.3586 20.7817Z" fill="url(#paint4_linear_186_431)"/>
<path d="M66.1927 34.7228L65.9065 34.7269L65.8707 35.0108L66.1569 35.0068L66.1927 34.7228ZM68.8024 14.0324L68.8382 13.7485L68.552 13.7525L68.5162 14.0365L68.8024 14.0324ZM86.1791 13.7864L86.4651 13.7824L86.5011 13.4984L86.215 13.5024L86.1791 13.7864ZM85.7441 17.2348L85.458 17.2388L85.422 17.5228L85.7088 17.5187L85.7441 17.2348ZM89.2197 17.1856L89.5057 17.1815L89.5417 16.8976L89.2556 16.9017L89.2197 17.1856ZM88.7846 20.634L88.7487 20.9179L89.0348 20.9139L89.0707 20.6299L88.7846 20.634ZM85.309 20.6832L85.345 20.3993L85.0589 20.4033L85.023 20.6873L85.309 20.6832ZM84.8741 24.1316L84.588 24.1357L84.5528 24.4196L84.8388 24.4155L84.8741 24.1316ZM88.3497 24.0824L88.6357 24.0784L88.6717 23.7944L88.3856 23.7984L88.3497 24.0824ZM87.4797 30.9792L87.4437 31.2631L87.7305 31.2591L87.7657 30.9751L87.4797 30.9792ZM84.0048 31.0284L84.04 30.7445L83.7539 30.7485L83.7187 31.0324L84.0048 31.0284ZM83.5698 34.4768L83.5338 34.7607L83.8199 34.7567L83.8559 34.4727L83.5698 34.4768ZM80.5292 31.0776L80.4932 31.3616L80.7793 31.3575L80.8153 31.0736L80.5292 31.0776ZM81.3992 24.1808L81.6853 24.1767L81.7212 23.8929L81.4351 23.8969L81.3992 24.1808ZM74.448 24.2792L74.4839 23.9953L74.1979 23.9994L74.1619 24.2833L74.448 24.2792ZM73.5787 31.1761L73.2922 31.1801L73.2564 31.464L73.5428 31.4599L73.5787 31.1761ZM81.8342 20.7324L81.7982 21.0164L82.0843 21.0123L82.1203 20.7284L81.8342 20.7324ZM82.2692 17.284L82.5553 17.28L82.5912 16.996L82.3044 17.0001L82.2692 17.284ZM75.318 17.3824L75.3539 17.0985L75.0679 17.1025L75.0319 17.3865L75.318 17.3824ZM74.883 20.8308L74.5969 20.8349L74.561 21.1188L74.8478 21.1147L74.883 20.8308ZM80.0942 34.526L80.1301 34.2421L76.6545 34.2913L76.6186 34.5752L76.5826 34.8592L80.0582 34.81L80.0942 34.526ZM76.6186 34.5752L76.6545 34.2913L73.1792 34.3405L73.1434 34.6244L73.1076 34.9084L76.5826 34.8592L76.6186 34.5752ZM73.1434 34.6244L73.1792 34.3405L69.7039 34.3897L69.6681 34.6737L69.6323 34.9575L73.1076 34.9084L73.1434 34.6244ZM69.6681 34.6737L69.7039 34.3897L66.2285 34.4389L66.1927 34.7228L66.1569 35.0068L69.6323 34.9575L69.6681 34.6737ZM66.1927 34.7228L66.4788 34.7188L66.9138 31.2704L66.6276 31.2744L66.3415 31.2785L65.9065 34.7269L66.1927 34.7228ZM66.6276 31.2744L66.9138 31.2704L67.3488 27.822L67.0626 27.826L66.7765 27.8301L66.3415 31.2785L66.6276 31.2744ZM67.0626 27.826L67.3488 27.822L67.7837 24.3736L67.4975 24.3777L67.2114 24.3817L66.7765 27.8301L67.0626 27.826ZM67.4975 24.3777L67.7837 24.3736L68.2186 20.9252L67.9325 20.9292L67.6463 20.9333L67.2114 24.3817L67.4975 24.3777ZM67.9325 20.9292L68.2186 20.9252L68.6536 17.4768L68.3675 17.4808L68.0813 17.4849L67.6463 20.9333L67.9325 20.9292ZM68.3675 17.4808L68.6536 17.4768L69.0885 14.0284L68.8024 14.0324L68.5162 14.0365L68.0813 17.4849L68.3675 17.4808ZM68.8024 14.0324L68.7666 14.3163L72.242 14.2672L72.2778 13.9832L72.3136 13.6993L68.8382 13.7485L68.8024 14.0324ZM72.2778 13.9832L72.242 14.2672L75.717 14.218L75.753 13.934L75.7889 13.6501L72.3136 13.6993L72.2778 13.9832ZM75.753 13.934L75.717 14.218L79.1926 14.1687L79.2286 13.8848L79.2645 13.6009L75.7889 13.6501L75.753 13.934ZM79.2286 13.8848L79.1926 14.1687L82.6682 14.1195L82.7042 13.8356L82.7394 13.5517L79.2645 13.6009L79.2286 13.8848ZM82.7042 13.8356L82.6682 14.1195L86.1431 14.0704L86.1791 13.7864L86.215 13.5024L82.7394 13.5517L82.7042 13.8356ZM86.1791 13.7864L85.893 13.7904L85.458 17.2388L85.7441 17.2348L86.0301 17.2308L86.4651 13.7824L86.1791 13.7864ZM85.7441 17.2348L85.7088 17.5187L89.1837 17.4695L89.2197 17.1856L89.2556 16.9017L85.78 16.9508L85.7441 17.2348ZM89.2197 17.1856L88.9336 17.1897L88.4986 20.6381L88.7846 20.634L89.0707 20.6299L89.5057 17.1815L89.2197 17.1856ZM88.7846 20.634L88.8206 20.3501L85.345 20.3993L85.309 20.6832L85.2738 20.9671L88.7487 20.9179L88.7846 20.634ZM85.309 20.6832L85.023 20.6873L84.588 24.1357L84.8741 24.1316L85.1609 24.1275L85.5959 20.6791L85.309 20.6832ZM84.8741 24.1316L84.8388 24.4155L88.3137 24.3664L88.3497 24.0824L88.3856 23.7984L84.91 23.8477L84.8741 24.1316ZM88.3497 24.0824L88.0636 24.0864L87.6286 27.5348L87.9146 27.5308L88.2007 27.5268L88.6357 24.0784L88.3497 24.0824ZM87.9146 27.5308L87.6286 27.5348L87.1936 30.9833L87.4797 30.9792L87.7657 30.9751L88.2007 27.5268L87.9146 27.5308ZM87.4797 30.9792L87.5156 30.6953L84.04 30.7445L84.0048 31.0284L83.9688 31.3123L87.4437 31.2631L87.4797 30.9792ZM84.0048 31.0284L83.7187 31.0324L83.2837 34.4809L83.5698 34.4768L83.8559 34.4727L84.2909 31.0244L84.0048 31.0284ZM83.5698 34.4768L83.6057 34.1929L80.1301 34.2421L80.0942 34.526L80.0582 34.81L83.5338 34.7607L83.5698 34.4768ZM77.0536 31.1268L77.0177 31.4107L80.4932 31.3616L80.5292 31.0776L80.5651 30.7936L77.0895 30.8429L77.0536 31.1268ZM80.5292 31.0776L80.8153 31.0736L81.2503 27.6252L80.9642 27.6292L80.6781 27.6333L80.2431 31.0816L80.5292 31.0776ZM80.9642 27.6292L81.2503 27.6252L81.6853 24.1767L81.3992 24.1808L81.1131 24.1849L80.6781 27.6333L80.9642 27.6292ZM81.3992 24.1808L81.4351 23.8969L77.9595 23.9461L77.9236 24.23L77.8877 24.514L81.3632 24.4647L81.3992 24.1808ZM77.9236 24.23L77.9595 23.9461L74.4839 23.9953L74.448 24.2792L74.4128 24.5632L77.8877 24.514L77.9236 24.23ZM74.448 24.2792L74.1619 24.2833L73.7269 27.7317L74.013 27.7276L74.2998 27.7236L74.7341 24.2752L74.448 24.2792ZM74.013 27.7276L73.7269 27.7317L73.2922 31.1801L73.5787 31.1761L73.8648 31.1719L74.2998 27.7236L74.013 27.7276ZM73.5787 31.1761L73.5428 31.4599L77.0177 31.4107L77.0536 31.1268L77.0895 30.8429L73.6139 30.8921L73.5787 31.1761ZM78.3586 20.7816L78.3226 21.0656L81.7982 21.0164L81.8342 20.7324L81.8701 20.4485L78.3945 20.4977L78.3586 20.7816ZM81.8342 20.7324L82.1203 20.7284L82.5553 17.28L82.2692 17.284L81.9831 17.288L81.5481 20.7364L81.8342 20.7324ZM82.2692 17.284L82.3044 17.0001L78.8295 17.0493L78.7936 17.3332L78.7576 17.6171L82.2332 17.568L82.2692 17.284ZM78.7936 17.3332L78.8295 17.0493L75.3539 17.0985L75.318 17.3824L75.2821 17.6663L78.7576 17.6171L78.7936 17.3332ZM75.318 17.3824L75.0319 17.3865L74.5969 20.8349L74.883 20.8308L75.1691 20.8268L75.6041 17.3783L75.318 17.3824ZM74.883 20.8308L74.8478 21.1147L78.3226 21.0656L78.3586 20.7816L78.3945 20.4977L74.9189 20.5469L74.883 20.8308Z" fill="white"/>
</g>
<g filter="url(#filter5_d_186_431)">
<path d="M62.7801 26.382C62.6939 26.9714 62.5098 27.5037 62.2278 27.9789C61.9456 28.454 61.5846 28.8628 61.1448 29.2051C60.7049 29.5475 60.2141 29.8138 59.6724 30.0043C59.1307 30.1948 58.5482 30.3003 57.925 30.3209C57.1415 30.3468 56.3351 30.2268 55.5056 29.961C55.5441 30.5463 55.716 30.946 56.0214 31.1602C56.3471 31.3564 56.7503 31.4467 57.2311 31.4307C57.6763 31.416 58.1837 31.3388 58.7535 31.1992C59.341 31.0591 59.9286 30.9792 60.5161 30.9597C61.7982 30.9173 62.3493 31.5116 62.1694 32.7424C62.1009 33.2105 61.9397 33.6471 61.6855 34.0523C61.4492 34.457 61.0958 34.8137 60.6254 35.1225C60.1753 35.4134 59.6005 35.6481 58.9011 35.8265C58.1991 36.0223 57.3673 36.1361 56.4058 36.1679C55.2306 36.2068 54.185 36.0861 53.2691 35.8058C52.3735 35.5077 51.6305 35.0751 51.04 34.508C50.4495 33.941 50.0282 33.2476 49.7759 32.4279C49.5414 31.6075 49.4989 30.6859 49.6484 29.6631C49.955 27.5654 50.8101 25.8982 52.2135 24.6613C53.6373 23.4066 55.5067 22.7409 57.8214 22.6644C58.7651 22.6331 59.569 22.7101 60.2331 22.8951C60.8971 23.0801 61.4251 23.3473 61.817 23.6967C62.2293 24.028 62.5081 24.4242 62.6534 24.8853C62.8164 25.3457 62.8587 25.8446 62.7801 26.382ZM55.9088 27.748C56.2167 27.8241 56.5309 27.8568 56.8514 27.8462C57.2075 27.8344 57.5369 27.7632 57.8395 27.6324C58.16 27.501 58.3442 27.2706 58.3924 26.9412C58.4532 26.5252 58.2522 26.3248 57.7891 26.3401C57.4152 26.3525 57.0604 26.4764 56.7248 26.7118C56.3891 26.9472 56.1171 27.2925 55.9088 27.748Z" fill="url(#paint5_linear_186_431)"/>
<mask id="mask0_186_431" style="mask-type:luminance" maskUnits="userSpaceOnUse" x="49" y="22" width="14" height="15">
<path d="M62.7801 26.382C62.6939 26.9714 62.5098 27.5037 62.2278 27.9789C61.9456 28.454 61.5846 28.8628 61.1448 29.2051C60.7049 29.5475 60.2141 29.8138 59.6724 30.0043C59.1307 30.1948 58.5482 30.3003 57.925 30.3209C57.1415 30.3468 56.3351 30.2268 55.5056 29.961C55.5441 30.5463 55.716 30.946 56.0214 31.1602C56.3471 31.3564 56.7503 31.4467 57.2311 31.4307C57.6763 31.416 58.1837 31.3388 58.7535 31.1992C59.341 31.0591 59.9286 30.9792 60.5161 30.9597C61.7982 30.9173 62.3493 31.5116 62.1694 32.7424C62.1009 33.2105 61.9397 33.6471 61.6855 34.0523C61.4492 34.457 61.0958 34.8137 60.6254 35.1225C60.1753 35.4134 59.6005 35.6481 58.9011 35.8265C58.1991 36.0223 57.3673 36.1361 56.4058 36.1679C55.2306 36.2068 54.185 36.0861 53.2691 35.8058C52.3735 35.5077 51.6305 35.0751 51.04 34.508C50.4495 33.941 50.0282 33.2476 49.7759 32.4279C49.5414 31.6075 49.4989 30.6859 49.6484 29.6631C49.955 27.5654 50.8101 25.8982 52.2135 24.6613C53.6373 23.4066 55.5067 22.7409 57.8214 22.6644C58.7651 22.6331 59.569 22.7101 60.2331 22.8951C60.8971 23.0801 61.4251 23.3473 61.817 23.6967C62.2293 24.028 62.5081 24.4242 62.6534 24.8853C62.8164 25.3457 62.8587 25.8446 62.7801 26.382ZM55.9088 27.748C56.2167 27.8241 56.5309 27.8568 56.8514 27.8462C57.2075 27.8344 57.5369 27.7632 57.8395 27.6324C58.16 27.501 58.3442 27.2706 58.3924 26.9412C58.4532 26.5252 58.2522 26.3248 57.7891 26.3401C57.4152 26.3525 57.0604 26.4764 56.7248 26.7118C56.3891 26.9472 56.1171 27.2925 55.9088 27.748Z" fill="white"/>
</mask>
<g mask="url(#mask0_186_431)">
<path d="M55.5057 29.961L55.885 29.1972L54.5883 28.7815L54.6781 30.1487L55.5057 29.961ZM56.0214 31.1602L55.4616 31.8351L55.4798 31.8479L55.499 31.8595L56.0214 31.1602ZM58.7535 31.1993L58.6922 30.4244L58.6894 30.4251L58.6867 30.4257L58.7535 31.1993ZM61.6855 34.0524L60.9955 33.7321L60.9872 33.7453L60.9794 33.7586L61.6855 34.0524ZM60.6254 35.1225L60.9982 35.7631L61.0013 35.761L61.0045 35.759L60.6254 35.1225ZM58.9011 35.8265L58.8256 35.0553L58.8153 35.0578L58.8051 35.0607L58.9011 35.8265ZM53.2691 35.8059L52.8822 36.5673L52.8904 36.57L52.8987 36.5726L53.2691 35.8059ZM49.7759 32.4279L48.9733 32.7603L48.9752 32.7667L48.9771 32.773L49.7759 32.4279ZM61.817 23.6967L61.1997 24.326L61.2116 24.3366L61.224 24.3467L61.817 23.6967ZM62.6534 24.8853L61.8558 25.2347L61.8594 25.2456L61.8632 25.2564L62.6534 24.8853ZM55.9088 27.748L55.1587 27.5389L54.7959 28.3323L55.5767 28.5252L55.9088 27.748ZM57.8395 27.6324L57.635 26.9038L57.6262 26.9074L57.6176 26.9112L57.8395 27.6324ZM62.7801 26.3821L61.9593 26.4092C61.8871 26.9036 61.7371 27.3223 61.5252 27.6792L62.2278 27.9789L62.9304 28.2787C63.2826 27.6853 63.5008 27.0394 63.6009 26.3549L62.7801 26.3821ZM62.2278 27.9789L61.5252 27.6792C61.3068 28.0469 61.0321 28.3571 60.6967 28.6181L61.1448 29.2052L61.5929 29.7921C62.1372 29.3685 62.5845 28.8611 62.9304 28.2787L62.2278 27.9789ZM61.1448 29.2052L60.6967 28.6181C60.3504 28.8877 59.9592 29.1016 59.5152 29.2577L59.6724 30.0043L59.8295 30.7509C60.4689 30.5261 61.0594 30.2073 61.5929 29.7921L61.1448 29.2052ZM59.6724 30.0043L59.5152 29.2577C59.0756 29.4123 58.5866 29.5038 58.0418 29.5218L57.925 30.3209L57.8081 31.12C58.5098 31.0968 59.1858 30.9772 59.8295 30.7509L59.6724 30.0043ZM57.925 30.3209L58.0418 29.5218C57.3646 29.5442 56.6466 29.4412 55.885 29.1972L55.5057 29.961L55.1263 30.7249C56.0235 31.0125 56.9184 31.1494 57.8081 31.12L57.925 30.3209ZM55.5057 29.961L54.6781 30.1487C54.7233 30.8351 54.9333 31.4646 55.4616 31.8351L56.0214 31.1602L56.5813 30.4854C56.4987 30.4275 56.3649 30.2575 56.3331 29.7733L55.5057 29.961ZM56.0214 31.1602L55.499 31.8595C55.9587 32.1364 56.5086 32.2499 57.1143 32.2298L57.2311 31.4308L57.348 30.6316C56.9921 30.6434 56.7355 30.5765 56.5439 30.461L56.0214 31.1602ZM57.2311 31.4308L57.1143 32.2298C57.6341 32.2127 58.205 32.1235 58.8203 31.9727L58.7535 31.1993L58.6867 30.4257C58.1625 30.5542 57.7185 30.6194 57.348 30.6316L57.2311 31.4308ZM58.7535 31.1993L58.8147 31.9741C59.3424 31.8482 59.8703 31.7764 60.3994 31.7589L60.5161 30.9598L60.633 30.1607C59.9868 30.182 59.3396 30.2699 58.6922 30.4244L58.7535 31.1993ZM60.5161 30.9598L60.3994 31.7589C60.9167 31.7418 61.1353 31.8579 61.2315 31.9617C61.3259 32.0635 61.4201 32.2802 61.3486 32.7696L62.1694 32.7424L62.9901 32.7153C63.0985 31.9738 63.0072 31.278 62.5504 30.7856C62.0956 30.2951 61.3977 30.1354 60.633 30.1607L60.5161 30.9598ZM62.1694 32.7424L61.3486 32.7696C61.2966 33.1256 61.177 33.4427 60.9955 33.7321L61.6855 34.0524L62.3756 34.3726C62.7024 33.8517 62.9053 33.2955 62.9901 32.7153L62.1694 32.7424ZM61.6855 34.0524L60.9794 33.7586C60.8352 34.0056 60.6056 34.2503 60.2463 34.4862L60.6254 35.1225L61.0045 35.759C61.586 35.3772 62.0632 34.9084 62.3916 34.3461L61.6855 34.0524ZM60.6254 35.1225L60.2525 34.4821C59.9242 34.6944 59.4593 34.8936 58.8256 35.0553L58.9011 35.8265L58.9766 36.5979C59.7417 36.4027 60.4264 36.1327 60.9982 35.7631L60.6254 35.1225ZM58.9011 35.8265L58.8051 35.0607C58.1947 35.2309 57.4379 35.3385 56.5226 35.3688L56.4058 36.1679L56.289 36.967C57.2968 36.9337 58.2035 36.8138 58.997 36.5924L58.9011 35.8265ZM56.4058 36.1679L56.5226 35.3688C55.4219 35.4053 54.4641 35.2915 53.6395 35.0392L53.2691 35.8059L52.8987 36.5726C53.906 36.8807 55.0393 37.0084 56.289 36.967L56.4058 36.1679ZM53.2691 35.8059L53.6561 35.0445C52.8452 34.7745 52.1892 34.3888 51.6744 33.8944L51.04 34.508L50.4057 35.1217C51.0719 35.7614 51.9019 36.2409 52.8822 36.5673L53.2691 35.8059ZM51.04 34.508L51.6744 33.8944C51.1625 33.4029 50.796 32.802 50.5747 32.0827L49.7759 32.4279L48.9771 32.773C49.2603 33.6933 49.7366 34.4791 50.4057 35.1217L51.04 34.508ZM49.7759 32.4279L50.5784 32.0954C50.3749 31.3832 50.333 30.5674 50.4692 29.636L49.6484 29.6631L48.8276 29.6903C48.6648 30.8045 48.7079 31.8319 48.9733 32.7603L49.7759 32.4279ZM49.6484 29.6631L50.4692 29.636C50.7527 27.6964 51.5238 26.2537 52.7113 25.2072L52.2135 24.6613L51.7157 24.1155C50.0963 25.5427 49.1574 27.4346 48.8276 29.6903L49.6484 29.6631ZM52.2135 24.6613L52.7113 25.2072C53.9094 24.1515 55.5367 23.5352 57.7046 23.4635L57.8214 22.6644L57.9383 21.8652C55.4766 21.9467 53.3654 22.6618 51.7157 24.1155L52.2135 24.6613ZM57.8214 22.6644L57.7046 23.4635C58.5896 23.4342 59.3093 23.5078 59.8801 23.6669L60.2331 22.8951L60.5861 22.1234C59.8288 21.9123 58.9408 21.8321 57.9383 21.8652L57.8214 22.6644ZM60.2331 22.8951L59.8801 23.6669C60.4679 23.8307 60.8978 24.057 61.1997 24.326L61.817 23.6967L62.4344 23.0673C61.9524 22.6378 61.3263 22.3297 60.5861 22.1234L60.2331 22.8951ZM61.817 23.6967L61.224 24.3467C61.5507 24.6092 61.7523 24.9061 61.8558 25.2347L62.6534 24.8853L63.4508 24.5359C63.2638 23.9425 62.908 23.4469 62.41 23.0467L61.817 23.6967ZM62.6534 24.8853L61.8632 25.2564C61.9872 25.6068 62.021 25.9875 61.9593 26.4092L62.7801 26.3821L63.6009 26.3549C63.6963 25.7017 63.6456 25.0847 63.4436 24.5142L62.6534 24.8853ZM55.9088 27.748L55.5767 28.5252C55.9506 28.6176 56.3371 28.6585 56.7346 28.6453L56.8514 27.8462L56.9681 27.0471C56.7247 27.0552 56.4828 27.0305 56.241 26.9708L55.9088 27.748ZM56.8514 27.8462L56.7346 28.6453C57.1876 28.6303 57.6338 28.5384 58.0615 28.3536L57.8395 27.6324L57.6176 26.9112C57.44 26.9879 57.2275 27.0385 56.9681 27.0471L56.8514 27.8462ZM57.8395 27.6324L58.044 28.361C58.336 28.2413 58.6195 28.0527 58.8411 27.7757C59.0612 27.5006 59.1715 27.1992 59.2132 26.9141L58.3924 26.9412L57.5716 26.9684C57.5683 26.9915 57.5647 26.9975 57.5675 26.9908C57.5707 26.9831 57.579 26.9666 57.595 26.9465C57.6112 26.9263 57.6278 26.9118 57.6397 26.9032C57.6506 26.8955 57.6512 26.8972 57.635 26.9038L57.8395 27.6324ZM58.3924 26.9412L59.2132 26.9141C59.2641 26.5657 59.2231 26.1657 58.9297 25.8733C58.6472 25.5917 58.2484 25.5297 57.906 25.541L57.7891 26.3402L57.6724 27.1392C57.7929 27.1353 57.7261 27.1657 57.6446 27.0845C57.6041 27.0442 57.5846 26.9987 57.5772 26.9666C57.571 26.939 57.5766 26.9344 57.5716 26.9684L58.3924 26.9412ZM57.7891 26.3402L57.906 25.541C57.3481 25.5595 56.8101 25.7491 56.319 26.0935L56.7248 26.7118L57.1306 27.33C57.3108 27.2037 57.4824 27.1455 57.6724 27.1392L57.7891 26.3402ZM56.7248 26.7118L56.319 26.0935C55.7966 26.4599 55.4206 26.9666 55.1587 27.5389L55.9088 27.748L56.6589 27.9571C56.8138 27.6185 56.9818 27.4344 57.1306 27.33L56.7248 26.7118Z" fill="white"/>
</g>
</g>
<g filter="url(#filter6_d_186_431)">
<path d="M39.6439 22.2351C40.7741 22.2351 41.8027 22.4049 42.7294 22.7444C43.6724 23.0662 44.4845 23.5308 45.1656 24.1384C45.8646 24.7461 46.422 25.4788 46.8379 26.3366C47.2718 27.1945 47.5348 28.1507 47.6271 29.2051C47.7193 30.2595 47.6236 31.2156 47.3398 32.0735C47.074 32.9313 46.6448 33.6641 46.0521 34.2717C45.4773 34.8794 44.7474 35.353 43.8621 35.6925C42.9933 36.0142 41.9937 36.1751 40.8636 36.1751C39.7333 36.1751 38.6966 36.0142 37.7536 35.6925C36.8269 35.353 36.014 34.8794 35.315 34.2717C34.634 33.6641 34.0765 32.9313 33.6426 32.0735C33.2267 31.2156 32.9727 30.2595 32.8804 29.2051C32.7881 28.1507 32.8749 27.1945 33.1407 26.3366C33.4245 25.4788 33.8538 24.7461 34.4285 24.1384C35.0211 23.5308 35.7519 23.0662 36.6207 22.7444C37.506 22.4049 38.5138 22.2351 39.6439 22.2351ZM38.6647 28.2668C38.7241 28.9459 38.9064 29.491 39.2114 29.902C39.5329 30.2952 39.9178 30.4918 40.3664 30.4918C40.8327 30.4918 41.1833 30.2952 41.4181 29.902C41.6512 29.491 41.738 28.9459 41.6786 28.2668C41.6239 27.6413 41.444 27.123 41.1389 26.7119C40.8339 26.3009 40.4481 26.0954 39.9817 26.0954C39.5332 26.0954 39.1834 26.3009 38.9323 26.7119C38.6992 27.123 38.61 27.6413 38.6647 28.2668Z" fill="url(#paint6_linear_186_431)"/>
<mask id="mask1_186_431" style="mask-type:luminance" maskUnits="userSpaceOnUse" x="32" y="22" width="16" height="15">
<path d="M39.6439 22.2351C40.7741 22.2351 41.8027 22.4049 42.7294 22.7444C43.6724 23.0662 44.4845 23.5308 45.1656 24.1384C45.8646 24.7461 46.422 25.4788 46.8379 26.3366C47.2718 27.1945 47.5348 28.1507 47.6271 29.2051C47.7193 30.2595 47.6236 31.2156 47.3398 32.0735C47.074 32.9313 46.6448 33.6641 46.0521 34.2717C45.4773 34.8794 44.7474 35.353 43.8621 35.6925C42.9933 36.0142 41.9937 36.1751 40.8636 36.1751C39.7333 36.1751 38.6966 36.0142 37.7536 35.6925C36.8269 35.353 36.014 34.8794 35.315 34.2717C34.634 33.6641 34.0765 32.9313 33.6426 32.0735C33.2267 31.2156 32.9727 30.2595 32.8804 29.2051C32.7881 28.1507 32.8749 27.1945 33.1407 26.3366C33.4245 25.4788 33.8538 24.7461 34.4285 24.1384C35.0211 23.5308 35.7519 23.0662 36.6207 22.7444C37.506 22.4049 38.5138 22.2351 39.6439 22.2351ZM38.6647 28.2668C38.7241 28.9459 38.9064 29.491 39.2114 29.902C39.5329 30.2952 39.9178 30.4918 40.3664 30.4918C40.8327 30.4918 41.1833 30.2952 41.4181 29.902C41.6512 29.491 41.738 28.9459 41.6786 28.2668C41.6239 27.6413 41.444 27.123 41.1389 26.7119C40.8339 26.3009 40.4481 26.0954 39.9817 26.0954C39.5332 26.0954 39.1834 26.3009 38.9323 26.7119C38.6992 27.123 38.61 27.6413 38.6647 28.2668Z" fill="white"/>
</mask>
<g mask="url(#mask1_186_431)">
<path d="M42.7293 22.7445L42.5038 23.5115L42.5134 23.5149L42.5229 23.5181L42.7293 22.7445ZM45.1655 24.1384L44.6431 24.727L44.6477 24.731L44.6522 24.735L45.1655 24.1384ZM46.8379 26.3367L46.0986 26.6387L46.1019 26.6455L46.1052 26.6523L46.8379 26.3367ZM47.3398 32.0736L46.552 31.758L46.5497 31.7647L46.5476 31.7716L47.3398 32.0736ZM46.0521 34.2717L45.4344 33.6753L45.4305 33.6792L45.4267 33.6833L46.0521 34.2717ZM43.8621 35.6926L44.2086 36.4645L44.2128 36.463L44.2169 36.4614L43.8621 35.6926ZM37.7535 35.6926L37.5281 36.4595L37.5376 36.463L37.5471 36.4663L37.7535 35.6926ZM35.315 34.2717L34.7926 34.8603L34.7971 34.8643L34.8016 34.8683L35.315 34.2717ZM33.6426 32.0736L32.9033 32.3755L32.9065 32.3823L32.91 32.3891L33.6426 32.0736ZM33.1407 26.3367L32.3529 26.0211L32.3506 26.0279L32.3485 26.0347L33.1407 26.3367ZM34.4285 24.1384L33.8107 23.542L33.8068 23.546L33.8031 23.55L34.4285 24.1384ZM36.6207 22.7445L36.9672 23.5165L36.9714 23.5149L36.9755 23.5133L36.6207 22.7445ZM39.2114 29.9021L38.5607 30.3503L38.5737 30.3678L38.5875 30.3847L39.2114 29.9021ZM41.418 29.9021L42.1389 30.3643L42.1431 30.3573L42.147 30.3503L41.418 29.9021ZM38.9323 26.712L38.2152 26.2435L38.2091 26.2535L38.2032 26.2638L38.9323 26.712ZM39.6439 22.2352L39.7157 23.0556C40.7634 23.0556 41.6892 23.2129 42.5038 23.5115L42.7293 22.7445L42.9547 21.9775C41.916 21.5969 40.7849 21.4147 39.5721 21.4147L39.6439 22.2352ZM42.7293 22.7445L42.5229 23.5181C43.363 23.8047 44.0643 24.2105 44.6431 24.727L45.1655 24.1384L45.6879 23.55C44.9047 22.8512 43.9818 22.3276 42.9358 21.9708L42.7293 22.7445ZM45.1655 24.1384L44.6522 24.735C45.2524 25.2567 45.7343 25.8875 46.0986 26.6387L46.8379 26.3367L47.5773 26.0347C47.1096 25.0701 46.4767 24.2356 45.6788 23.542L45.1655 24.1384ZM46.8379 26.3367L46.1052 26.6523C46.4822 27.3976 46.7194 28.2445 46.8034 29.2051H47.6271H48.4506C48.3502 28.0569 48.0613 26.9915 47.5705 26.0211L46.8379 26.3367ZM47.6271 29.2051H46.8034C46.8875 30.1657 46.7984 31.0127 46.552 31.758L47.3398 32.0736L48.1277 32.3891C48.4487 31.4187 48.5511 30.3534 48.4506 29.2051H47.6271ZM47.3398 32.0736L46.5476 31.7716C46.3149 32.5227 45.9433 33.1536 45.4344 33.6753L46.0521 34.2717L46.6698 34.8683C47.3463 34.1747 47.8331 33.34 48.132 32.3755L47.3398 32.0736ZM46.0521 34.2717L45.4267 33.6833C44.9351 34.203 44.301 34.6192 43.5073 34.9237L43.8621 35.6926L44.2169 36.4614C45.1936 36.0867 46.0196 35.5558 46.6774 34.8603L46.0521 34.2717ZM43.8621 35.6926L43.5156 34.9206C42.7478 35.2048 41.8441 35.3546 40.7917 35.3546L40.8635 36.1751L40.9353 36.9956C42.1434 36.9956 43.2387 36.8236 44.2086 36.4645L43.8621 35.6926ZM40.8635 36.1751L40.7917 35.3546C39.7398 35.3546 38.7987 35.205 37.96 34.9189L37.7535 35.6926L37.5471 36.4663C38.5946 36.8236 39.7268 36.9956 40.9353 36.9956L40.8635 36.1751ZM37.7535 35.6926L37.979 34.9256C37.1486 34.6213 36.4353 34.2029 35.8283 33.6753L35.315 34.2717L34.8016 34.8683C35.5926 35.5558 36.5052 36.0847 37.5281 36.4595L37.7535 35.6926ZM35.315 34.2717L35.8373 33.6833C35.2487 33.1581 34.7607 32.52 34.3753 31.758L33.6426 32.0736L32.91 32.3891C33.3922 33.3427 34.0191 34.1701 34.7926 34.8603L35.315 34.2717ZM33.6426 32.0736L34.382 31.7716C34.0188 31.0226 33.7884 30.1708 33.7039 29.2051H32.8804H32.0568C32.1568 30.3483 32.4346 31.4088 32.9033 32.3755L33.6426 32.0736ZM32.8804 29.2051H33.7039C33.6195 28.2394 33.7008 27.3877 33.9329 26.6387L33.1407 26.3367L32.3485 26.0347C32.0489 27.0014 31.9567 28.062 32.0568 29.2051H32.8804ZM33.1407 26.3367L33.9285 26.6523C34.1806 25.8902 34.5571 25.2521 35.0538 24.727L34.4285 24.1384L33.8031 23.55C33.1503 24.24 32.6683 25.0675 32.3529 26.0211L33.1407 26.3367ZM34.4285 24.1384L35.0461 24.735C35.5578 24.2104 36.194 23.8028 36.9672 23.5165L36.6207 22.7445L36.2742 21.9725C35.3098 22.3296 34.4844 22.8513 33.8107 23.542L34.4285 24.1384ZM36.6207 22.7445L36.9755 23.5133C37.759 23.2128 38.6684 23.0556 39.7157 23.0556L39.6439 22.2352L39.5721 21.4147C38.3589 21.4147 37.253 21.597 36.266 21.9756L36.6207 22.7445ZM38.6647 28.2668H37.841C37.9093 29.0462 38.1255 29.7639 38.5607 30.3503L39.2114 29.9021L39.862 29.454C39.6871 29.2182 39.5389 28.8458 39.4883 28.2668H38.6647ZM39.2114 29.9021L38.5875 30.3847C39.0647 30.9684 39.7002 31.3123 40.4381 31.3123L40.3663 30.4919L40.2945 29.6714C40.1354 29.6714 40.0009 29.6222 39.8352 29.4195L39.2114 29.9021ZM40.3663 30.4919L40.4381 31.3123C41.1846 31.3123 41.7743 30.9752 42.1389 30.3643L41.418 29.9021L40.6971 29.4399C40.5923 29.6154 40.4808 29.6714 40.2945 29.6714L40.3663 30.4919ZM41.418 29.9021L42.147 30.3503C42.4796 29.7639 42.5704 29.0462 42.5021 28.2668H41.6786H40.855C40.9056 28.8458 40.8226 29.2182 40.6889 29.454L41.418 29.9021ZM41.6786 28.2668H42.5021C42.4373 27.5256 42.2175 26.8404 41.7896 26.2638L41.1389 26.712L40.4882 27.1602C40.6704 27.4057 40.8104 27.7571 40.855 28.2668H41.6786ZM41.1389 26.712L41.7896 26.2638C41.3237 25.6362 40.6729 25.2749 39.9099 25.2749L39.9816 26.0954L40.0535 26.9159C40.2233 26.9159 40.3439 26.9658 40.4882 27.1602L41.1389 26.712ZM39.9816 26.0954L39.9099 25.2749C39.1559 25.2749 38.582 25.6429 38.2152 26.2435L38.9323 26.712L39.6493 27.1805C39.7847 26.959 39.9103 26.9159 40.0535 26.9159L39.9816 26.0954ZM38.9323 26.712L38.2032 26.2638C37.8762 26.8404 37.7762 27.5256 37.841 28.2668H38.6647H39.4883C39.4437 27.7571 39.5221 27.4057 39.6614 27.1602L38.9323 26.712Z" fill="white"/>
</g>
</g>
<g filter="url(#filter7_d_186_431)">
<path d="M18.7976 17.5221C19.0827 16.704 19.4601 15.9331 19.9298 15.2094C20.4246 14.4624 20.997 13.8094 21.6472 13.2504C22.2987 12.668 23.0021 12.2146 23.7573 11.8902C24.5378 11.5424 25.3555 11.3704 26.2104 11.3742C27.8254 11.3814 28.9857 11.8547 29.6912 12.7943C30.4219 13.7106 30.8638 14.8947 31.017 16.347C31.122 17.4009 31.1708 18.6068 31.163 19.9646C31.1805 21.2992 31.1477 22.6803 31.0648 24.1081C30.9831 25.5124 30.8554 26.8931 30.6815 28.2502C30.5313 29.6074 30.3313 30.8005 30.0814 31.8295C29.9205 32.5545 29.7036 33.2208 29.4308 33.8283C29.1593 34.4124 28.8094 34.9142 28.3811 35.3337C27.9766 35.7534 27.4708 36.0789 26.8634 36.3103C26.2798 36.5419 25.5724 36.6558 24.7411 36.6521C23.3636 36.646 22.4097 36.3024 21.8791 35.6211C21.3486 34.9399 21.122 33.9321 21.1996 32.598C21.2336 32.0129 21.3409 31.393 21.5215 30.7383C21.7021 30.0835 21.8945 29.4289 22.0989 28.7742C22.327 28.1197 22.5307 27.4768 22.7099 26.8455C22.8891 26.2141 22.9937 25.641 23.0236 25.1261C23.0631 24.4473 23.0058 24.0023 22.8518 23.7909C22.7216 23.5796 22.5614 23.4735 22.3714 23.4727C22.1339 23.4716 21.9378 23.5762 21.783 23.7862C21.6283 23.9962 21.5065 24.2532 21.4176 24.5572C21.3286 24.8611 21.2621 25.1885 21.2179 25.5395C21.1738 25.8905 21.1323 26.1947 21.0936 26.452C21.0481 26.8264 20.9781 27.2124 20.8838 27.61C20.8145 27.9843 20.6754 28.3348 20.4663 28.6616C20.2586 28.9651 19.9587 29.2213 19.5664 29.4303C19.1993 29.6159 18.6714 29.7072 17.9826 29.7042C17.3176 29.7013 16.8006 29.6054 16.4314 29.4165C16.0637 29.2041 15.7937 28.9454 15.6214 28.6403C15.4742 28.3119 15.3758 27.9603 15.3263 27.5855C15.302 27.1874 15.2888 26.801 15.2868 26.4264C15.278 26.1689 15.272 25.8645 15.2686 25.5133C15.2652 25.1621 15.2369 24.8342 15.1832 24.5296C15.1297 24.2251 15.0378 23.9672 14.9076 23.7558C14.801 23.5447 14.6171 23.4385 14.3559 23.4374C14.1659 23.4365 13.9817 23.541 13.8032 23.751C13.6484 23.961 13.5514 24.4054 13.5119 25.0841C13.482 25.5991 13.5199 26.1728 13.6256 26.8054C13.7314 27.438 13.8484 28.0823 13.9765 28.7384C14.1047 29.3945 14.2209 30.0505 14.3253 30.7065C14.4297 31.3624 14.4649 31.983 14.431 32.5682C14.3534 33.9023 14.0099 34.9074 13.4005 35.5837C12.8147 36.26 11.8331 36.5952 10.4557 36.5891C9.64817 36.5855 8.95437 36.4654 8.3742 36.2288C7.7941 35.9921 7.3144 35.6622 6.93514 35.2391C6.57963 34.8162 6.30014 34.3116 6.09665 33.7254C5.89452 33.1158 5.75518 32.448 5.6786 31.7219C5.57221 30.6913 5.51098 29.497 5.49488 28.1391C5.47879 26.7812 5.51156 25.4 5.59319 23.9957C5.67617 22.568 5.79206 21.1872 5.94086 19.8534C6.11477 18.4963 6.31545 17.2915 6.54292 16.239C6.70384 15.5139 6.92074 14.8476 7.19361 14.2402C7.49026 13.6328 7.85264 13.1193 8.28089 12.6998C8.71046 12.2569 9.21706 11.9196 9.80067 11.6881C10.4094 11.4333 11.1175 11.3076 11.925 11.3112C12.7799 11.315 13.5654 11.494 14.2812 11.8483C15.0221 12.1794 15.6725 12.6388 16.2322 13.2266C16.8171 13.791 17.3133 14.4487 17.721 15.1997C18.1301 15.9272 18.4177 16.701 18.5839 17.5212L18.7976 17.5221Z" fill="url(#paint7_linear_186_431)"/>
<mask id="mask2_186_431" style="mask-type:luminance" maskUnits="userSpaceOnUse" x="5" y="11" width="27" height="26">
<path d="M18.7976 17.5221C19.0827 16.704 19.4601 15.9331 19.9298 15.2094C20.4246 14.4624 20.997 13.8094 21.6472 13.2504C22.2987 12.668 23.0021 12.2146 23.7573 11.8902C24.5378 11.5424 25.3555 11.3704 26.2104 11.3742C27.8254 11.3814 28.9857 11.8547 29.6912 12.7943C30.4219 13.7106 30.8638 14.8947 31.017 16.347C31.122 17.4009 31.1708 18.6068 31.163 19.9646C31.1805 21.2992 31.1477 22.6803 31.0648 24.1081C30.9831 25.5124 30.8554 26.8931 30.6815 28.2502C30.5313 29.6074 30.3313 30.8005 30.0814 31.8295C29.9205 32.5545 29.7036 33.2208 29.4308 33.8283C29.1593 34.4124 28.8094 34.9142 28.3811 35.3337C27.9766 35.7534 27.4708 36.0789 26.8634 36.3103C26.2798 36.5419 25.5724 36.6558 24.7411 36.6521C23.3636 36.646 22.4097 36.3024 21.8791 35.6211C21.3486 34.9399 21.122 33.9321 21.1996 32.598C21.2336 32.0129 21.3409 31.393 21.5215 30.7383C21.7021 30.0835 21.8945 29.4289 22.0989 28.7742C22.327 28.1197 22.5307 27.4768 22.7099 26.8455C22.8891 26.2141 22.9937 25.641 23.0236 25.1261C23.0631 24.4473 23.0058 24.0023 22.8518 23.7909C22.7216 23.5796 22.5614 23.4735 22.3714 23.4727C22.1339 23.4716 21.9378 23.5762 21.783 23.7862C21.6283 23.9962 21.5065 24.2532 21.4176 24.5572C21.3286 24.8611 21.2621 25.1885 21.2179 25.5395C21.1738 25.8905 21.1323 26.1947 21.0936 26.452C21.0481 26.8264 20.9781 27.2124 20.8838 27.61C20.8145 27.9843 20.6754 28.3348 20.4663 28.6616C20.2586 28.9651 19.9587 29.2213 19.5664 29.4303C19.1993 29.6159 18.6714 29.7072 17.9826 29.7042C17.3176 29.7013 16.8006 29.6054 16.4314 29.4165C16.0637 29.2041 15.7937 28.9454 15.6214 28.6403C15.4742 28.3119 15.3758 27.9603 15.3263 27.5855C15.302 27.1874 15.2888 26.801 15.2868 26.4264C15.278 26.1689 15.272 25.8645 15.2686 25.5133C15.2652 25.1621 15.2369 24.8342 15.1832 24.5296C15.1297 24.2251 15.0378 23.9672 14.9076 23.7558C14.801 23.5447 14.6171 23.4385 14.3559 23.4374C14.1659 23.4365 13.9817 23.541 13.8032 23.751C13.6484 23.961 13.5514 24.4054 13.5119 25.0841C13.482 25.5991 13.5199 26.1728 13.6256 26.8054C13.7314 27.438 13.8484 28.0823 13.9765 28.7384C14.1047 29.3945 14.2209 30.0505 14.3253 30.7065C14.4297 31.3624 14.4649 31.983 14.431 32.5682C14.3534 33.9023 14.0099 34.9074 13.4005 35.5837C12.8147 36.26 11.8331 36.5952 10.4557 36.5891C9.64817 36.5855 8.95437 36.4654 8.3742 36.2288C7.7941 35.9921 7.3144 35.6622 6.93514 35.2391C6.57963 34.8162 6.30014 34.3116 6.09665 33.7254C5.89452 33.1158 5.75518 32.448 5.6786 31.7219C5.57221 30.6913 5.51098 29.497 5.49488 28.1391C5.47879 26.7812 5.51156 25.4 5.59319 23.9957C5.67617 22.568 5.79206 21.1872 5.94086 19.8534C6.11477 18.4963 6.31545 17.2915 6.54292 16.239C6.70384 15.5139 6.92074 14.8476 7.19361 14.2402C7.49026 13.6328 7.85264 13.1193 8.28089 12.6998C8.71046 12.2569 9.21706 11.9196 9.80067 11.6881C10.4094 11.4333 11.1175 11.3076 11.925 11.3112C12.7799 11.315 13.5654 11.494 14.2812 11.8483C15.0221 12.1794 15.6725 12.6388 16.2322 13.2266C16.8171 13.791 17.3133 14.4487 17.721 15.1997C18.1301 15.9272 18.4177 16.701 18.5839 17.5212L18.7976 17.5221Z" fill="white"/>
</mask>
<g mask="url(#mask2_186_431)">
<path d="M18.7976 17.5222L18.7504 18.3342L19.3719 18.337L19.5769 17.7488L18.7976 17.5222ZM19.9298 15.2095L19.2455 14.7918L19.2432 14.7952L19.241 14.7987L19.9298 15.2095ZM21.6472 13.2505L22.1713 13.8496L22.1779 13.844L22.1842 13.8383L21.6472 13.2505ZM23.7574 11.8902L24.0535 12.6317L24.0589 12.6294L24.0643 12.627L23.7574 11.8902ZM29.6912 12.7944L29.0184 13.2988L29.025 13.3075L29.0319 13.3161L29.6912 12.7944ZM31.017 16.3471L31.8384 16.2258L31.8382 16.2236L31.8379 16.2213L31.017 16.3471ZM31.1631 19.9647L30.3378 20.003V20.0105L30.3379 20.018L31.1631 19.9647ZM30.6815 28.2503L29.8628 28.1908L29.8619 28.1978L29.8611 28.2047L30.6815 28.2503ZM30.0814 31.8296L29.2793 31.6808L29.2774 31.6887L29.2755 31.6967L30.0814 31.8296ZM29.4308 33.8284L30.1782 34.1333L30.1805 34.1283L30.1828 34.1233L29.4308 33.8284ZM28.3811 35.3338L27.8146 34.7737L27.8055 34.7825L27.7967 34.7916L28.3811 35.3338ZM26.8634 36.3104L26.6012 35.5552L26.5956 35.5573L26.5901 35.5595L26.8634 36.3104ZM22.0989 28.7743L21.3197 28.5477L21.3151 28.5607L21.3111 28.5738L22.0989 28.7743ZM22.8518 23.791L22.1401 24.2384L22.1553 24.2631L22.1725 24.2866L22.8518 23.791ZM21.0936 26.4521L20.2774 26.375L20.2757 26.3865L20.2743 26.3979L21.0936 26.4521ZM20.8838 27.6101L20.0806 27.4654L20.0758 27.4855L20.0721 27.5058L20.8838 27.6101ZM20.4663 28.6617L21.1432 29.0904L21.1509 29.0792L21.1583 29.0678L20.4663 28.6617ZM19.5664 29.4303L19.9125 30.1485L19.9209 30.1442L19.9292 30.1398L19.5664 29.4303ZM16.4315 29.4166L15.9864 30.1225L16.0034 30.1322L16.0208 30.1412L16.4315 29.4166ZM15.6214 28.6404L14.8633 29.0003L14.8777 29.0323L14.8949 29.0628L15.6214 28.6404ZM15.3264 27.5856L14.5026 27.6769L14.5043 27.7044L14.5078 27.7316L15.3264 27.5856ZM15.2868 26.4265L16.1121 26.3795L16.112 26.368L16.1116 26.3566L15.2868 26.4265ZM14.9076 23.7559L14.1644 24.1471L14.1789 24.1759L14.1958 24.2033L14.9076 23.7559ZM13.8032 23.7511L13.1818 23.2497L13.1619 23.273L13.1438 23.2977L13.8032 23.7511ZM13.4005 35.5838L12.7958 35.0633L12.7899 35.0698L12.7843 35.0764L13.4005 35.5838ZM6.93515 35.2392L6.28799 35.776L6.29572 35.7852L6.30374 35.7941L6.93515 35.2392ZM6.09665 33.7255L5.31072 34.0135L5.3124 34.0186L5.31415 34.0237L6.09665 33.7255ZM5.67861 31.722L4.85751 31.846L4.8576 31.8468L4.85769 31.8476L5.67861 31.722ZM5.94087 19.8535L5.12215 19.794L5.12131 19.8006L5.12057 19.8072L5.94087 19.8535ZM6.54293 16.2391L5.73704 16.1062L5.73654 16.1084L5.73606 16.1107L6.54293 16.2391ZM7.19362 14.2403L6.45321 13.9205L6.44718 13.9329L6.44157 13.9454L7.19362 14.2403ZM8.2809 12.6999L8.8475 13.2601L8.85556 13.2522L8.86341 13.244L8.2809 12.6999ZM9.80068 11.6882L10.074 12.4391L10.0817 12.4361L10.0893 12.4329L9.80068 11.6882ZM14.2813 11.8484L13.8798 12.5777L13.8936 12.5846L13.9077 12.5909L14.2813 11.8484ZM16.2322 13.2266L15.6163 13.7982L15.6273 13.8097L15.6387 13.8208L16.2322 13.2266ZM17.7211 15.1998L16.9885 15.6111L16.9912 15.6161L16.9939 15.621L17.7211 15.1998ZM18.5839 17.5213L17.7742 17.72L17.8978 18.3304L18.5367 18.3332L18.5839 17.5213ZM18.7976 17.5222L19.5769 17.7488C19.8399 16.9941 20.1871 16.2852 20.6186 15.6203L19.9298 15.2095L19.241 14.7987C18.7331 15.5811 18.3256 16.414 18.0184 17.2957L18.7976 17.5222ZM19.9298 15.2095L20.6141 15.6271C21.0667 14.944 21.5859 14.3529 22.1713 13.8496L21.6472 13.2505L21.123 12.6514C20.4081 13.2661 19.7825 13.981 19.2455 14.7918L19.9298 15.2095ZM21.6472 13.2505L22.1842 13.8383C22.7685 13.3159 23.3913 12.9162 24.0535 12.6317L23.7574 11.8902L23.4613 11.1488C22.6129 11.5132 21.8288 12.0202 21.1102 12.6627L21.6472 13.2505ZM23.7574 11.8902L24.0643 12.627C24.7302 12.3303 25.4268 12.183 26.1633 12.1862L26.2104 11.3743L26.2576 10.5624C25.2841 10.558 24.3453 10.7547 23.4504 11.1535L23.7574 11.8902ZM26.2104 11.3743L26.1633 12.1862C27.6159 12.1927 28.5024 12.6115 29.0184 13.2988L29.6912 12.7944L30.3641 12.29C29.4691 11.098 28.0349 10.5701 26.2576 10.5624L26.2104 11.3743ZM29.6912 12.7944L29.0319 13.3161C29.6536 14.0958 30.0548 15.1331 30.1961 16.4727L31.017 16.3471L31.8379 16.2213C31.6729 14.6566 31.1903 13.3255 30.3507 12.2727L29.6912 12.7944ZM31.017 16.3471L30.1956 16.4682C30.2973 17.4885 30.3454 18.6658 30.3378 20.003L31.1631 19.9647L31.9883 19.9264C31.9961 18.5479 31.9468 17.3135 31.8384 16.2258L31.017 16.3471ZM31.1631 19.9647L30.3379 20.018C30.355 21.3324 30.3228 22.6945 30.2408 24.1045L31.0648 24.1082L31.8887 24.1118C31.9727 22.6664 32.006 21.2662 31.9882 19.9116L31.1631 19.9647ZM31.0648 24.1082L30.2408 24.1045C30.1603 25.4908 30.0342 26.8528 29.8628 28.1908L30.6815 28.2503L31.5002 28.3098C31.6765 26.9335 31.806 25.5341 31.8887 24.1118L31.0648 24.1082ZM30.6815 28.2503L29.8611 28.2047C29.7137 29.5369 29.5189 30.6942 29.2793 31.6808L30.0814 31.8296L30.8836 31.9784C31.1438 30.907 31.3489 29.6781 31.5018 28.2958L30.6815 28.2503ZM30.0814 31.8296L29.2755 31.6967C29.1254 32.3732 28.9253 32.9845 28.6787 33.5335L29.4308 33.8284L30.1828 34.1233C30.4819 33.4574 30.7157 32.7361 30.8873 31.9624L30.0814 31.8296ZM29.4308 33.8284L28.6833 33.5235C28.452 34.0212 28.161 34.4343 27.8146 34.7737L28.3811 35.3338L28.9477 35.8939C29.4578 35.3942 29.8666 34.8038 30.1782 34.1333L29.4308 33.8284ZM28.3811 35.3338L27.7967 34.7916C27.4928 35.1068 27.1016 35.3645 26.6012 35.5552L26.8634 36.3104L27.1256 37.0657C27.8399 36.7934 28.4605 36.4 28.9656 35.876L28.3811 35.3338ZM26.8634 36.3104L26.5901 35.5595C26.1382 35.7388 25.5463 35.8436 24.7884 35.8402L24.7411 36.6522L24.694 37.4642C25.5985 37.4682 26.4214 37.3451 27.1367 37.0613L26.8634 36.3104ZM24.7411 36.6522L24.7884 35.8402C23.5225 35.8347 22.8646 35.5181 22.5439 35.1063L21.8791 35.6212L21.2143 36.1361C21.9547 37.0869 23.2048 37.4576 24.694 37.4642L24.7411 36.6522ZM21.8791 35.6212L22.5439 35.1063C22.1729 34.6299 21.9516 33.84 22.0235 32.6017L21.1996 32.5981L20.3757 32.5945C20.2926 34.0244 20.5242 35.25 21.2143 36.1361L21.8791 35.6212ZM21.1996 32.5981L22.0235 32.6017C22.0538 32.0814 22.1499 31.5188 22.3172 30.912L21.5215 30.7384L20.7258 30.5646C20.532 31.2673 20.4135 31.9446 20.3757 32.5945L21.1996 32.5981ZM21.5215 30.7384L22.3172 30.912C22.4953 30.2663 22.6852 29.6206 22.8868 28.9747L22.0989 28.7743L21.3111 28.5738C21.1039 29.2373 20.9089 29.9008 20.7258 30.5646L21.5215 30.7384ZM22.0989 28.7743L22.8782 29.0008C23.1114 28.3316 23.32 27.6731 23.504 27.0252L22.7099 26.8456L21.9158 26.6659C21.7413 27.2807 21.5427 27.9079 21.3197 28.5477L22.0989 28.7743ZM22.7099 26.8456L23.504 27.0252C23.6956 26.3502 23.8135 25.7169 23.8476 25.1298L23.0236 25.1262L22.1997 25.1225C22.174 25.5654 22.0826 26.0783 21.9158 26.6659L22.7099 26.8456ZM23.0236 25.1262L23.8476 25.1298C23.8689 24.763 23.8663 24.4285 23.8291 24.1398C23.794 23.8668 23.7185 23.5525 23.5311 23.2954L22.8518 23.791L22.1725 24.2866C22.1391 24.2409 22.1693 24.2547 22.1914 24.4268C22.2116 24.5832 22.2178 24.8106 22.1997 25.1225L23.0236 25.1262ZM22.8518 23.791L23.5635 23.3436C23.3478 22.9937 22.9762 22.6633 22.4186 22.6609L22.3714 23.4728L22.3243 24.2848C22.2933 24.2847 22.2597 24.28 22.2264 24.2698C22.1933 24.2597 22.1672 24.2462 22.1488 24.234C22.1139 24.2109 22.116 24.1993 22.1401 24.2384L22.8518 23.791ZM22.3714 23.4728L22.4186 22.6609C21.88 22.6584 21.4283 22.9194 21.1237 23.3329L21.7831 23.7863L22.4424 24.2397C22.4555 24.2219 22.4469 24.2397 22.409 24.2599C22.3912 24.2694 22.3725 24.2763 22.3551 24.2804C22.3381 24.2844 22.3271 24.2848 22.3243 24.2848L22.3714 23.4728ZM21.7831 23.7863L21.1237 23.3329C20.8969 23.6407 20.7359 23.9932 20.6254 24.3711L21.4176 24.5573L22.2098 24.7434C22.2771 24.5133 22.3598 24.3519 22.4424 24.2397L21.7831 23.7863ZM21.4176 24.5573L20.6254 24.3711C20.5227 24.7222 20.4479 25.0931 20.399 25.482L21.2179 25.5396L22.0369 25.5973C22.0763 25.2842 22.1346 25.0002 22.2098 24.7434L21.4176 24.5573ZM21.2179 25.5396L20.399 25.482C20.3554 25.8286 20.3148 26.126 20.2774 26.375L21.0936 26.4521L21.9099 26.5293C21.9499 26.2636 21.9922 25.9526 22.0369 25.5973L21.2179 25.5396ZM21.0936 26.4521L20.2743 26.3979C20.2327 26.7397 20.1684 27.0954 20.0806 27.4654L20.8838 27.6101L21.687 27.7548C21.7879 27.3295 21.8635 26.9133 21.913 26.5064L21.0936 26.4521ZM20.8838 27.6101L20.0721 27.5058C20.0225 27.7738 19.9241 28.0218 19.7744 28.2558L20.4663 28.6617L21.1583 29.0678C21.4267 28.6481 21.6066 28.195 21.6955 27.7144L20.8838 27.6101ZM20.4663 28.6617L19.7894 28.2331C19.6766 28.3979 19.4955 28.5654 19.2036 28.7209L19.5664 29.4303L19.9292 30.1398C20.4219 29.8774 20.8407 29.5325 21.1432 29.0904L20.4663 28.6617ZM19.5664 29.4303L19.2204 28.7122C19.0345 28.8062 18.6666 28.8951 18.0298 28.8924L17.9826 29.7043L17.9354 30.5163C18.6761 30.5195 19.3641 30.4259 19.9125 30.1485L19.5664 29.4303ZM17.9826 29.7043L18.0298 28.8924C17.4276 28.8897 17.0548 28.8007 16.8422 28.6919L16.4315 29.4166L16.0208 30.1412C16.5463 30.4102 17.2076 30.5131 17.9354 30.5163L17.9826 29.7043ZM16.4315 29.4166L16.8765 28.7107C16.603 28.5526 16.4414 28.3836 16.3478 28.2179L15.6214 28.6404L14.8949 29.0628C15.146 29.5074 15.5245 29.8557 15.9864 30.1225L16.4315 29.4166ZM15.6214 28.6404L16.3794 28.2805C16.2637 28.0224 16.1849 27.7431 16.1449 27.4395L15.3264 27.5856L14.5078 27.7316C14.5668 28.1777 14.6846 28.6016 14.8633 29.0003L15.6214 28.6404ZM15.3264 27.5856L16.1501 27.4943C16.1266 27.11 16.114 26.7383 16.1121 26.3795L15.2868 26.4265L14.4616 26.4735C14.4636 26.8638 14.4773 27.265 14.5026 27.6769L15.3264 27.5856ZM15.2868 26.4265L16.1116 26.3566C16.1031 26.1074 16.0972 25.8098 16.0939 25.463L15.2686 25.5134L14.4434 25.5638C14.4467 25.9193 14.453 26.2305 14.462 26.4964L15.2868 26.4265ZM15.2686 25.5134L16.0939 25.463C16.0901 25.0738 16.0586 24.7025 15.9967 24.3507L15.1832 24.5297L14.3699 24.7088C14.4151 24.9661 14.4404 25.2505 14.4434 25.5638L15.2686 25.5134ZM15.1832 24.5297L15.9967 24.3507C15.9301 23.972 15.8102 23.6183 15.6193 23.3086L14.9076 23.7559L14.1958 24.2033C14.2654 24.3162 14.3293 24.4782 14.3699 24.7088L15.1832 24.5297ZM14.9076 23.7559L15.6507 23.3648C15.5394 23.1441 15.3704 22.948 15.1348 22.812C14.9019 22.6776 14.6472 22.6265 14.4031 22.6255L14.3559 23.4375L14.3087 24.2494C14.3259 24.2495 14.2937 24.2522 14.2446 24.2238C14.2215 24.2105 14.2019 24.1942 14.1869 24.1779C14.1723 24.1619 14.1658 24.1499 14.1644 24.1471L14.9076 23.7559ZM14.3559 23.4375L14.4031 22.6255C13.8635 22.6231 13.453 22.9308 13.1818 23.2497L13.8032 23.7511L14.4245 24.2525C14.466 24.2036 14.4795 24.2015 14.4586 24.2134C14.447 24.22 14.4269 24.2296 14.3988 24.2373C14.3705 24.2453 14.3396 24.2495 14.3087 24.2494L14.3559 23.4375ZM13.8032 23.7511L13.1438 23.2977C12.9591 23.5483 12.865 23.8502 12.8078 24.1117C12.7468 24.391 12.7091 24.7178 12.688 25.0806L13.5119 25.0842L14.3358 25.0879C14.3542 24.7719 14.3847 24.5371 14.4208 24.3721C14.4608 24.1892 14.4925 24.1638 14.4625 24.2045L13.8032 23.7511ZM13.5119 25.0842L12.688 25.0806C12.6539 25.6676 12.698 26.3017 12.8111 26.9781L13.6256 26.8055L14.4401 26.6329C14.3417 26.0442 14.3101 25.5307 14.3358 25.0879L13.5119 25.0842ZM13.6256 26.8055L12.8111 26.9781C12.9181 27.6179 13.0363 28.2692 13.1657 28.9319L13.9765 28.7385L14.7873 28.5451C14.6604 27.8956 14.5447 27.2582 14.4401 26.6329L13.6256 26.8055ZM13.9765 28.7385L13.1657 28.9319C13.2922 29.5791 13.4069 30.2263 13.5098 30.8732L14.3253 30.7066L15.1408 30.54C15.035 29.875 14.9172 29.21 14.7873 28.5451L13.9765 28.7385ZM14.3253 30.7066L13.5098 30.8732C13.6066 31.4811 13.6373 32.0442 13.607 32.5646L14.431 32.5683L15.2548 32.5719C15.2926 31.922 15.2529 31.2441 15.1408 30.54L14.3253 30.7066ZM14.431 32.5683L13.607 32.5646C13.5351 33.8029 13.222 34.5904 12.7958 35.0633L13.4005 35.5838L14.0051 36.1043C14.7977 35.2247 15.1717 34.0019 15.2548 32.5719L14.431 32.5683ZM13.4005 35.5838L12.7843 35.0764C12.4429 35.4706 11.7726 35.7828 10.5029 35.7772L10.4557 36.5892L10.4085 37.4012C11.8937 37.4077 13.1866 37.0497 14.0167 36.0912L13.4005 35.5838ZM10.4557 36.5892L10.5029 35.7772C9.77376 35.774 9.18772 35.6654 8.72404 35.4763L8.3742 36.2289L8.02444 36.9814C8.72103 37.2655 9.52266 37.3973 10.4085 37.4012L10.4557 36.5892ZM8.3742 36.2289L8.72404 35.4763C8.24275 35.28 7.86218 35.0141 7.56656 34.6844L6.93515 35.2392L6.30374 35.7941C6.76664 36.3105 7.34546 36.7045 8.02444 36.9814L8.3742 36.2289ZM6.93515 35.2392L7.58233 34.7025C7.29259 34.3578 7.05588 33.9364 6.87917 33.4273L6.09665 33.7255L5.31415 34.0237C5.5444 34.6869 5.86668 35.2747 6.28799 35.776L6.93515 35.2392ZM6.09665 33.7255L6.8826 33.4374C6.69991 32.8864 6.57097 32.2738 6.49952 31.5962L5.67861 31.722L4.85769 31.8476C4.93939 32.6224 5.08916 33.3453 5.31072 34.0135L6.09665 33.7255ZM5.67861 31.722L6.4997 31.598C6.39637 30.5971 6.33598 29.4276 6.32009 28.087L5.49489 28.1392L4.66968 28.1914C4.68598 29.5666 4.74806 30.7857 4.85751 31.846L5.67861 31.722ZM5.49489 28.1392L6.32009 28.087C6.30423 26.7482 6.33652 25.3857 6.4171 23.9995L5.59319 23.9958L4.76928 23.9922C4.6866 25.4146 4.65336 26.8143 4.66968 28.1914L5.49489 28.1392ZM5.59319 23.9958L6.4171 23.9995C6.49932 22.5849 6.61405 21.2185 6.76115 19.8998L5.94087 19.8535L5.12057 19.8072C4.97009 21.1561 4.85304 22.5512 4.76928 23.9922L5.59319 23.9958ZM5.94087 19.8535L6.75958 19.913C6.93129 18.573 7.12839 17.3919 7.34979 16.3674L6.54293 16.2391L5.73606 16.1107C5.50253 17.1912 5.29825 18.4198 5.12215 19.794L5.94087 19.8535ZM6.54293 16.2391L7.34884 16.372C7.499 15.6954 7.69904 15.0842 7.94566 14.5352L7.19362 14.2403L6.44157 13.9454C6.14245 14.6113 5.90873 15.3326 5.73704 16.1062L6.54293 16.2391ZM7.19362 14.2403L7.934 14.56C8.19324 14.0292 8.50001 13.6005 8.8475 13.2601L8.2809 12.6999L7.7143 12.1397C7.20527 12.6384 6.78725 13.2365 6.45321 13.9205L7.19362 14.2403ZM8.2809 12.6999L8.86341 13.244C9.204 12.8929 9.60431 12.6255 10.074 12.4391L9.80068 11.6882L9.52736 10.9373C8.82989 11.2141 8.217 11.621 7.69838 12.1558L8.2809 12.6999ZM9.80068 11.6882L10.0893 12.4329C10.568 12.2325 11.1574 12.1201 11.8777 12.1232L11.925 11.3113L11.9722 10.4993C11.0776 10.4954 10.2508 10.6343 9.51202 10.9435L9.80068 11.6882ZM11.925 11.3113L11.8777 12.1232C12.6142 12.1265 13.2777 12.2797 13.8798 12.5777L14.2813 11.8484L14.6826 11.1191C13.853 10.7085 12.9457 10.5036 11.9722 10.4993L11.925 11.3113ZM14.2813 11.8484L13.9077 12.5909C14.5557 12.8804 15.1242 13.2814 15.6163 13.7982L16.2322 13.2266L16.8482 12.6551C16.2209 11.9962 15.4885 11.4786 14.6547 11.106L14.2813 11.8484ZM16.2322 13.2266L15.6387 13.8208C16.1653 14.329 16.6157 14.9244 16.9885 15.6111L17.7211 15.1998L18.4536 14.7883C18.011 13.9732 17.4689 13.2531 16.8257 12.6325L16.2322 13.2266ZM17.7211 15.1998L16.9939 15.621C17.3644 16.2799 17.624 16.9787 17.7742 17.72L18.5839 17.5213L19.3936 17.3226C19.2115 16.4236 18.8959 15.5748 18.4482 14.7786L17.7211 15.1998ZM18.5839 17.5213L18.5367 18.3332L18.7504 18.3342L18.7976 17.5222L18.8448 16.7102L18.631 16.7094L18.5839 17.5213Z" fill="white"/>
</g>
</g>
<defs>
<filter id="filter0_d_186_431" x="134.566" y="22.2336" width="17.466" height="14.4652" filterUnits="userSpaceOnUse" color-interpolation-filters="sRGB">
<feFlood flood-opacity="0" result="BackgroundImageFix"/>
<feColorMatrix in="SourceAlpha" type="matrix" values="0 0 0 0 0 0 0 0 0 0 0 0 0 0 0 0 0 0 127 0" result="hardAlpha"/>
<feOffset dx="0.733558" dy="1.39376"/>
<feComposite in2="hardAlpha" operator="out"/>
<feColorMatrix type="matrix" values="0 0 0 0 1 0 0 0 0 0.302885 0 0 0 0 0.697917 0 0 0 1 0"/>
<feBlend mode="normal" in2="BackgroundImageFix" result="effect1_dropShadow_186_431"/>
<feBlend mode="normal" in="SourceGraphic" in2="effect1_dropShadow_186_431" result="shape"/>
</filter>
<filter id="filter1_d_186_431" x="118.548" y="22.4755" width="17.1565" height="14.111" filterUnits="userSpaceOnUse" color-interpolation-filters="sRGB">
<feFlood flood-opacity="0" result="BackgroundImageFix"/>
<feColorMatrix in="SourceAlpha" type="matrix" values="0 0 0 0 0 0 0 0 0 0 0 0 0 0 0 0 0 0 127 0" result="hardAlpha"/>
<feOffset dx="0.733558" dy="1.39376"/>
<feComposite in2="hardAlpha" operator="out"/>
<feColorMatrix type="matrix" values="0 0 0 0 1 0 0 0 0 0.302885 0 0 0 0 0.697917 0 0 0 1 0"/>
<feBlend mode="normal" in2="BackgroundImageFix" result="effect1_dropShadow_186_431"/>
<feBlend mode="normal" in="SourceGraphic" in2="effect1_dropShadow_186_431" result="shape"/>
</filter>
<filter id="filter2_d_186_431" x="106.026" y="17.2576" width="13.9845" height="19.3244" filterUnits="userSpaceOnUse" color-interpolation-filters="sRGB">
<feFlood flood-opacity="0" result="BackgroundImageFix"/>
<feColorMatrix in="SourceAlpha" type="matrix" values="0 0 0 0 0 0 0 0 0 0 0 0 0 0 0 0 0 0 127 0" result="hardAlpha"/>
<feOffset dx="0.733558" dy="1.39376"/>
<feComposite in2="hardAlpha" operator="out"/>
<feColorMatrix type="matrix" values="0 0 0 0 1 0 0 0 0 0.302885 0 0 0 0 0.697917 0 0 0 1 0"/>
<feBlend mode="normal" in2="BackgroundImageFix" result="effect1_dropShadow_186_431"/>
<feBlend mode="normal" in="SourceGraphic" in2="effect1_dropShadow_186_431" result="shape"/>
</filter>
<filter id="filter3_d_186_431" x="89.8073" y="21.8527" width="15.9798" height="14.9843" filterUnits="userSpaceOnUse" color-interpolation-filters="sRGB">
<feFlood flood-opacity="0" result="BackgroundImageFix"/>
<feColorMatrix in="SourceAlpha" type="matrix" values="0 0 0 0 0 0 0 0 0 0 0 0 0 0 0 0 0 0 127 0" result="hardAlpha"/>
<feOffset dx="0.733558" dy="1.39376"/>
<feComposite in2="hardAlpha" operator="out"/>
<feColorMatrix type="matrix" values="0 0 0 0 1 0 0 0 0 0.302885 0 0 0 0 0.697917 0 0 0 1 0"/>
<feBlend mode="normal" in2="BackgroundImageFix" result="effect1_dropShadow_186_431"/>
<feBlend mode="normal" in="SourceGraphic" in2="effect1_dropShadow_186_431" result="shape"/>
</filter>
<filter id="filter4_d_186_431" x="65.8707" y="13.4984" width="24.4045" height="22.9061" filterUnits="userSpaceOnUse" color-interpolation-filters="sRGB">
<feFlood flood-opacity="0" result="BackgroundImageFix"/>
<feColorMatrix in="SourceAlpha" type="matrix" values="0 0 0 0 0 0 0 0 0 0 0 0 0 0 0 0 0 0 127 0" result="hardAlpha"/>
<feOffset dx="0.733558" dy="1.39376"/>
<feComposite in2="hardAlpha" operator="out"/>
<feColorMatrix type="matrix" values="0 0 0 0 1 0 0 0 0 0.302885 0 0 0 0 0.697917 0 0 0 1 0"/>
<feBlend mode="normal" in2="BackgroundImageFix" result="effect1_dropShadow_186_431"/>
<feBlend mode="normal" in="SourceGraphic" in2="effect1_dropShadow_186_431" result="shape"/>
</filter>
<filter id="filter5_d_186_431" x="49.5611" y="22.6576" width="14.1633" height="14.7529" filterUnits="userSpaceOnUse" color-interpolation-filters="sRGB">
<feFlood flood-opacity="0" result="BackgroundImageFix"/>
<feColorMatrix in="SourceAlpha" type="matrix" values="0 0 0 0 0 0 0 0 0 0 0 0 0 0 0 0 0 0 127 0" result="hardAlpha"/>
<feOffset dx="0.905958" dy="1.2354"/>
<feComposite in2="hardAlpha" operator="out"/>
<feColorMatrix type="matrix" values="0 0 0 0 1 0 0 0 0 0.637019 0 0 0 0 0.903205 0 0 0 1 0"/>
<feBlend mode="normal" in2="BackgroundImageFix" result="effect1_dropShadow_186_431"/>
<feBlend mode="normal" in="SourceGraphic" in2="effect1_dropShadow_186_431" result="shape"/>
</filter>
<filter id="filter6_d_186_431" x="32.8447" y="22.2351" width="15.7222" height="15.1753" filterUnits="userSpaceOnUse" color-interpolation-filters="sRGB">
<feFlood flood-opacity="0" result="BackgroundImageFix"/>
<feColorMatrix in="SourceAlpha" type="matrix" values="0 0 0 0 0 0 0 0 0 0 0 0 0 0 0 0 0 0 127 0" result="hardAlpha"/>
<feOffset dx="0.905958" dy="1.2354"/>
<feComposite in2="hardAlpha" operator="out"/>
<feColorMatrix type="matrix" values="0 0 0 0 1 0 0 0 0 0.637019 0 0 0 0 0.903205 0 0 0 1 0"/>
<feBlend mode="normal" in2="BackgroundImageFix" result="effect1_dropShadow_186_431"/>
<feBlend mode="normal" in="SourceGraphic" in2="effect1_dropShadow_186_431" result="shape"/>
</filter>
<filter id="filter7_d_186_431" x="5.49091" y="11.3112" width="26.5827" height="26.5765" filterUnits="userSpaceOnUse" color-interpolation-filters="sRGB">
<feFlood flood-opacity="0" result="BackgroundImageFix"/>
<feColorMatrix in="SourceAlpha" type="matrix" values="0 0 0 0 0 0 0 0 0 0 0 0 0 0 0 0 0 0 127 0" result="hardAlpha"/>
<feOffset dx="0.905958" dy="1.2354"/>
<feComposite in2="hardAlpha" operator="out"/>
<feColorMatrix type="matrix" values="0 0 0 0 1 0 0 0 0 0.637019 0 0 0 0 0.903205 0 0 0 1 0"/>
<feBlend mode="normal" in2="BackgroundImageFix" result="effect1_dropShadow_186_431"/>
<feBlend mode="normal" in="SourceGraphic" in2="effect1_dropShadow_186_431" result="shape"/>
</filter>
<linearGradient id="paint0_linear_186_431" x1="148.442" y1="10.9686" x2="148.875" y2="41.5322" gradientUnits="userSpaceOnUse">
<stop stop-color="white"/>
<stop offset="0.586538" stop-color="#FF50B3"/>
</linearGradient>
<linearGradient id="paint1_linear_186_431" x1="130.805" y1="11.5254" x2="131.226" y2="41.2858" gradientUnits="userSpaceOnUse">
<stop stop-color="white"/>
<stop offset="0.586538" stop-color="#FF50B3"/>
</linearGradient>
<linearGradient id="paint2_linear_186_431" x1="117.641" y1="6.74355" x2="117.66" y2="42.7673" gradientUnits="userSpaceOnUse">
<stop stop-color="white"/>
<stop offset="0.586538" stop-color="#FF50B3"/>
</linearGradient>
<linearGradient id="paint3_linear_186_431" x1="101.439" y1="12.0587" x2="101.815" y2="38.645" gradientUnits="userSpaceOnUse">
<stop stop-color="white"/>
<stop offset="0.586538" stop-color="#FF50B3"/>
</linearGradient>
<linearGradient id="paint4_linear_186_431" x1="82.5934" y1="1.05492" x2="83.1993" y2="43.8367" gradientUnits="userSpaceOnUse">
<stop stop-color="white"/>
<stop offset="0.586538" stop-color="#FF50B3"/>
</linearGradient>
<linearGradient id="paint5_linear_186_431" x1="58.2788" y1="15.1648" x2="59.2198" y2="43.6073" gradientUnits="userSpaceOnUse">
<stop stop-color="white"/>
<stop offset="0.740385" stop-color="#FF50D3"/>
</linearGradient>
<linearGradient id="paint6_linear_186_431" x1="38.9834" y1="14.4224" x2="38.9834" y2="43.9454" gradientUnits="userSpaceOnUse">
<stop stop-color="white"/>
<stop offset="0.740385" stop-color="#FF50D3"/>
</linearGradient>
<linearGradient id="paint7_linear_186_431" x1="19.2727" y1="8.2096" x2="19.1023" y2="46.8374" gradientUnits="userSpaceOnUse">
<stop stop-color="white"/>
<stop offset="0.740385" stop-color="#FF50D3"/>
</linearGradient>
</defs>
</svg>
