<svg width="40" height="40" viewBox="0 0 40 40" fill="none" xmlns="http://www.w3.org/2000/svg">
<g clip-path="url(#clip0_21_31)">
<path d="M36.5999 12.4579V3.40466H27.5467V6.42241H12.4579V3.40466H3.40466V12.4579H6.42241V27.5467H3.40466V36.5999H12.4579V33.5822H27.5467V36.5999H36.5999V27.5467H33.5822V12.4579H36.5999ZM6.42241 6.42241H9.44016V9.44016H6.42241V6.42241ZM9.44016 33.5822H6.42241V30.5644H9.44016V33.5822ZM27.5467 30.5644H12.4579V27.5467H9.44016V12.4579H12.4579V9.44016H27.5467V12.4579H30.5644V27.5467H27.5467V30.5644ZM33.5822 33.5822H30.5644V30.5644H33.5822V33.5822ZM30.5644 9.44016V6.42241H33.5822V9.44016H30.5644ZM22.6126 23.02H17.3467L16.2452 26.0378H13.8008L18.931 12.4579H21.0434L26.1887 26.0378H23.7292L22.6126 23.02ZM18.0257 21.1189H21.9638L20.0023 15.3399L18.0257 21.1189Z" fill="currentColor"/>
</g>
<defs>
<clipPath id="clip0_21_31">
<rect width="39.6398" height="39.6398" fill="white"/>
</clipPath>
</defs>
</svg>
