<svg width="25" height="25" viewBox="0 0 25 25" fill="none" xmlns="http://www.w3.org/2000/svg">
<path fill-rule="evenodd" clip-rule="evenodd" d="M10.3426 0.0794601C10.1204 0.123208 9.71782 0.26761 9.448 0.400296C8.79023 0.723729 8.12166 1.38012 7.80943 2.00904L7.5945 2.4419L4.19758 2.47075L0.800611 2.49961L0.550937 2.67518C-0.238023 3.22976 -0.166688 4.40749 0.682007 4.84046C0.891916 4.94752 1.0493 4.95249 4.24196 4.95249H7.58226L7.82536 5.44306C8.24269 6.28529 9.05901 6.98041 9.96744 7.26708C10.5106 7.43855 11.3384 7.47462 11.8937 7.35111C12.9708 7.11148 13.9312 6.37105 14.3847 5.43059L14.6135 4.95641L19.1897 4.95445C23.6274 4.95254 23.7726 4.94902 23.9888 4.83873C24.8312 4.40899 24.9009 3.22653 24.1165 2.67518L23.8668 2.49961L19.2397 2.4842L14.6126 2.46873L14.4253 2.0802C14.0319 1.26394 13.3203 0.598142 12.5013 0.280076C11.7532 -0.0104018 11.1048 -0.0706558 10.3426 0.0794601ZM16.3161 8.73441C15.3443 8.99817 14.4236 9.74044 13.9749 10.6219L13.7478 11.0682L7.31256 11.0836L0.877371 11.0991L0.604785 11.2594C0.209035 11.492 0.0116507 11.8516 0.0116507 12.34C0.0116507 12.8283 0.209035 13.188 0.604785 13.4206L0.877371 13.5808L7.31256 13.5963L13.7478 13.6118L13.9749 14.058C14.4359 14.9636 15.3679 15.701 16.3689 15.9523C16.9352 16.0945 17.9469 16.0447 18.4981 15.8475C19.4363 15.512 20.2688 14.7463 20.6419 13.8757L20.753 13.6167L22.2715 13.5988C23.9235 13.5793 23.9548 13.5735 24.3017 13.2267C24.5676 12.9608 24.6518 12.7488 24.6539 12.34C24.6564 11.852 24.4599 11.4928 24.0627 11.2594L23.7901 11.0991L22.2715 11.0812L20.753 11.0632L20.643 10.8066C20.2653 9.92547 19.4465 9.17224 18.4956 8.83109C18.144 8.70498 17.96 8.67808 17.3549 8.66446C16.8502 8.65309 16.5381 8.6741 16.3161 8.73441ZM8.00514 17.2816C7.66624 17.3465 7.08765 17.5567 6.79313 17.7219C6.29124 18.0035 5.59093 18.7491 5.32954 19.2802L5.10942 19.7274H3.00549C1.03684 19.7274 0.887529 19.7347 0.682007 19.8395C-0.166688 20.2724 -0.238023 21.4501 0.550879 22.0048L0.800553 22.1803L2.97443 22.1999L5.14826 22.2194L5.37473 22.6896C5.69545 23.3553 6.29909 23.9548 6.97072 24.2745C7.60056 24.5744 7.96774 24.6589 8.64 24.6589C9.31226 24.6589 9.67944 24.5744 10.3093 24.2745C10.9818 23.9544 11.5848 23.3552 11.9053 22.6886L12.1317 22.2175L17.9992 22.1989L23.8668 22.1803L24.1165 22.0048C24.9055 21.4502 24.8342 20.2725 23.9855 19.8395C23.7724 19.7308 23.5933 19.7274 17.9683 19.7274H12.1706L11.9505 19.2802C11.7865 18.947 11.6121 18.7139 11.2673 18.3664C10.5015 17.5949 9.84589 17.3064 8.78429 17.2736C8.43511 17.2628 8.08449 17.2664 8.00514 17.2816Z" fill="currentColor"/>
</svg>
