<svg width="19" height="21" viewBox="0 0 19 21" fill="none" xmlns="http://www.w3.org/2000/svg">
<path fill-rule="evenodd" clip-rule="evenodd" d="M0.859976 0.127953C0.710744 0.206631 0.513185 0.339855 0.420877 0.423905C-0.0146919 0.820482 5.93623e-05 0.479909 5.93623e-05 10.1662V19.2635L0.205853 19.5707C0.318976 19.7398 0.549023 19.9712 0.716988 20.0851L1.02233 20.2921H9.27615H17.53L17.8353 20.0851C18.0033 19.9712 18.2333 19.7398 18.3464 19.5707L18.5522 19.2635V10.1662C18.5522 0.0849721 18.5949 0.781962 17.9485 0.285946L17.6161 0.0307897L9.37371 0.00784202C2.02659 -0.012647 1.10179 0.000374904 0.859976 0.127953ZM17.1043 10.1387V18.8351H9.27615H1.44803V10.1387V1.44225H9.27615H17.1043V10.1387ZM3.80099 6.22302V6.99705H4.57023H5.33947V6.22302V5.44899H4.57023H3.80099V6.22302ZM6.96844 6.22302V6.99705H10.8599H14.7513V6.22302V5.44899H10.8599H6.96844V6.22302ZM3.80099 10.1387V10.9127H4.57023H5.33947V10.1962V9.47959L5.0001 9.42313C4.81349 9.39208 4.46724 9.36622 4.23086 9.36567L3.80099 9.36467V10.1387ZM6.96844 10.1387V10.9127H10.8599H14.7513V10.1387V9.36467H10.8599H6.96844V10.1387ZM3.80099 14.0999V14.8284H4.57023H5.33947V14.0999V13.3714H4.57023H3.80099V14.0999ZM6.96844 14.0999V14.8284H10.8599H14.7513V14.0999V13.3714H10.8599H6.96844V14.0999Z" fill="currentColor"/>
</svg>
