<svg width="36" height="34" viewBox="0 0 36 34" fill="none" xmlns="http://www.w3.org/2000/svg">
<path fill-rule="evenodd" clip-rule="evenodd" d="M14.6241 5.188L12.0641 10.3755L7.90707 10.961C1.16857 11.9105 0.434074 12.0895 0.140074 12.857C-0.0389265 13.323 1.33257 15.055 3.92957 17.6415C6.16857 19.8715 8.00007 21.933 8.00007 22.223C8.00007 22.513 7.66257 24.5135 7.25007 26.669C6.24707 31.9105 6.26507 34 7.31307 34C7.76057 34 10.2726 32.8395 12.8961 31.421L17.6656 28.842L22.8081 31.546C27.3651 33.942 28.0336 34.1645 28.6821 33.5C29.3241 32.8415 29.2986 32.1705 28.4716 28C27.9541 25.3875 27.5236 22.8585 27.5151 22.38C27.5071 21.9015 29.3281 19.7185 31.5626 17.5285C34.1476 14.995 35.5236 13.283 35.3466 12.8205C35.0406 12.024 34.3566 11.853 27.8286 10.942L23.4071 10.325L20.8396 5.1625C19.4276 2.323 18.0276 0 17.7281 0C17.4291 0 16.0321 2.3345 14.6241 5.188Z" fill="currentColor"/>
</svg>
