<svg width="17" height="20" viewBox="0 0 17 20" fill="none" xmlns="http://www.w3.org/2000/svg">
<path fill-rule="evenodd" clip-rule="evenodd" d="M0.0334954 7.76656L0.0694758 15.5358L3.89191 17.739C5.99425 18.9509 7.82674 19.9423 7.96425 19.9423C8.10162 19.9423 9.99003 18.9149 12.1607 17.6592L16.1073 15.3763V7.72277V0.0693974L8.05239 0.0334169L-0.00262451 -0.00256348L0.0334954 7.76656ZM14.9219 1.88236V2.64939H7.94891H0.975959V1.88236V1.11534H7.94891H14.9219V1.88236ZM7.36318 4.55649L7.32134 5.34806L5.16084 6.59022C3.97265 7.27343 2.95377 7.9056 2.89673 7.99513C2.76229 8.20655 2.76117 13.6885 2.89561 13.8899C2.95195 13.9743 3.97084 14.6116 5.15973 15.3061L7.32134 16.5689L7.36318 17.4308L7.40502 18.2928L6.59072 17.8275C6.14278 17.5716 4.69631 16.736 3.37619 15.9705L0.975959 14.5789V9.17189V3.76506H4.19049H7.40502L7.36318 4.55649ZM14.9219 9.18499V14.6049L12.1675 16.1865C10.6527 17.0565 9.20613 17.8889 8.95287 18.0365L8.49252 18.3048L8.5345 17.4383L8.57647 16.5719L10.5931 15.3933C11.7022 14.7451 12.7219 14.1131 12.8593 13.9888C13.0835 13.7859 13.1086 13.4778 13.1068 10.9604C13.1055 9.41915 13.0585 8.08634 13.0022 7.99876C12.9083 7.85288 10.3867 6.34157 9.42397 5.85416C8.47355 5.37288 8.50675 5.41932 8.50675 4.56876V3.76506H11.7143H14.9219V9.18499ZM9.59745 7.38821C11.4046 8.42717 11.4334 8.22301 9.30933 9.4257L7.93845 10.2019L6.33216 9.26909C5.44855 8.75602 4.75516 8.30696 4.791 8.27112C4.93785 8.12427 7.88476 6.43486 7.9524 6.45871C7.9927 6.47294 8.73295 6.89117 9.59745 7.38821ZM5.4809 10.2251C6.18629 10.6334 6.88902 11.0465 7.04243 11.143C7.30238 11.3067 7.31841 11.4455 7.27909 13.1765L7.23683 15.0342L5.64282 14.1064L4.04866 13.1785L4.04643 11.3307C4.04517 10.3145 4.07878 9.48288 4.12118 9.48288C4.16357 9.48288 4.77552 9.81688 5.4809 10.2251ZM11.8538 11.3349V13.187L10.2563 14.1241C9.37767 14.6395 8.62459 15.0612 8.58275 15.0612C8.54091 15.0612 8.50675 14.223 8.50675 13.1985V11.3356L10.0757 10.4182C10.9386 9.91381 11.6917 9.49683 11.7492 9.49195C11.8066 9.48692 11.8538 10.3163 11.8538 11.3349Z" fill="currentColor"/>
</svg>
