<svg width="36" height="36" viewBox="0 0 36 36" fill="none" xmlns="http://www.w3.org/2000/svg">
<path fill="currentColor" d="M24.732 4.4967C22.1239 4.4967 19.6207 5.71082 17.9869 7.62943C16.3531 5.71082 13.8499 4.4967 11.2418 4.4967C6.62517 4.4967 2.9978 8.12407 2.9978 12.7407C2.9978 18.4066 8.0941 23.0233 15.8135 30.0382L17.9869 32.0017L20.1603 30.0232C27.8797 23.0233 32.976 18.4066 32.976 12.7407C32.976 8.12407 29.3487 4.4967 24.732 4.4967ZM18.1368 27.8048L17.9869 27.9547L17.837 27.8048C10.7022 21.3445 5.99563 17.0726 5.99563 12.7407C5.99563 9.74289 8.24399 7.49453 11.2418 7.49453C13.5501 7.49453 15.7985 8.97845 16.5929 11.032H19.3959C20.1753 8.97845 22.4237 7.49453 24.732 7.49453C27.7298 7.49453 29.9782 9.74289 29.9782 12.7407C29.9782 17.0726 25.2716 21.3445 18.1368 27.8048Z"/>
</svg>
