<svg width="36" height="36" viewBox="0 0 36 36" fill="none" xmlns="http://www.w3.org/2000/svg">
<g clip-path="url(#clip0_21_42)">
<path fill-rule="evenodd" clip-rule="evenodd" d="M16.3136 0.0739241C14.6821 0.384331 13.4978 0.888214 12.2837 1.78833C10.4443 3.15222 9.15487 5.2337 8.75558 7.48393C8.60187 8.3501 8.60236 9.8727 8.75662 10.7024C9.16491 12.898 10.2895 14.7887 12.0447 16.2309C12.1733 16.3365 12.2668 16.4331 12.2526 16.4453C12.2382 16.4577 11.918 16.602 11.5411 16.7661C9.72338 17.5576 7.75107 19.0253 6.41053 20.5841C4.32621 23.0075 3.11049 25.8107 2.77341 28.9701C2.59919 30.6033 2.72464 31.64 3.22028 32.6615C3.8776 34.0163 5.03188 34.9632 6.47072 35.3281C7.00751 35.4642 7.23652 35.467 17.7336 35.467C28.2307 35.467 28.4597 35.4642 28.9965 35.3281C30.4354 34.9632 31.5896 34.0163 32.247 32.6615C32.7426 31.64 32.8681 30.6033 32.6938 28.9701C32.3568 25.8107 31.141 23.0075 29.0567 20.5841C27.7162 19.0253 25.7439 17.5576 23.9262 16.7661C23.5492 16.602 23.229 16.4577 23.2147 16.4453C23.2004 16.4331 23.2939 16.3365 23.4225 16.2309C25.1778 14.7887 26.3023 12.898 26.7106 10.7024C26.8649 9.8727 26.8654 8.3501 26.7117 7.48393C26.0737 3.88907 23.2818 0.988589 19.6732 0.171944C19.0647 0.0342313 16.8602 -0.0301222 16.3136 0.0739241ZM19.4161 3.00779C21.7511 3.69635 23.4614 5.54633 23.9381 7.89907C24.1097 8.7462 24.045 10.072 23.7929 10.8755C23.2519 12.5995 22.124 13.9322 20.5391 14.7203C19.5391 15.2176 18.7966 15.3966 17.7336 15.3966C16.6706 15.3966 15.9282 15.2176 14.9281 14.7203C13.3432 13.9322 12.2154 12.5995 11.6744 10.8755C11.4222 10.072 11.3576 8.7462 11.5292 7.89907C11.9942 5.6041 13.6942 3.72295 15.912 3.04936C16.6805 2.81591 17.0106 2.7758 17.9414 2.80296C18.6166 2.8227 18.9415 2.86779 19.4161 3.00779ZM19.6732 18.3941C23.1733 18.9564 26.2492 21.0316 28.1919 24.1411C28.8459 25.188 29.4549 26.7474 29.7174 28.0475C29.901 28.9565 30.0071 30.3954 29.9232 30.838C29.7895 31.5426 29.3248 32.1571 28.6897 32.4689L28.2976 32.6615H17.7336H7.16968L6.77753 32.4689C6.14244 32.1571 5.6777 31.5426 5.54408 30.838C5.46019 30.3954 5.56624 28.9565 5.74981 28.0475C6.67369 23.4724 10.1982 19.7786 14.7549 18.6099C15.3241 18.4639 15.8434 18.3789 16.9024 18.2583C17.3553 18.2067 19.0125 18.2879 19.6732 18.3941Z" fill="currentColor"/>
</g>
<defs>
<clipPath id="clip0_21_42">
<rect width="35.4672" height="35.4672" fill="white"/>
</clipPath>
</defs>
</svg>
