<svg width="39" height="39" viewBox="0 0 39 39" fill="none" xmlns="http://www.w3.org/2000/svg">
<path fill-rule="evenodd" clip-rule="evenodd" d="M17.4905 0.079346C15.7413 0.412148 14.4716 0.952385 13.1699 1.91744C11.1978 3.37974 9.81534 5.61139 9.38725 8.02396C9.22244 8.95263 9.22296 10.5851 9.38836 11.4746C9.8261 13.8286 11.0318 15.8558 12.9137 17.402C13.0516 17.5152 13.1518 17.6188 13.1365 17.6319C13.1211 17.6451 12.7779 17.7999 12.3737 17.9759C10.4249 18.8244 8.31026 20.398 6.873 22.0692C4.6383 24.6675 3.33487 27.6729 2.97348 31.0603C2.78669 32.8113 2.92119 33.9229 3.45259 35.018C4.15733 36.4705 5.39489 37.4858 6.93754 37.877C7.51305 38.0229 7.75859 38.026 19.013 38.026C30.2675 38.026 30.513 38.0229 31.0885 37.877C32.6312 37.4858 33.8687 36.4705 34.5735 35.018C35.1049 33.9229 35.2394 32.8113 35.0526 31.0603C34.6912 27.6729 33.3878 24.6675 31.1531 22.0692C29.7158 20.398 27.6012 18.8244 25.6524 17.9759C25.2482 17.7999 24.9049 17.6451 24.8895 17.6319C24.8742 17.6188 24.9745 17.5152 25.1123 17.402C26.9943 15.8558 28.1999 13.8286 28.6377 11.4746C28.8031 10.5851 28.8036 8.95263 28.6388 8.02396C27.9549 4.16974 24.9615 1.06 21.0926 0.184437C20.4401 0.0367895 18.0766 -0.0322069 17.4905 0.079346ZM20.8169 3.22488C23.3204 3.96312 25.154 5.94657 25.6651 8.46906C25.8491 9.3773 25.7798 10.7987 25.5095 11.6603C24.9294 13.5086 23.7202 14.9375 22.0209 15.7825C20.9487 16.3156 20.1527 16.5075 19.013 16.5075C17.8734 16.5075 17.0773 16.3156 16.0051 15.7825C14.3059 14.9375 13.0966 13.5086 12.5166 11.6603C12.2463 10.7987 12.177 9.3773 12.3609 8.46906C12.8595 6.00851 14.6822 3.99164 17.06 3.26945C17.8839 3.01916 18.2379 2.97616 19.2358 3.00527C19.9597 3.02644 20.3081 3.07479 20.8169 3.22488ZM21.0926 19.7213C24.8451 20.3242 28.143 22.5491 30.2258 25.8829C30.9271 27.0053 31.58 28.6772 31.8614 30.0712C32.0583 31.0457 32.172 32.5885 32.082 33.063C31.9388 33.8184 31.4405 34.4772 30.7596 34.8116L30.3391 35.018H19.013H7.68692L7.26648 34.8116C6.58558 34.4772 6.0873 33.8184 5.94403 33.063C5.85409 32.5885 5.9678 31.0457 6.16462 30.0712C7.15515 25.166 10.934 21.2056 15.8194 19.9527C16.4297 19.7961 16.9864 19.705 18.1218 19.5757C18.6074 19.5204 20.3841 19.6074 21.0926 19.7213Z" fill="currentColor"/>
</svg>
