<svg width="100" height="105" viewBox="0 0 100 105" fill="none" xmlns="http://www.w3.org/2000/svg">
<path fill-rule="evenodd" clip-rule="evenodd" d="M65.799 28.363L58.099 33.5L58.049 48.772L58 64.045L66.491 69.522C74.974 74.995 78.539 76.061 80.8 73.8C82.069 72.531 82.608 27.748 81.393 24.582C80.166 21.385 74.029 22.873 65.799 28.363ZM28.256 34.117C26.472 34.632 23.435 36.632 21.506 38.56C18.225 41.842 18 42.479 18 48.499C18 54.27 18.319 55.294 21.111 58.474C22.823 60.423 25.298 62.288 26.611 62.617C28.886 63.188 29 63.607 29 71.408C29 76.446 29.462 80.062 30.2 80.8C30.86 81.46 33.796 82 36.725 82C41.52 82 42.146 81.745 43.025 79.435C43.561 78.024 44 73.974 44 70.435V64H49H54V48.5V33L42.75 33.09C36.563 33.14 30.04 33.602 28.256 34.117Z" fill="currentColor"/>
</svg>
