<svg width="36" height="31" viewBox="0 0 36 31" fill="none" xmlns="http://www.w3.org/2000/svg">
<path fill-rule="evenodd" clip-rule="evenodd" d="M3.07401 2.92998L-0.0629883 5.86098L0.219012 18.18L0.500012 30.5L7.91201 30.797C13.166 31.008 15.563 30.716 16.147 29.797C16.599 29.084 16.976 25.535 16.985 21.911C16.999 15.813 16.81 15.234 14.453 14.161C13.052 13.522 10.616 13 9.03901 13C6.40201 13 6.23101 12.78 6.90301 10.25C7.43501 8.24498 8.35901 7.41398 10.316 7.18398C11.793 7.00898 13.449 6.02998 13.997 5.00598C16.967 -0.544016 8.51401 -2.15002 3.07401 2.92998ZM22.104 3.53498C19.042 7.02098 19 7.21598 19.015 17.785C19.024 23.678 19.401 29.084 19.853 29.797C20.437 30.716 22.834 31.008 28.088 30.797L35.5 30.5L35.798 23.022C36.137 14.545 35.137 13 29.309 13C26.739 13 26 12.581 26 11.122C26 8.85198 27.581 7.49498 31.25 6.61898C33.488 6.08398 34 5.40698 34 2.98098C34 0.124984 33.816 -1.63764e-05 29.604 -1.63764e-05C25.823 -1.63764e-05 24.773 0.494984 22.104 3.53498Z" fill="currentColor"/>
</svg>
