<svg width="300" height="300" viewBox="0 0 300 300" fill="none" xmlns="http://www.w3.org/2000/svg">
<path fill-rule="evenodd" clip-rule="evenodd" d="M137.5 18.103C124.224 20.439 119.778 21.444 110.762 24.153C71.66 35.9 37.749 69.091 24.938 108.157C21.758 117.853 20.864 121.699 18.462 136C16.256 149.14 16.663 156.14 20.876 177.5C22.401 185.235 27.659 200.16 31.697 208.215C42.101 228.973 60.426 249.04 81.528 262.784C86.136 265.786 103.97 273.895 109.5 275.503C141.638 284.851 163.368 284.606 192.822 274.566C230.417 261.751 261.751 230.417 274.566 192.822C284.606 163.368 284.851 141.638 275.503 109.5C273.895 103.97 265.786 86.136 262.784 81.528C249.04 60.426 228.973 42.101 208.215 31.697C200.16 27.659 185.235 22.401 177.5 20.876C157.751 16.981 147.801 16.291 137.5 18.103ZM166.375 58.559C190.409 62.763 211.771 76.045 225.232 95.154C233.915 107.479 238.23 117.581 241.094 132.285C247.209 163.679 237.289 195.137 214.362 217.061C200.505 230.312 186.788 237.379 167.715 241.094C146.906 245.147 125.035 242.011 106.5 232.318C65.601 210.927 46.828 161.98 62.655 118C77.951 75.498 121.274 50.67 166.375 58.559ZM130.338 83.409C119.019 87.076 110.358 92.466 101.412 101.412C92.362 110.462 87.026 119.099 83.367 130.621C79.979 141.292 79.979 158.708 83.367 169.379C86.683 179.82 92.101 189.009 99.673 197.036C107.587 205.425 114.826 210.352 126 214.952C134.476 218.441 134.545 218.451 150 218.424C164.563 218.398 165.923 218.229 172.5 215.62C183.048 211.437 189.585 207.356 197.105 200.262C205.427 192.411 210.361 185.151 214.952 174C218.435 165.54 218.451 165.428 218.451 150C218.451 134.572 218.435 134.46 214.952 126C210.352 114.826 205.425 107.587 197.036 99.673C189.009 92.101 179.82 86.683 169.379 83.367C158.818 80.014 140.761 80.033 130.338 83.409Z" fill="currentColor"/>
</svg>
