<svg width="26" height="23" viewBox="0 0 26 23" fill="none" xmlns="http://www.w3.org/2000/svg">
<path fill-rule="evenodd" clip-rule="evenodd" d="M14.4558 0.267668C12.5142 0.411432 9.78889 0.612438 8.39943 0.714395C7.01003 0.816283 5.86594 0.906957 5.85708 0.915817C5.84123 0.931667 6.13686 1.3732 7.7157 3.69177C8.15641 4.33895 9.31884 6.05207 10.2989 7.49871C11.279 8.94535 12.2306 10.347 12.4137 10.6135C12.7461 11.0973 12.747 11.098 13.0474 11.0803C14.3315 11.0046 24.9793 10.2187 25 10.1981C25.0144 10.1836 24.6279 9.58588 24.141 8.86983C23.0253 7.22918 21.0045 4.24751 19.576 2.13438C18.9712 1.23975 18.3971 0.39219 18.3003 0.250848C18.2035 0.109507 18.0931 -0.00331713 18.0551 7.4511e-05C18.017 0.00346615 16.3973 0.123904 14.4558 0.267668ZM4.84762 2.28258C4.04138 3.94981 2.32839 7.48466 1.49807 9.19453C1.08207 10.0511 0.574848 11.1034 0.370865 11.5331L0 12.3142L1.43598 14.4402C2.22575 15.6094 3.22143 17.0801 3.64857 17.7082C4.07571 18.3364 4.94999 19.629 5.5915 20.5807C6.233 21.5325 6.79553 22.3522 6.84149 22.4023C6.90849 22.4752 7.01474 22.3092 7.37356 21.5717C7.62011 21.0647 8.82864 18.5708 10.0591 16.0295L12.2964 11.4091L11.7889 10.6652C10.435 8.68025 10.3054 8.48935 7.94862 5.00689C6.92787 3.49865 5.41617 1.28108 5.38371 1.24432C5.37159 1.23062 5.13037 1.69783 4.84762 2.28258ZM15.6589 4.97976C15.8749 5.05514 16.0824 5.33955 16.0824 5.56063C16.0824 5.92727 15.6067 6.29143 15.2797 6.17514C14.6957 5.96763 14.6774 5.16194 15.2518 4.95194C15.406 4.89559 15.4201 4.89656 15.6589 4.97976ZM6.16704 6.80806C6.4556 7.14017 6.34396 7.61216 5.93654 7.78236C5.73138 7.86805 5.66826 7.86805 5.4631 7.78236C5.01956 7.597 4.93608 7.10971 5.2877 6.75809C5.46995 6.57591 5.53342 6.55279 5.75492 6.58802C5.90789 6.61239 6.07415 6.70112 6.16704 6.80806ZM9.25834 10.5842C9.50109 10.8726 9.49313 11.1568 9.23522 11.4148C8.97725 11.6727 8.69305 11.6807 8.40462 11.4379C8.23289 11.2934 8.19164 11.2057 8.19164 10.9849C8.19164 10.3952 8.88139 10.1362 9.25834 10.5842ZM20.893 11.0643C18.9514 11.2082 16.3818 11.394 15.1826 11.4773C13.9834 11.5606 12.9479 11.6495 12.8814 11.6748C12.7736 11.716 12.2261 12.7983 10.442 16.4969C10.2032 16.9918 9.75851 17.9107 9.45367 18.5388C7.71356 22.1251 7.43177 22.7164 7.45274 22.7374C7.47552 22.7602 18.6922 21.9644 19.3785 21.8913L19.7329 21.8536L20.0869 21.1081C20.4344 20.3762 20.7994 19.6231 23.1597 14.7665C23.8072 13.4341 24.492 12.0169 24.6814 11.6171C24.8707 11.2174 25.0399 10.867 25.0573 10.8384C25.105 10.7598 24.7156 10.7809 20.893 11.0643ZM3.69786 11.8195C3.96988 12.0915 3.96988 12.3887 3.69786 12.6607C3.27764 13.0809 2.65427 12.8297 2.65427 12.2401C2.65427 11.6505 3.27764 11.3992 3.69786 11.8195ZM20.5791 13.7271C21.1314 14.0127 20.9074 14.8728 20.2762 14.8908C19.8097 14.904 19.5149 14.4395 19.7179 14.0114C19.8906 13.6475 20.217 13.5398 20.5791 13.7271ZM6.59141 15.4315C6.8075 15.5069 7.01495 15.7913 7.01495 16.0124C7.01495 16.4027 6.53299 16.7469 6.177 16.6108C5.6268 16.4004 5.60942 15.6414 6.14973 15.4203C6.33641 15.3439 6.34015 15.344 6.59141 15.4315ZM16.6251 16.3655C16.8542 16.526 16.9329 16.7807 16.8401 17.0618C16.7641 17.2921 16.4863 17.5006 16.2554 17.5006C16.0249 17.5006 15.7468 17.2921 15.671 17.0624C15.5844 16.8002 15.6236 16.6374 15.8279 16.4104C15.9969 16.2227 16.3896 16.2005 16.6251 16.3655ZM12.6162 18.7873C12.7923 18.9355 12.8292 19.0172 12.8292 19.2597C12.8292 20.0011 11.7887 20.1094 11.6074 19.3868C11.5193 19.0358 11.8669 18.618 12.2528 18.6108C12.3356 18.6093 12.4991 18.6887 12.6162 18.7873Z" fill="currentColor"/>
</svg>
