<svg width="200" height="200" viewBox="0 0 200 200" fill="none" xmlns="http://www.w3.org/2000/svg">
<path fill-rule="evenodd" clip-rule="evenodd" d="M32.066 37.25C26.411 42.888 18.007 51.071 13.391 55.435C8.776 59.799 5 63.997 5 64.764C5 66.469 29.949 93 31.551 93C32.181 93 35.293 95.723 38.467 99.05C46.746 107.731 47.4 107.219 47.101 92.294L46.856 80.088L86.509 79.794C124.426 79.513 126.225 79.415 127.581 77.559C129.285 75.228 129.581 56.955 127.965 53.934C126.969 52.073 125.466 52 88.087 52C55.636 52 49.05 51.765 48.059 50.571C47.256 49.603 46.974 45.563 47.186 38.069L47.5 26.996L44.925 26.998C42.996 26.999 39.77 29.571 32.066 37.25ZM152.78 108.75L152.5 121.5L113.566 121.762C79.09 121.994 74.423 122.212 72.816 123.667C71.289 125.049 71 126.924 71 135.464C71 142.021 71.443 146.215 72.25 147.305C73.38 148.83 77.284 149.016 113 149.246L152.5 149.5L152.781 161.75C153.025 172.404 153.279 174 154.728 174C156.907 174 194.932 137.675 194.979 135.549C195.003 134.456 170.8 109.541 169.918 109.75C169.597 109.826 166.235 106.763 162.445 102.944C158.655 99.125 154.993 96 154.307 96C153.391 96 152.985 99.383 152.78 108.75Z" fill="currentColor"/>
</svg>
