<svg width="200" height="200" viewBox="0 0 200 200" fill="none" xmlns="http://www.w3.org/2000/svg">
<path fill-rule="evenodd" clip-rule="evenodd" d="M36.75 22.08C35.106 23.038 35 28.009 35 104.05V185H44.5H54V156.5C54 140.825 54.179 128 54.397 128C54.616 128 57.53 129.357 60.873 131.016C64.216 132.675 69 134.312 71.503 134.655C74.006 134.999 76.294 135.666 76.586 136.14C77.268 137.242 81.309 137.257 82.55 136.161C83.073 135.7 86.603 134.777 90.395 134.11C94.187 133.443 103.412 130.625 110.895 127.848C131.57 120.174 136.308 118.998 146.497 119.012C154.519 119.023 156.345 119.393 163.25 122.408L171 125.792V77.458V29.125L164.271 25.813C157.821 22.637 157.064 22.501 146.021 22.522C133.53 22.546 135.427 22.059 103 33.581C94.058 36.758 90.915 37.379 81.817 37.764C70.329 38.251 65.664 37.191 57.75 32.295C54.845 30.498 54 29.336 54 27.142C54 22.738 51.269 20.995 44.421 21.03C41.165 21.047 37.712 21.519 36.75 22.08Z" fill="currentColor"/>
</svg>
