<?xml version="1.0" encoding="UTF-8"?>
<svg id="Layer_1" xmlns="http://www.w3.org/2000/svg" version="1.1" viewBox="0 0 37 37">
  <!-- Generator: Adobe Illustrator 29.1.0, SVG Export Plug-In . SVG Version: 2.1.0 Build 142)  -->
  <path fill="currentColor" d="M18.4,36.6c-.9,0-1.8,0-2.5-.1-5.9-.7-9.1-3.1-11.3-8.7l-.9-2.1,5.3-2.1.5,1.4c.2.5.7,1.4,1.1,2,2,2.9,4.4,4.4,7.2,4.4,2.1,0,4.4-.8,6.8-2.4,3.8-2.4,6.2-7.6,5.6-12.1-.8-5.9-6-10.3-12.2-10.3s-.8,0-1.1,0c-1.8.2-5,1.4-5.9,2.3h-.1c0,0,1.9,1,1.9,1,2.7,1.4,2.8,1.6,2.9,1.8.2.5.2.7-5.5,2.8l-5.8,2.1-2-5.7C1,6.8.6,5.8,1,5.1c0-.1.3-.3.7-.3s1.1.3,2.1.8l1.4.7.5-.4c1.8-1.6,3.8-2.9,6.4-3.8,2.4-.9,4.1-1.2,6.1-1.2s1.3,0,2,0c1.7.2,5.9,1.2,6.5,2.2.9,0,3,1.8,4.2,2.9,1.3,1.3,2.3,2.6,3.2,4.4.9,1.7,1.8,4.8,2,6.8.6,6.2-2.5,12.6-7.7,16.2-1.9,1.3-6.3,2.9-8.7,3.1-.3,0-.8,0-1.2,0Z"/>
</svg>