<?xml version="1.0" encoding="UTF-8"?>
<svg xmlns="http://www.w3.org/2000/svg" version="1.1" viewBox="0 0 800 800">
  <!-- Generator: Adobe Illustrator 29.1.0, SVG Export Plug-In . SVG Version: 2.1.0 Build 142)  -->
  <g id="Layer_2">
    <path fill="currentColor" d="M400,770.5c-50,0-98.6-9.8-144.2-29.1-44.1-18.7-83.7-45.4-117.8-79.4-34-34-60.8-73.7-79.4-117.8-19.3-45.7-29.1-94.2-29.1-144.2s9.8-98.6,29.1-144.2c18.7-44.1,45.4-83.7,79.4-117.8,34-34,73.7-60.8,117.8-79.4,45.7-19.3,94.2-29.1,144.2-29.1s98.6,9.8,144.2,29.1c44.1,18.7,83.7,45.4,117.8,79.4,34,34,60.8,73.7,79.4,117.8,19.3,45.7,29.1,94.2,29.1,144.2s-9.8,98.6-29.1,144.2c-18.7,44.1-45.4,83.7-79.4,117.8s-73.7,60.8-117.8,79.4c-45.7,19.3-94.2,29.1-144.2,29.1ZM400,60.4c-90.7,0-176,35.3-240.1,99.5-64.1,64.1-99.5,149.4-99.5,240.1s35.3,176,99.5,240.1c64.1,64.1,149.4,99.5,240.1,99.5s176-35.3,240.1-99.5c64.1-64.1,99.5-149.4,99.5-240.1s-35.3-176-99.5-240.1c-64.1-64.1-149.4-99.5-240.1-99.5Z"/>
  </g>
  <g id="Layer_3">
    <polygon fill="currentColor" points="172.1 408.5 203.6 375.7 337.9 510.6 593.5 246.6 627.6 278.3 337.7 571.4 172.1 408.5"/>
  </g>
</svg>