<svg width="14" height="21" viewBox="0 0 14 21" fill="none" xmlns="http://www.w3.org/2000/svg">
<path fill-rule="evenodd" clip-rule="evenodd" d="M3.56201 0.163612C1.89079 0.65133 0.56771 1.99977 0.136656 3.6546C-0.0496418 4.36979 -0.0436085 16.5125 0.143423 17.2342C0.579369 18.9167 1.98007 20.3198 3.65529 20.752C4.38442 20.9401 9.17778 20.941 9.90259 20.7532C11.6006 20.3132 12.9816 18.9322 13.4215 17.2342C13.5325 16.8062 13.5496 15.901 13.5496 10.4452C13.5496 4.98943 13.5325 4.08427 13.4215 3.65623C12.9816 1.95827 11.6006 0.577218 9.90259 0.137277C9.14281 -0.05962 4.25739 -0.0393188 3.56201 0.163612ZM9.02206 1.72526C9.79913 1.83752 10.3708 2.11938 10.9051 2.65373C11.4395 3.188 11.7213 3.7597 11.8336 4.53677C11.9429 5.29305 11.9429 15.5974 11.8336 16.3537C11.7213 17.1308 11.4395 17.7025 10.9051 18.2367C10.0544 19.0875 9.40224 19.2473 6.78249 19.2473C4.16274 19.2473 3.51057 19.0875 2.65988 18.2367C2.12552 17.7025 1.84367 17.1308 1.7314 16.3537C1.62207 15.5974 1.62207 5.29305 1.7314 4.53677C1.84367 3.7597 2.12552 3.188 2.65988 2.65373C3.17507 2.13854 3.77815 1.83059 4.47011 1.72958C5.14901 1.63043 8.34494 1.62742 9.02206 1.72526ZM6.40394 3.34715C5.94304 3.54413 5.80999 4.30163 6.16391 4.71312C6.33235 4.90896 6.42147 4.94189 6.78249 4.94189C7.14351 4.94189 7.23262 4.90896 7.40106 4.71312C7.66677 4.40412 7.67305 3.85631 7.41419 3.55538C7.21232 3.32057 6.70886 3.21686 6.40394 3.34715ZM6.40394 6.60839C5.94304 6.80537 5.80999 7.56287 6.16391 7.97436C6.33235 8.17019 6.42147 8.20313 6.78249 8.20313C7.14351 8.20313 7.23262 8.17019 7.40106 7.97436C7.66677 7.66535 7.67305 7.11755 7.41419 6.81662C7.21232 6.58181 6.70886 6.4781 6.40394 6.60839ZM6.40394 9.86962C5.94304 10.0666 5.80999 10.8241 6.16391 11.2356C6.33235 11.4314 6.42147 11.4644 6.78249 11.4644C7.14351 11.4644 7.23262 11.4314 7.40106 11.2356C7.66677 10.9266 7.67305 10.3788 7.41419 10.0779C7.21232 9.84305 6.70886 9.73934 6.40394 9.86962ZM3.70192 13.0638C3.37531 13.3857 3.11849 13.6777 3.13121 13.7126C3.14392 13.7474 3.97758 14.6458 4.98367 15.709L6.81298 17.6419L6.98118 17.4367C7.07371 17.3238 7.88315 16.453 8.77999 15.5015C9.67683 14.5501 10.4106 13.7294 10.4106 13.6779C10.4106 13.6263 10.15 13.3357 9.83142 13.032L9.25222 12.4798L8.02127 13.7793L6.79023 15.0789L5.54305 13.7787L4.29579 12.4785L3.70192 13.0638Z" fill="currentColor"/>
</svg>
