<svg width="28" height="28" viewBox="0 0 28 28" fill="none" xmlns="http://www.w3.org/2000/svg">
<g clip-path="url(#clip0_26_16)">
<path d="M16.3209 15.2058C17.4247 13.9217 17.5993 12.6658 17.5993 10.8524C17.5993 6.80877 14.3216 3.53107 10.278 3.53107C6.23436 3.53107 2.95667 6.80877 2.95667 10.8524C2.95667 14.896 6.23436 18.1737 10.278 18.1737C12.0914 18.1737 13.3473 17.9991 14.6314 16.8953L20.9784 23.2311L22.6566 21.5528L16.3209 15.2058ZM10.278 15.921C7.47336 15.921 5.20938 13.657 5.20938 10.8524C5.20938 8.04776 7.47336 5.78379 10.278 5.78379C13.0826 5.78379 15.3466 8.04776 15.3466 10.8524C15.3466 13.657 13.0826 15.921 10.278 15.921Z" fill="currentColor"/>
</g>
<defs>
<clipPath id="clip0_26_16">
<rect width="27.0326" height="27.0326" fill="white"/>
</clipPath>
</defs>
</svg>
