<svg width="231" height="231" viewBox="0 0 231 231" fill="none" xmlns="http://www.w3.org/2000/svg">
<circle cx="115.44" cy="115.44" r="105.102" stroke="currentColor" stroke-width="20.6759"/>
<path d="M76.5963 166.298V100.581C76.5963 96.9136 75.4383 95.0801 73.1223 95.0801C72.1573 95.0801 70.8545 95.6109 69.214 96.6724L63.7134 100.291C62.7484 100.967 61.6386 101.304 60.3841 101.304C59.2261 101.304 58.1164 100.484 57.0548 98.8437L53.0018 92.3298C51.3613 89.6278 51.892 87.4565 54.5941 85.816L79.4914 70.3276C80.2634 69.8451 81.0836 69.6038 81.9521 69.6038H89.045C90.4925 69.6038 91.6505 70.0381 92.519 70.9066C93.3875 71.7751 93.8218 72.9331 93.8218 74.3806V166.298C93.8218 167.745 93.3875 168.903 92.519 169.772C91.6505 170.641 90.4925 171.075 89.045 171.075H81.3731C79.9256 171.075 78.7676 170.641 77.8991 169.772C77.0306 168.903 76.5963 167.745 76.5963 166.298ZM157.949 138.361C157.949 127.263 153.944 121.714 145.935 121.714C141.689 121.714 138.601 122.921 136.671 125.333C135.416 127.07 133.872 127.939 132.038 127.939H123.932C122.485 127.939 121.327 127.505 120.458 126.636C119.59 125.767 119.156 124.609 119.156 123.162V74.5254C119.156 73.0779 119.59 71.9199 120.458 71.0513C121.327 70.1828 122.485 69.7486 123.932 69.7486H166.779C168.226 69.7486 169.384 70.1828 170.253 71.0513C171.121 71.9199 171.556 73.0779 171.556 74.5254V80.7497C171.556 82.1972 171.121 83.3552 170.253 84.2237C169.384 85.0923 168.226 85.5265 166.779 85.5265H141.158C139.71 85.5265 138.552 85.9608 137.684 86.8293C136.815 87.6978 136.381 88.8558 136.381 90.3033V106.516C136.381 108.156 137.008 108.639 138.263 107.963C140.965 106.612 144.198 105.937 147.961 105.937C151.821 105.937 155.585 106.805 159.252 108.542C162.919 110.183 165.959 112.499 168.371 115.49C173.003 121.28 175.319 128.904 175.319 138.361C175.319 148.59 172.521 156.696 166.924 162.679C161.134 168.855 153.124 171.943 142.895 171.943C137.684 171.943 132.666 170.785 127.841 168.469C123.112 166.153 119.156 162.969 115.971 158.916C115.006 157.854 114.668 156.744 114.958 155.586C115.247 154.428 115.971 153.463 117.129 152.691L123.788 148.494C124.656 147.914 125.669 147.625 126.827 147.625C128.082 147.625 129.336 148.349 130.591 149.796C134.355 153.56 138.697 155.442 143.619 155.442C148.637 155.442 152.255 153.898 154.475 150.81C156.791 147.625 157.949 143.475 157.949 138.361Z" fill="currentColor"/>
</svg>
