<?xml version="1.0" encoding="UTF-8"?>
<svg id="a" xmlns="http://www.w3.org/2000/svg" width="251.98" height="181.27" viewBox="0 0 251.98 181.27">
  <circle cx="128.93" cy="91.4" r="30.35" fill="currentColor"/>
  <path d="M248.14,73.65c-8.84-20.7-27.64-35.68-46.19-48.87-15.44-10.3-33.14-18.63-51.03-22.77-10.37-2.25-21-2.39-31.59-1.5l-.21.02C82.49,3.21,51.18,24.99,25.65,50.15-.88,75.56-11.35,101.67,16.32,130.53c12.92,13.54,28.76,24.07,45.3,32.88,21.75,11.58,45.52,17.82,69.99,17.85,28.87.38,57.04-10.2,79.82-27.62,23.72-18.45,50.68-48.15,36.71-79.99h0ZM130.06,142.28c-31.38,0-56.81-23.16-56.81-51.72s25.43-51.72,56.81-51.72,56.81,23.16,56.81,51.72-25.43,51.72-56.81,51.72Z" fill="currentColor"/>
</svg>