<svg width="18" height="18" viewBox="0 0 18 18" fill="none" xmlns="http://www.w3.org/2000/svg">
<path fill-rule="evenodd" clip-rule="evenodd" d="M10.3348 17.751C10.509 17.5644 10.5617 17.4333 10.5617 17.1866C10.5617 16.8763 10.5201 16.8236 9.36388 15.6673L8.16603 14.4694L11.2057 11.4271C12.8775 9.75382 14.2978 8.34129 14.3619 8.28801C14.4599 8.20673 14.6705 8.38072 15.6794 9.37649C16.8434 10.5254 16.8901 10.5617 17.2084 10.5617C17.4669 10.5617 17.5852 10.5131 17.7653 10.333L17.994 10.1043V5.32206V0.539888L17.7319 0.269899L17.4697 -9.53674e-06H12.7255C8.00596 -9.53674e-06 7.98022 0.000850677 7.79066 0.165613C7.53538 0.387566 7.40246 0.730545 7.46872 0.995995C7.50189 1.12884 7.97756 1.67093 8.69841 2.39757L9.87397 3.58243L9.4159 4.0491C9.16399 4.30571 7.74505 5.73655 6.26273 7.22871L3.56747 9.94174L2.39012 8.77299C1.74249 8.13013 1.13289 7.58061 1.03541 7.55167C0.791864 7.47954 0.372213 7.63139 0.168882 7.86515L5.14984e-05 8.05933V12.7931V17.5267L0.254314 17.7581L0.508575 17.9893L5.30819 17.9917L10.1078 17.994L10.3348 17.751ZM1.62522 13.3415L1.60386 10.3356L2.39442 11.1136L3.18498 11.8917H3.58171H3.97836L7.93508 7.93854L11.8917 3.98542V3.62014C11.8917 3.26112 11.878 3.24125 11.0857 2.44889L10.2797 1.64292H13.335L16.3902 1.64284L16.3689 4.66802L16.3474 7.69312L15.5392 6.8977C14.7642 6.13515 14.7167 6.10221 14.387 6.09987L14.0432 6.09736L10.0798 10.1007C7.44329 12.7638 6.1036 14.1711 6.07818 14.3043C6.01543 14.6324 6.14272 14.8341 6.91615 15.631L7.65281 16.3901L4.64969 16.3688L1.64658 16.3474L1.62522 13.3415Z" fill="currentColor"/>
</svg>
