<svg width="100" height="105" viewBox="0 0 100 105" fill="none" xmlns="http://www.w3.org/2000/svg">
<path fill-rule="evenodd" clip-rule="evenodd" d="M54.99 19.2C51.97 23.16 46.575 30.099 43 34.621C39.425 39.143 33.066 47.265 28.869 52.671L21.237 62.5L18.619 74.424C17.178 80.983 16 87.34 16 88.552C16 91.938 18.203 93.151 22.969 92.389C25.276 92.02 26.69 91.426 26.112 91.07C25.535 90.713 28.713 88.863 33.175 86.96C37.636 85.057 42.685 82.123 44.393 80.441C47.062 77.813 63.039 57.727 79.225 36.652C81.823 33.268 83.961 29.58 83.975 28.455C83.991 27.138 82.133 25.015 78.75 22.485C75.862 20.325 71.732 17.083 69.57 15.279C63.478 10.196 61.436 10.746 54.99 19.2ZM65 22.252C65 22.941 63.087 25.593 60.75 28.145C58.413 30.697 53.01 37.514 48.745 43.293C44.479 49.072 39.642 55.243 37.995 57.006C36.348 58.769 35 60.559 35 60.983C35 62.256 32.006 64.339 31.255 63.588C30.872 63.205 31.146 62.528 31.864 62.084C32.583 61.64 33.02 61.064 32.835 60.804C32.435 60.239 46.326 41.828 50.25 37.723C51.763 36.141 53 34.435 53 33.932C53 33.429 53.9 32.455 55 31.768C56.1 31.081 57 30.151 57 29.701C57 28.509 63.186 21 64.167 21C64.625 21 65 21.563 65 22.252ZM58.821 50.811C49.844 62.399 42.163 71.907 41.75 71.94C39.913 72.087 41.435 69.356 47.25 62.076C50.688 57.771 58 48.397 63.5 41.245C69 34.092 73.869 28.577 74.321 28.99C74.772 29.403 67.797 39.223 58.821 50.811ZM32.492 73.859L35.748 76.718L32.97 78.359C31.442 79.261 29.252 80 28.104 80C26.329 80 26.08 79.514 26.441 76.75C26.674 74.963 26.895 72.938 26.933 72.25C27.042 70.231 29.008 70.8 32.492 73.859Z" fill="currentColor"/>
</svg>
