<?xml version="1.0" encoding="UTF-8"?>
<svg id="Layer_1" xmlns="http://www.w3.org/2000/svg" version="1.1" viewBox="0 0 21 19">
  <!-- Generator: Adobe Illustrator 29.1.0, SVG Export Plug-In . SVG Version: 2.1.0 Build 142)  -->
  <path fill="currentColor" d="M2.9,18.3c.6,0,.8,0,1-.2l.3-.2V4.6h.7c1.4,0,1.3-.4-.4-2.7C3.7.8,3,0,3,0c0,0-.2,0-.3,0-.3.2-2.7,3.7-2.7,3.9,0,.5.2.6.9.6h.7v13.1l.3.3c.2.2.4.3,1,.3ZM14,18.2h6.3s.3-.3.3-.3c.2-.2.3-.4.3-.9s0-.6-.3-.9l-.3-.3h-6.2c-4.3,0-6.3,0-6.5.1-.7.3-.7,1.5,0,2,.1.1,1.7.1,6.5.1ZM12.9,12.9h5.1s.3-.3.3-.3c.4-.4.4-1.3,0-1.7l-.3-.3h-5.1c-3.5,0-5.2,0-5.4.1-.7.3-.7,1.7,0,2,.2,0,2.1.1,5.4.1ZM11.6,7.6c3.7,0,3.8,0,4.1-.2.3-.2.3-.3.3-.9s0-.7-.3-.9c-.3-.2-.4-.2-4.1-.2s-3.9,0-4.1.1c-.7.3-.7,1.7,0,2,.2,0,1.7.1,4.1.1ZM10.4,2.3h2.6s.3-.3.3-.3c.2-.2.3-.4.3-.9s0-.6-.3-.9l-.3-.3h-2.6c-1.9,0-2.7,0-2.8.1-.6.5-.6,1.7,0,2,.1,0,1.3.1,2.8.1Z" fill-rule="evenodd"/>
</svg>