<svg width="21" height="19" viewBox="0 0 21 19" fill="none" xmlns="http://www.w3.org/2000/svg">
<path fill-rule="evenodd" clip-rule="evenodd" d="M1.86835 0.267303L1.61722 0.534721V7.08272V13.6308H0.928168C0.210354 13.6308 0 13.7775 0 14.278C0 14.4704 2.45043 17.9889 2.70572 18.1631C2.77411 18.2098 2.89008 18.2487 2.96344 18.2497C3.03679 18.2506 3.6995 17.4068 4.43626 16.3743C6.12521 14.0074 6.17904 13.6308 4.82855 13.6308H4.15856V7.05095V0.471073L3.9057 0.235536C3.70401 0.0475926 3.49816 0 2.88627 0C2.23419 0 2.08205 0.0399687 1.86835 0.267303ZM7.49846 0.148091C6.85966 0.63857 6.91199 1.87563 7.5844 2.18209C7.77951 2.27092 9.76268 2.31031 14.0459 2.31031H20.2257L20.5092 2.02672C20.7361 1.79996 20.7928 1.62553 20.7928 1.15516C20.7928 0.684776 20.7361 0.510348 20.5092 0.283591L20.2257 0L13.9537 0.00369623C9.20555 0.0064686 7.63731 0.0415853 7.49846 0.148091ZM7.55056 5.44887C6.86497 5.78074 6.88808 7.17848 7.5844 7.4958C7.77708 7.58359 9.46962 7.62403 12.9485 7.62403H18.0309L18.3144 7.34043C18.7205 6.93451 18.7205 6.00323 18.3144 5.59731L18.0309 5.31371L12.9141 5.32157C9.64231 5.32654 7.70835 5.3724 7.55056 5.44887ZM7.55056 10.7626C6.86497 11.0945 6.88808 12.4922 7.5844 12.8095C7.77246 12.8951 9.12457 12.9377 11.6569 12.9377C15.3172 12.9377 15.4584 12.9295 15.7523 12.6983C16.0192 12.4884 16.0567 12.3756 16.0567 11.7826C16.0567 11.1895 16.0192 11.0768 15.7523 10.8669C15.4578 10.6352 15.3238 10.6277 11.6226 10.6353C9.24055 10.6401 7.70419 10.6882 7.55056 10.7626ZM7.55056 16.0763C6.90968 16.3866 6.8778 17.6269 7.49846 18.1034C7.62992 18.2042 8.42732 18.2451 10.315 18.2478L12.9483 18.2515L13.2317 17.9679C13.4586 17.7411 13.5153 17.5667 13.5153 17.0963C13.5153 16.6259 13.4586 16.4515 13.2317 16.2247L12.9483 15.9411L10.3727 15.949C8.85207 15.9536 7.69622 16.0057 7.55056 16.0763Z" fill="currentColor"/>
</svg>
