<svg width="23" height="23" viewBox="0 0 23 23" fill="none" xmlns="http://www.w3.org/2000/svg">
<path fill-rule="evenodd" clip-rule="evenodd" d="M10 1.2405C10 3.655 14.0485 3.502 14.41 1.074C14.5535 0.1085 14.338 0 12.285 0C10.1855 0 10 0.101 10 1.2405ZM6.086 1.5045C4.835 2.546 4.79 4.158 6.0055 4.3655C6.415 4.4355 7.3125 4.0535 8 3.517C9.0035 2.7345 9.1445 2.371 8.7145 1.676C7.9495 0.4395 7.408 0.404 6.086 1.5045ZM15.625 1.831C14.7435 2.187 14.845 2.878 16.02 4.528C16.925 5.799 17.1785 5.8975 18.27 5.4C19.826 4.691 19.8175 4.1585 18.224 2.6825C16.9145 1.4685 16.699 1.398 15.625 1.831ZM3.625 5.331C3.279 5.471 3 6.431 3 7.4835C3 9.002 3.214 9.4395 4.0655 9.662C5.5915 10.061 6.6825 8.7955 6.261 7.115C5.809 5.3145 5.009 4.773 3.625 5.331ZM7.076 9.4465C5.968 10.1425 6.636 11.6475 8.2435 12.0775C10.1855 12.597 11.6625 11.4265 10.482 10.3035C9.469 9.34 7.8815 8.9405 7.076 9.4465ZM12.17 10.9015C11.2645 11.807 12.0185 12.755 14.037 13.249C15.4725 13.6005 16.7965 12.4935 16.3455 11.319C15.9535 10.297 13.0635 10.008 12.17 10.9015ZM16.855 13.391C15.8635 14.4955 16.2895 16.8655 17.5505 17.266C18.9495 17.71 19.5 17.1375 19.5 15.238C19.5 13.0905 18.04 12.071 16.855 13.391ZM3.875 17.3445C3.3935 17.4705 3.0125 17.838 3.0275 18.1615C3.071 19.087 5.945 21.128 6.763 20.8145C7.7815 20.4235 7.6865 18.824 6.5855 17.8275C5.654 16.9845 5.4155 16.942 3.875 17.3445ZM14.8185 19.0355C13.7445 19.88 13.5975 20.248 14.019 21.0355C14.69 22.289 15.1515 22.252 16.831 20.8075C18.025 19.78 18.1245 19.5025 17.5475 18.8075C16.683 17.7655 16.4035 17.7885 14.8185 19.0355ZM8.6 20.1C8.27 20.43 8 21.105 8 21.6C8 22.3465 8.426 22.5 10.5 22.5C12.6515 22.5 13 22.363 13 21.5175C13 19.823 9.882 18.818 8.6 20.1Z" fill="currentColor"/>
</svg>
