<svg width="36" height="36" viewBox="0 0 36 36" fill="none" xmlns="http://www.w3.org/2000/svg">
<path fill-rule="evenodd" clip-rule="evenodd" d="M16.7225 2.0172C16.5373 2.22178 15.6685 4.58715 14.7917 7.27338L13.1975 12.1577L7.83273 12.2491C2.21749 12.3447 1.7937 12.4072 1.54963 13.1762C1.26918 14.0602 1.58309 14.3728 5.88383 17.493C8.21446 19.184 10.1842 20.6107 10.2608 20.6634C10.3374 20.716 9.66425 23.0181 8.76494 25.7793C7.86582 28.5403 7.12995 30.9337 7.12995 31.0978C7.12995 31.6308 7.85265 32.3599 8.37736 32.3562C8.71905 32.3538 10.1886 31.3898 13.2439 29.1636C15.8912 27.235 17.6977 26.0336 17.8145 26.1243C17.9209 26.2069 19.6945 27.4924 21.7558 28.9809C23.8172 30.4697 25.6736 31.8388 25.8811 32.0237C26.5601 32.6281 27.4705 32.3884 27.9557 31.4774C28.1547 31.1042 27.9779 30.4254 26.51 25.9236C25.5902 23.1028 24.9053 20.7332 24.988 20.6581C25.0704 20.5829 26.9892 19.1821 29.2516 17.5453C31.514 15.9083 33.4653 14.4379 33.5878 14.2775C33.9677 13.7802 33.8491 13.2184 33.2596 12.7224L32.6973 12.2491L27.3636 12.2451L22.0301 12.2411L20.4761 7.3785C19.6214 4.70416 18.7722 2.32014 18.5888 2.08064C18.1606 1.5212 17.2008 1.48866 16.7225 2.0172Z" fill="currentColor"/>
</svg>
