<svg width="36" height="36" viewBox="0 0 36 36" fill="none" xmlns="http://www.w3.org/2000/svg">
<path fill-rule="evenodd" clip-rule="evenodd" d="M17.2798 1.85868C17.2309 1.99269 16.3384 4.5705 15.2965 7.58709L13.4019 13.0718L7.32795 13.1201C2.24234 13.1603 1.26369 13.2096 1.31269 13.4234C1.34505 13.5636 3.387 15.2562 5.85055 17.1844C8.3141 19.1128 10.4338 20.7902 10.5608 20.9124C10.7458 21.0901 10.4279 22.245 8.96111 26.7218C7.95412 29.7948 7.13031 32.403 7.13031 32.5173C7.13031 32.6317 7.21368 32.7253 7.3157 32.7253C7.41753 32.7253 9.72001 31.2445 12.4322 29.4345C15.1444 27.6245 17.4465 26.1437 17.5481 26.1437C17.6496 26.1437 19.9525 27.6245 22.6654 29.4345C25.3783 31.2445 27.691 32.7253 27.8049 32.7253C28.0885 32.7253 28.0307 32.5196 26.0319 26.4179L24.2951 21.116L24.8997 20.6279C25.232 20.3595 27.3552 18.6841 29.6176 16.9047C31.88 15.1255 33.7576 13.5555 33.7902 13.4164C33.8397 13.2047 32.8519 13.1625 27.757 13.1583L21.6648 13.1535L20.8666 10.7359C18.1835 2.60881 17.5646 1.07729 17.2798 1.85868ZM19.0385 10.558L20.4289 14.7172L24.9386 14.7662L29.4483 14.815L26.0136 17.4859C24.1245 18.9549 22.5107 20.2187 22.4273 20.2942C22.344 20.3699 22.8904 22.334 23.6413 24.659C24.3923 26.9838 24.9715 28.886 24.9284 28.886C24.8852 28.886 23.2552 27.8165 21.3061 26.5093C19.357 25.2021 17.6584 24.1326 17.5317 24.1326C17.4048 24.1326 15.7047 25.2087 13.754 26.5241C11.8031 27.8394 10.1835 28.8884 10.1548 28.8551C10.1262 28.8219 10.7082 26.9435 11.4482 24.6811C12.1883 22.4186 12.7741 20.5118 12.7501 20.4438C12.7115 20.3343 10.9548 18.9381 6.88697 15.7834L5.63829 14.815L10.146 14.7662L14.6537 14.7172L16.0567 10.5589C16.8284 8.27177 17.5023 6.4002 17.554 6.39965C17.6057 6.3991 18.2738 8.2703 19.0385 10.558ZM17.1646 10.558C17.0368 10.9351 16.594 12.2719 16.1806 13.5289L15.4289 15.8141L12.1936 15.8641C10.4144 15.8915 8.96257 15.9738 8.96769 16.0469C8.97263 16.12 10.0895 17.0025 11.4495 18.008C12.8097 19.0136 13.9566 19.8887 13.9983 19.9531C14.0399 20.0173 13.6275 21.414 13.0816 23.0571C12.5357 24.7001 12.1291 26.0844 12.1781 26.1333C12.2269 26.1821 12.3837 26.1428 12.5267 26.0459C12.6695 25.9488 13.8238 25.1497 15.0915 24.2697C16.3594 23.39 17.4683 22.67 17.5555 22.67C17.7127 22.67 21.7628 25.4106 22.3191 25.8932C23.0798 26.5534 23.0316 26.1674 21.9387 22.8516C21.4355 21.3255 21.0574 20.0227 21.0984 19.9566C21.1393 19.8904 22.2864 19.0136 23.6473 18.008C25.0084 17.0025 26.127 16.12 26.133 16.0469C26.139 15.9738 24.6881 15.8915 22.9089 15.8641L19.6737 15.8141L18.9219 13.5289C17.7485 9.96197 17.7149 9.87239 17.5513 9.87239C17.4662 9.87239 17.2924 10.181 17.1646 10.558Z" fill="currentColor"/>
</svg>
