<svg width="23" height="23" viewBox="0 0 23 23" fill="none" xmlns="http://www.w3.org/2000/svg">
<path fill-rule="evenodd" clip-rule="evenodd" d="M4.9665 2.036C3.2655 3.8565 2.681 6.366 3.4465 8.562C3.751 9.435 4 10.228 4 10.3245C4 10.421 3.1 10.5 2 10.5C0.0475 10.5 0 10.5415 0 12.25V14H6C9.3 14 12 14.1715 12 14.3815C12 14.591 12.505 14.985 13.122 15.2565C13.739 15.528 14.322 16.164 14.4175 16.6695C14.654 17.926 12.5975 20 11.115 20C9.5545 20 7.0585 18.219 6.4775 16.691C6.1655 15.8705 5.632 15.5 4.7625 15.5C3.5555 15.5 3.5 15.629 3.5 18.4465C3.5 21.9985 3.503 22 9.574 22C14.082 22 15.5305 21.6125 17.09 19.9905C18.0575 18.9845 19.1905 15.2125 18.743 14.4885C18.5655 14.201 19.277 14 20.4705 14C22.4565 14 22.5 13.9625 22.5 12.25V10.5H19C16.5355 10.5 15.499 10.315 15.4965 9.875C15.4945 9.5315 14.2005 8.834 12.6215 8.3255C7.5845 6.704 6.33 5.2135 8.4145 3.3275C10.1915 1.719 12.3205 2.7065 13.9715 5.9055C14.3715 6.681 14.926 7.0095 15.659 6.9055C16.6 6.7715 16.747 6.4405 16.7265 4.5C16.6845 0.525 16.6505 0.5 11.2165 0.5C6.486 0.5 6.376 0.527 4.9665 2.036Z" fill="currentColor"/>
</svg>
