<svg width="40" height="40" viewBox="0 0 40 40" fill="none" xmlns="http://www.w3.org/2000/svg">
<path fill="currentColor" d="M35.3619 19.1262L20.497 4.2613C19.9024 3.66671 19.0766 3.30334 18.1682 3.30334H6.60665C4.78983 3.30334 3.30334 4.78983 3.30334 6.60665V18.1682C3.30334 19.0766 3.66671 19.9024 4.27782 20.5136L19.1427 35.3784C19.7373 35.973 20.5631 36.3364 21.4715 36.3364C22.3799 36.3364 23.2057 35.973 23.8003 35.3619L35.3619 23.8003C35.973 23.2057 36.3364 22.3799 36.3364 21.4715C36.3364 20.5631 35.9565 19.7208 35.3619 19.1262ZM21.4715 33.0496L6.60665 18.1682V6.60665H18.1682V6.59013L33.0331 21.455L21.4715 33.0496V33.0496Z"/>
<path fill="currentColor" d="M10.7358 13.2133C12.1041 13.2133 13.2133 12.1041 13.2133 10.7358C13.2133 9.36751 12.1041 8.2583 10.7358 8.2583C9.36751 8.2583 8.2583 9.36751 8.2583 10.7358C8.2583 12.1041 9.36751 13.2133 10.7358 13.2133Z"/>
</svg>
