<svg width="40" height="40" viewBox="0 0 40 40" fill="none" xmlns="http://www.w3.org/2000/svg">
<g clip-path="url(#clip0_21_34)">
<path d="M35.362 19.1262L20.4971 4.26131C19.9025 3.66671 19.0767 3.30334 18.1683 3.30334H6.60666C4.78984 3.30334 3.30334 4.78984 3.30334 6.60666V18.1683C3.30334 19.0767 3.66671 19.9025 4.27782 20.5136L19.1427 35.3785C19.7373 35.9731 20.5632 36.3365 21.4716 36.3365C22.38 36.3365 23.2058 35.9731 23.8004 35.362L35.362 23.8004C35.9731 23.2058 36.3365 22.38 36.3365 21.4716C36.3365 20.5632 35.9566 19.7208 35.362 19.1262ZM9.08414 11.5616C7.71327 11.5616 6.60666 10.455 6.60666 9.08414C6.60666 7.71327 7.71327 6.60666 9.08414 6.60666C10.455 6.60666 11.5616 7.71327 11.5616 9.08414C11.5616 10.455 10.455 11.5616 9.08414 11.5616Z" fill="currentColor"/>
</g>
<defs>
<clipPath id="clip0_21_34">
<rect width="39.6398" height="39.6398" fill="white"/>
</clipPath>
</defs>
</svg>
