<svg width="18" height="18" viewBox="0 0 18 18" fill="none" xmlns="http://www.w3.org/2000/svg">
<path fill-rule="evenodd" clip-rule="evenodd" d="M7.26038 0.133206C5.75196 0.379015 4.28528 1.05906 3.08545 2.06899C1.50242 3.40151 0.450146 5.27816 0.12582 7.34724C-0.0314738 8.35022 -0.0308652 9.06643 0.128081 10.0427C0.587876 12.8675 2.35332 15.2446 4.90811 16.4789C7.85348 17.9018 11.2024 17.5853 13.8331 15.6356C14.6442 15.0344 15.0345 14.6441 15.6357 13.833C17.5882 11.1986 17.9021 7.85373 16.4742 4.89819C14.808 1.44955 11.064 -0.486579 7.26038 0.133206ZM10.7072 2.12481C12.6452 2.76772 14.0241 3.95756 14.8744 5.72057C16.8362 9.78821 14.3544 14.6081 9.8689 15.4418C8.85854 15.6296 7.60862 15.5502 6.56478 15.2319C5.71527 14.9729 4.74438 14.3795 3.95452 13.6365C3.05284 12.7884 2.53992 11.9622 2.11012 10.6659C1.8984 10.0271 1.87449 9.82908 1.8724 8.69498C1.87022 7.5401 1.89057 7.37272 2.11499 6.70181C2.52879 5.46485 3.01415 4.65586 3.83505 3.83496C4.65647 3.01353 5.4932 2.51139 6.65842 2.14072C7.57775 1.84822 7.69479 1.83457 8.95592 1.87205C9.82613 1.89796 10.1752 1.94839 10.7072 2.12481ZM7.91251 3.87626C6.06394 4.20493 4.60352 5.49676 3.98826 7.34724C3.91678 7.56227 3.874 8.09328 3.87618 8.73845C3.87931 9.67778 3.90418 9.84255 4.12564 10.3905C4.70308 11.8195 5.81796 12.8599 7.30386 13.3566C7.99094 13.5862 9.50371 13.5648 10.2011 13.3155C11.6515 12.7971 12.815 11.6364 13.3014 10.2227L13.468 9.73839H12.2554C11.2081 9.73839 11.0427 9.75717 11.0427 9.87577C11.0427 10.1279 10.0753 10.9887 9.60805 11.1522C8.60899 11.5019 7.62706 11.2763 6.86267 10.5214C6.29228 9.95811 6.08655 9.45684 6.08655 8.63064C6.08655 7.23229 7.23239 6.08646 8.63073 6.08646C8.93601 6.08646 9.36859 6.14872 9.59205 6.22488C10.0281 6.37348 10.7518 6.96614 10.9505 7.33733L11.0721 7.56462H12.2407H13.4093L13.3542 7.32551C13.2448 6.84997 12.6788 5.849 12.2782 5.42242C11.3242 4.40648 10.297 3.92417 8.97505 3.8713C8.51021 3.85278 8.03207 3.85496 7.91251 3.87626Z" fill="currentColor"/>
</svg>
