<svg width="7" height="7" viewBox="0 0 7 7" fill="none" xmlns="http://www.w3.org/2000/svg">
<path d="M1.07837 6.70441C0.911309 6.87135 0.639916 6.87142 0.4729 6.70441L0.125244 6.35577C-0.0417218 6.18875 -0.0416842 5.91833 0.125244 5.75128L2.46216 3.41534L0.125244 1.07843C-0.0418077 0.911378 -0.0418077 0.640013 0.125244 0.472961L0.4729 0.125305C0.639952 -0.0417466 0.911317 -0.0417466 1.07837 0.125305L3.41528 2.46222L5.75122 0.125305C5.91826 -0.0416331 6.18869 -0.0416646 6.35571 0.125305L6.70435 0.472961C6.87137 0.639981 6.8713 0.911371 6.70435 1.07843L4.36841 3.41534L6.70435 5.75128C6.87104 5.91828 6.87108 6.1888 6.70435 6.35577L6.35571 6.70441C6.18874 6.87112 5.91822 6.87109 5.75122 6.70441L3.41528 4.36847L1.07837 6.70441Z" fill="currentColor"/>
</svg>
