<svg width="21" height="20" viewBox="0 0 21 20" fill="none" xmlns="http://www.w3.org/2000/svg">
<path fill-rule="evenodd" clip-rule="evenodd" d="M3.26665 0.964769C2.64383 1.49544 1.65398 2.33798 1.06702 2.83733L0 3.74523V10.9517C0 17.8557 0.0190661 18.1773 0.453954 18.6122C0.886798 19.0451 1.21047 19.0662 7.44734 19.0662C13.7148 19.0662 14.0076 19.0469 14.4836 18.6034C15.153 17.9799 15.155 16.8949 14.487 16.7204C13.8597 16.5563 13.6186 16.7081 13.6186 17.2674C13.6186 17.6989 13.4429 17.71 7.48297 17.6512L1.34733 17.5908V10.93L1.34756 4.2691L2.43274 3.34076C3.02969 2.83006 3.74784 2.20928 4.02884 1.96097L4.53954 1.50974V3.02481V4.53965H3.74512C3.01107 4.53965 2.9507 4.59231 2.9507 5.23102V5.92217L4.48279 5.85521L6.01489 5.78803V3.46129V1.13432L9.81675 1.13477L13.6186 1.135V2.68593C13.6186 3.53914 13.6722 4.29043 13.7375 4.3558C13.8027 4.42117 14.1091 4.42639 14.4185 4.36715C14.9587 4.26388 14.9805 4.19192 14.9805 2.50549C14.9805 -0.0884041 15.1823 0.000117226 9.2745 0.000117226H4.39881L3.26665 0.964769ZM13.7321 5.76714C12.2656 6.46782 11.4149 7.29878 10.8749 8.55828C10.2973 9.90584 10.3277 11.0832 10.9777 12.534C11.9453 14.6937 13.6862 15.768 15.9814 15.6218C17.6406 15.516 18.8459 14.8557 19.8988 13.475C20.4536 12.748 20.5525 12.3885 20.6224 10.8482C20.6696 9.81187 20.5927 8.79592 20.4388 8.42482C20.0548 7.49761 18.4244 6.02612 17.3024 5.59396C15.9783 5.08394 15.0701 5.12798 13.7321 5.76714ZM17.4672 7.03118C18.6995 7.6599 19.3543 8.67177 19.4755 10.1353C19.6004 11.6388 19.2687 12.475 18.1452 13.49C16.6753 14.8178 14.845 14.8512 13.3008 13.5781C11.7964 12.3381 11.372 10.3596 12.2436 8.65088C13.1948 6.78627 15.5534 6.05495 17.4672 7.03118ZM2.64814 8.54965C2.56484 8.63273 2.49674 8.93914 2.49674 9.23058C2.49674 9.66774 2.61568 9.76012 3.17768 9.76012C3.74466 9.76012 3.85861 9.6691 3.85861 9.21696C3.85861 8.57871 3.05942 8.13814 2.64814 8.54965ZM5.14488 8.54965C5.06158 8.63273 4.99349 8.943 4.99349 9.23875C4.99349 9.77215 5.01142 9.77601 7.20651 9.71155L9.41954 9.64663L9.49126 9.02245L9.56321 8.39826H7.42963C6.25616 8.39826 5.22796 8.46635 5.14488 8.54965ZM16.3423 9.64663C15.8126 10.3332 15.3216 10.895 15.2513 10.895C15.1809 10.895 14.8842 10.6705 14.5923 10.3961C14.0644 9.90016 14.0589 9.89994 13.6147 10.3439C13.1708 10.7879 13.1751 10.7956 14.3776 11.7348L15.5867 12.679L16.8723 11.0087C17.5796 10.0901 18.1581 9.2728 18.1581 9.19268C18.1581 9.02744 17.5637 8.39826 17.4075 8.39826C17.3515 8.39826 16.8721 8.96003 16.3423 9.64663ZM2.49674 11.8179C2.49674 12.4434 2.56007 12.5068 3.12093 12.4421C3.6112 12.3858 3.76055 12.2364 3.81684 11.7462C3.88153 11.1853 3.8182 11.122 3.19266 11.122C2.56733 11.122 2.49674 11.1926 2.49674 11.8179ZM4.99349 11.8029V12.4838H7.26326H9.53303V11.8029V11.122H7.26326H4.99349V11.8029ZM2.53851 14.4699C2.59548 14.9652 2.72735 15.0941 3.17768 15.0941C3.628 15.0941 3.75987 14.9652 3.81684 14.4699C3.88176 13.9065 3.81957 13.8457 3.17768 13.8457C2.53578 13.8457 2.47359 13.9065 2.53851 14.4699ZM5.03525 14.4699L5.10698 15.0941L8.11442 15.1574C11.2431 15.2232 11.4592 15.1526 10.731 14.3022C10.3801 13.8925 10.0642 13.8457 7.65161 13.8457H4.9633L5.03525 14.4699Z" fill="currentColor"/>
</svg>
