<svg width="23" height="23" viewBox="0 0 23 23" fill="none" xmlns="http://www.w3.org/2000/svg">
<path fill-rule="evenodd" clip-rule="evenodd" d="M0.500014 2.016C0.500014 3.1195 0.798014 3.6425 1.59501 3.937C2.56201 4.295 2.67501 4.6605 2.56301 7.0735C2.35951 11.4625 3.26451 13.964 5.83651 16.125C7.06401 17.156 8.67151 18.0435 9.40901 18.097C10.1465 18.15 8.50001 18.319 5.75001 18.472L0.750014 18.75L0.595014 20.625L0.439514 22.5H11.22H22V20.8035C22 18.683 21.5745 18.5135 16.084 18.449C12.7605 18.4095 12.145 18.3045 13.4435 17.998C14.3845 17.776 16.051 16.6845 17.1935 15.5425L19.25 13.487L19.4235 8.7435C19.5755 4.577 19.7055 4 20.495 4C21.4415 4 22 3.0575 22 1.459C22 0.5845 21.6025 0.5 17.5 0.5C13.0685 0.5 13 0.5185 13 1.7145C13 3.053 14.316 4.6725 15.0405 4.225C15.3035 4.0625 15.5 5.453 15.5 7.475C15.5 10.6805 15.367 11.148 14.071 12.5045C12.2775 14.381 10.478 14.4335 8.49551 12.6675C7.09201 11.4165 7.00001 11.1095 7.00001 7.6675C7.00001 4.345 7.09301 4 7.99051 4C9.02851 4 9.88001 2.0195 9.26751 1.0285C9.08001 0.7245 7.14601 0.5 4.72051 0.5H0.500014V2.016Z" fill="currentColor"/>
</svg>
