<?xml version="1.0" encoding="UTF-8"?>
<svg id="Layer_1" xmlns="http://www.w3.org/2000/svg" version="1.1" viewBox="0 0 39 43">
  <path fill="currentColor" d="M26.8,5.7c-1.8.3-3.5,1.6-4.2,3.3-.4.9-.6,2.6-.3,3.6v.5c.1,0-3.9,2.3-3.9,2.3-2.2,1.3-4.1,2.3-4.1,2.4,0,0-.2,0-.4-.2-1.1-1-2.3-1.5-3.9-1.5s-1.6.2-2.5.6c-1.4.7-2.5,2-2.9,3.6-.2.7-.2,2,0,2.7.4,1.6,1.4,2.9,2.9,3.6.9.4,1.5.6,2.5.6,1.5,0,2.8-.5,3.8-1.5.2-.2.3-.3.4-.2,0,0,1.9,1.1,4.1,2.4l4,2.3v.5c-.3.7-.3,1.9-.1,2.7.5,1.9,1.9,3.4,3.8,4,.5.2.7.2,1.6.2s1,0,1.6-.2c1.9-.6,3.4-2.1,3.8-4,.2-.9.2-2.2-.1-3-.3-.9-.7-1.5-1.4-2.2-.7-.7-1.3-1.1-2.2-1.4-.6-.2-.7-.2-1.7-.2s-1.1,0-1.7.2c-.8.3-1.4.6-2,1.1l-.4.4-4.1-2.4-4.1-2.4v-.5c.2-.3.2-.7.2-1.3s0-1-.1-1.3v-.5c-.1,0,4-2.4,4-2.4l4.1-2.4.3.3c1.3,1.2,3,1.7,4.7,1.4,2-.3,3.7-1.7,4.4-3.7.2-.5.2-.7.2-1.5,0-.8,0-1-.1-1.5-.7-2.8-3.4-4.6-6.3-4.2ZM28.7,8.1c.9.3,1.5.9,1.9,1.8.2.4.2.5.2,1.1,0,.6,0,.8-.1,1.1-.8,2.3-3.5,3-5.3,1.4-.4-.4-.7-.8-.9-1.4-.1-.4-.1-.6-.1-1.1,0-.6,0-.8.2-1.1.5-1.1,1.3-1.7,2.4-1.9.4,0,1.2,0,1.6.1ZM10.9,18.4c.5.2.9.3,1.3.7.7.7,1.1,1.4,1.1,2.4,0,1.8-1.5,3.3-3.3,3.3-.9,0-1.7-.4-2.4-1.1-.6-.6-.8-1.3-.8-2.2s.3-1.6.9-2.2c.9-.9,2-1.2,3.2-.9ZM28.5,28.7c1.1.3,1.9,1.1,2.3,2.2.1.4.1.6.1,1.1,0,.6,0,.8-.2,1.1-.4.9-1.1,1.5-1.9,1.8-.6.2-1.6.2-2.1,0-.9-.3-1.5-.9-1.9-1.8-.2-.4-.2-.5-.2-1.1,0-.8.1-1.3.5-1.9.7-1.2,2.3-1.8,3.6-1.4Z"/>
</svg>