<svg width="39" height="43" viewBox="0 0 39 43" fill="none" xmlns="http://www.w3.org/2000/svg">
<path fill-rule="evenodd" clip-rule="evenodd" d="M29.6462 0.0807516C27.2483 0.429995 25.0161 2.1512 24.0158 4.42211C23.4622 5.67882 23.2851 7.83639 23.6278 9.14917L23.7855 9.75348L18.4359 12.8138C15.4937 14.497 13.0149 15.9086 12.9275 15.9506C12.8104 16.0069 12.6862 15.9503 12.4566 15.7357C10.9934 14.3689 9.34698 13.7212 7.33489 13.7212C6.01304 13.7212 5.14433 13.9224 3.99088 14.4957C2.12281 15.4242 0.705587 17.1981 0.18786 19.2558C-0.0626201 20.2513 -0.0626201 21.8498 0.18786 22.8453C0.705771 24.9038 2.10595 26.6552 3.99088 27.6025C5.13471 28.1774 6.00617 28.3799 7.33489 28.3799C9.29962 28.3799 11.0001 27.7272 12.3638 26.4498C12.6682 26.1648 12.8051 26.0918 12.9263 26.15C13.0143 26.1923 15.4937 27.6041 18.4359 29.2873L23.7855 32.3477L23.6278 32.952C23.3993 33.8275 23.4066 35.5293 23.6432 36.5164C24.2465 39.0323 26.1751 41.04 28.7274 41.809C29.4483 42.0262 29.7076 42.0574 30.7888 42.0574C31.87 42.0574 32.1294 42.0262 32.8502 41.809C35.4226 41.034 37.3356 39.029 37.945 36.4692C38.2253 35.2922 38.1642 33.4987 37.8085 32.4569C37.4128 31.2978 36.8833 30.4452 36.011 29.5622C35.101 28.6413 34.3152 28.1485 33.0792 27.7237C32.2429 27.4363 32.1534 27.4245 30.7888 27.4245C29.4242 27.4245 29.3348 27.4363 28.4984 27.7237C27.4485 28.0845 26.5777 28.5851 25.8666 29.2366L25.3376 29.7215L19.8348 26.5752L14.332 23.4289L14.4928 22.8124C14.6048 22.3834 14.6537 21.8474 14.6537 21.0506C14.6537 20.2538 14.6048 19.7177 14.4928 19.2888L14.332 18.6723L19.8348 15.525L25.3376 12.3778L25.7499 12.7555C27.427 14.2924 29.7392 14.9954 31.9688 14.6463C34.6294 14.2297 36.8599 12.3356 37.7806 9.71106C38.0271 9.00799 38.0657 8.76182 38.0989 7.67451C38.1303 6.64785 38.1045 6.3019 37.9466 5.63869C37.0606 1.91712 33.4834 -0.478203 29.6462 0.0807516ZM32.1859 3.26893C33.3268 3.6616 34.2025 4.47387 34.7627 5.65894C35.0057 6.17291 35.0489 6.37987 35.0786 7.17061C35.1073 7.9314 35.0792 8.18692 34.9137 8.67735C33.8913 11.7052 30.242 12.6872 27.8856 10.5686C27.3065 10.048 26.9234 9.45636 26.664 8.68229C26.4986 8.18829 26.4705 7.93067 26.499 7.17061C26.5287 6.37987 26.572 6.17291 26.8149 5.65894C27.4743 4.26416 28.5259 3.41909 30.0101 3.09147C30.5395 2.97456 31.5764 3.05912 32.1859 3.26893ZM8.52316 16.8983C9.24657 17.0975 9.68441 17.3448 10.2344 17.865C11.1939 18.7723 11.6409 19.7848 11.6409 21.0506C11.6409 23.4588 9.70859 25.3836 7.30356 25.371C6.0933 25.3647 5.03723 24.889 4.14928 23.9501C3.38208 23.139 3.0289 22.2248 3.0289 21.0506C3.0289 19.8452 3.38337 18.9558 4.20847 18.0905C5.38556 16.8563 6.87516 16.4446 8.52316 16.8983ZM31.8944 30.5432C33.3708 30.9812 34.4302 31.992 34.9137 33.4238C35.0792 33.9142 35.1073 34.1697 35.0786 34.9305C35.0489 35.7213 35.0057 35.9282 34.7627 36.4422C34.2055 37.6209 33.3468 38.4207 32.1859 38.8422C31.4176 39.1211 30.1165 39.1138 29.3688 38.8264C28.1695 38.3653 27.3721 37.6209 26.8149 36.4422C26.572 35.9282 26.5287 35.7213 26.499 34.9305C26.4598 33.8898 26.6409 33.1728 27.141 32.388C28.1218 30.8485 30.2024 30.0411 31.8944 30.5432Z" fill="currentColor"/>
</svg>
