<svg width="19" height="18" viewBox="0 0 19 18" fill="none" xmlns="http://www.w3.org/2000/svg">
<path fill-rule="evenodd" clip-rule="evenodd" d="M1.74599 1.3507C1.65483 1.45143 1.64514 1.77193 1.64514 4.69036C1.64514 7.38011 1.65952 7.93825 1.73154 8.03684C1.8107 8.1453 1.9119 8.15669 2.9502 8.17412L4.08245 8.19313V11.0255V13.8579L4.23204 14.0074L4.38156 14.157H7.37007H10.3585V15.2799C10.3585 16.2194 10.3742 16.4184 10.4542 16.4986C10.5389 16.5832 10.9289 16.5943 13.8238 16.5943C16.2889 16.5943 17.1157 16.5762 17.1708 16.5212C17.2259 16.4661 17.2439 15.6393 17.2439 13.1743V9.90053L17.0833 9.77427C16.9257 9.65021 16.8668 9.64796 13.8194 9.64796C10.7231 9.64796 10.5359 9.65929 10.4051 9.85513C10.3805 9.89199 10.36 10.4363 10.3594 11.0646L10.3585 12.2071H8.22586H6.09322V10.1964V8.18558H7.19275C8.27894 8.18558 8.29417 8.18375 8.44187 8.03599L8.59146 7.88646V4.72338C8.59146 1.6157 8.58927 1.55757 8.46515 1.39982L8.33889 1.23926H5.09283C2.02554 1.23926 1.84128 1.24541 1.74599 1.3507ZM6.94628 4.68195V6.5404H5.08783H3.22939V4.68195V2.82351H5.08783H6.94628V4.68195ZM15.7206 13.1516V15.01H13.8621H12.0037V13.1516V11.2931H13.8621H15.7206V13.1516Z" fill="currentColor"/>
</svg>
