<svg width="19" height="18" viewBox="0 0 19 18" fill="none" xmlns="http://www.w3.org/2000/svg">
<path fill-rule="evenodd" clip-rule="evenodd" d="M10.4408 -0.041955C10.6724 -0.0129495 10.9297 0.035734 11.0124 0.0662439C11.0952 0.0966937 11.3118 0.154945 11.4939 0.195686C12.053 0.320855 12.7647 0.629986 13.6651 1.13885C14.8296 1.79683 16.146 3.11321 16.8044 4.27806C17.1446 4.87995 17.3314 5.25973 17.5025 5.6971C17.6712 6.12858 17.7372 6.35599 17.9393 7.20154C18.0375 7.61231 18.0763 9.61315 17.9975 10.2034C17.8409 11.3777 17.5103 12.3062 16.8044 13.5551C16.1574 14.6999 14.8144 16.0482 13.6952 16.6767C11.8652 17.7044 10.7613 17.9789 8.69561 17.9199C8.06676 17.902 7.44392 17.8613 7.31153 17.8295C6.25831 17.5769 6.22015 17.5654 5.65665 17.3293C5.30106 17.1804 4.49144 16.7797 4.4531 16.7336C4.43655 16.7138 4.3579 16.6632 4.27829 16.6212C3.89008 16.4166 3.09628 15.792 2.62371 15.3195C1.79115 14.4869 1.09117 13.4233 0.587967 12.2264C0.384207 11.7416 0.361822 11.6663 0.113649 10.6317C0.0818768 10.4993 0.0411949 9.87643 0.023262 9.24757C-0.0357113 7.18192 0.238758 6.07797 1.26647 4.24797C1.89496 3.12879 3.2433 1.78581 4.38805 1.13879C5.60965 0.44831 6.54313 0.110896 7.66188 -0.0446028C8.20757 -0.120426 9.82713 -0.118922 10.4408 -0.041955ZM7.94339 1.36529C7.30389 1.4765 6.47519 1.68183 6.19825 1.79761C5.8148 1.95792 5.44633 2.14598 5.42599 2.19177C5.41492 2.21662 5.37978 2.2369 5.34788 2.2369C5.19389 2.2369 4.12225 3.04894 3.64059 3.5306C3.20316 3.96803 2.34689 5.07968 2.34689 5.21015C2.34689 5.22682 2.27119 5.37028 2.1787 5.52897C1.75499 6.25561 1.38405 7.83695 1.38405 8.9166C1.38405 9.69812 1.61273 10.9214 1.91271 11.7449C2.07387 12.1873 2.57683 13.0244 3.15273 13.8088L3.27627 13.977L3.4284 13.7992C3.51205 13.7013 3.62976 13.5537 3.68999 13.4711C3.92667 13.1464 4.38149 12.7389 4.90131 12.3858C5.20093 12.1822 5.45957 12.0022 5.47612 11.9856C5.49267 11.969 5.62807 11.898 5.77701 11.8277C5.92595 11.7575 6.14 11.6559 6.25265 11.6021C6.3653 11.5483 6.48307 11.5042 6.51436 11.5042C6.54559 11.5042 6.65656 11.4657 6.76085 11.4187C7.84404 10.93 9.97161 10.92 11.2832 11.3973C11.6562 11.533 12.5153 11.9237 12.5771 11.9856C12.5936 12.0022 12.8522 12.1822 13.1519 12.3858C13.6717 12.7389 14.1265 13.1464 14.3632 13.4711C14.4234 13.5537 14.5411 13.7013 14.6248 13.7992L14.7769 13.977L14.9239 13.7787C15.0047 13.6696 15.214 13.3637 15.389 13.0989C15.5639 12.8341 15.7272 12.5894 15.7518 12.555C15.8142 12.4678 16.0486 11.9919 16.1359 11.775C16.3952 11.1309 16.6654 9.67465 16.6662 8.9166C16.6671 8.13802 16.4033 6.70459 16.1456 6.08826C15.9853 5.70481 15.7972 5.33634 15.7514 5.316C15.7266 5.30493 15.7063 5.26978 15.7063 5.23789C15.7063 5.0839 14.8942 4.01226 14.4126 3.5306C13.9309 3.04894 12.8593 2.2369 12.7053 2.2369C12.6734 2.2369 12.6383 2.21662 12.6272 2.19177C12.6071 2.14664 12.252 1.96478 11.8549 1.79628C11.646 1.70758 10.5976 1.44882 10.0195 1.34327C9.54604 1.25679 8.50352 1.26781 7.94339 1.36529ZM9.74872 4.22077C9.79836 4.25393 9.89314 4.28245 9.95934 4.28408C10.0255 4.2857 10.188 4.33932 10.3204 4.40329C10.4528 4.46726 10.5825 4.52046 10.6088 4.5216C10.6628 4.52395 10.6618 4.5231 11.1927 4.96107C11.619 5.31275 11.8423 5.59492 12.0612 6.05817C12.8493 7.72605 12.1834 9.63602 10.4949 10.5512C9.86311 10.8936 8.19006 10.8936 7.55826 10.5512C6.62539 10.0456 6.00213 9.25648 5.75251 8.26481C5.5301 7.38111 5.71809 6.38668 6.25915 5.58505C6.44125 5.31516 7.01269 4.78024 7.22608 4.67993C7.28963 4.65008 7.34162 4.60266 7.34162 4.57462C7.34162 4.54657 7.37544 4.52346 7.41684 4.52328C7.45818 4.52304 7.57156 4.48146 7.66868 4.43079C7.76575 4.38018 7.95531 4.30815 8.08993 4.27078C8.41561 4.18033 9.63324 4.14362 9.74872 4.22077ZM8.49281 5.64C8.09107 5.77991 7.92233 5.88065 7.67446 6.12852C7.3755 6.42748 7.30034 6.54843 7.19238 6.90426C6.90497 7.85164 7.30636 8.81255 8.15751 9.21471C8.8688 9.55081 9.52203 9.50296 10.1815 9.06656C10.4448 8.89228 10.7601 8.485 10.8072 8.25832C10.8247 8.17353 10.8646 8.0572 10.8957 7.99973C11.0364 7.73977 10.9092 6.81851 10.6855 6.47712C10.5236 6.23004 10.1079 5.86506 9.88363 5.77299C9.75979 5.7222 9.59075 5.65227 9.50801 5.61773C9.28577 5.52482 8.7925 5.53565 8.49281 5.64ZM8.21419 12.5246C6.88698 12.6823 5.60923 13.4093 4.64098 14.5576C4.50455 14.7194 4.39293 14.882 4.39293 14.9189C4.39293 15.046 5.69258 15.8463 6.19825 16.0305C7.02178 16.3305 8.24506 16.5591 9.02659 16.5591C9.80811 16.5591 11.0314 16.3305 11.8549 16.0305C12.3606 15.8463 13.6602 15.046 13.6602 14.9189C13.6602 14.882 13.5486 14.7194 13.4122 14.5576C12.4598 13.4282 11.1567 12.6752 9.89916 12.5277C9.38603 12.4676 8.70446 12.4663 8.21419 12.5246Z" fill="currentColor"/>
</svg>
